<?xml version="1.0" encoding="UTF-8"?>
<svg width="74px" height="74px" viewBox="0 0 74 74" version="1.1" xmlns="http://www.w3.org/2000/svg" xmlns:xlink="http://www.w3.org/1999/xlink">
    <!-- Generator: Sketch 46 (44423) - http://www.bohemiancoding.com/sketch -->
    <title>ico-queda-aero_BB</title>
    <desc>Created with Sketch.</desc>
    <defs>
        <polyline id="path-1" points="42.3783965 37.0655046 49.7538939 41 45.4489735 34.2758815 53.9907271 34.3134005 46.5777112 30.4472781 54 26.581275 45.4706535 26.6163708 49.7776704 19.881944 42.4138478 23.8124509 42.4597868 16.0106031 38.2343411 22.7775518 34 16 34.0428308 23.79279 36.2181025 27.2579566 36.2007782 23.5285204 38.2208034 26.7697521 40.2433293 23.5364203 40.2215198 27.2631168 43.7437782 25.384803 41.6825142 28.6097891 45.7668011 28.5902697 42.21585 30.4387451 45.7579287 32.2813539 41.6722102 32.2674454 43.735052 35.4860849 40.2065344 33.6057354"></polyline>
    </defs>
    <g id="1.-Estilos" stroke="none" stroke-width="1" fill="none" fill-rule="evenodd">
        <g id="1.3-Iconografia---Causas-BB" transform="translate(-165.000000, -153.000000)">
            <g id="ico-queda-aero_BB" transform="translate(165.000000, 153.000000)">
                <circle id="bg_ico-copy-8" fill="#0060A8" cx="37" cy="37" r="37"></circle>
                <g id="Group-4" transform="translate(8.000000, 14.000000)">
                    <g id="Shape-Copy" transform="translate(44.000000, 28.500000) rotate(-332.000000) translate(-44.000000, -28.500000) ">
                        <use fill="#FFFFFF" fill-rule="evenodd" xlink:href="#path-1"></use>
                        <path stroke="#0060A8" stroke-width="1" d="M42.2816772,34.1450155 L40.7558798,31.7643232 L43.6998643,31.774345 L41.1327061,30.4388952 L43.7044929,29.1001315 L40.7667309,29.1141715 L42.2940764,26.7245368 L39.7166194,28.0990166 L39.7330288,25.2950475 L38.2200236,27.713829 L36.7089627,25.2892561 L36.7262366,29.0078283 L33.5436212,23.9379826 L33.4903221,14.2405426 L38.2342271,21.8337104 L42.9701669,14.2492178 L42.9187807,22.9761716 L51.2291445,18.5404397 L46.3863542,26.1125987 L56.0585684,26.0728003 L47.6595205,30.4475621 L56.0480428,34.8224419 L46.3653564,34.7799115 L51.2065052,42.3415979 L42.0256636,37.4440328 L38.7849694,32.2816175 L42.2816772,34.1450155 Z"></path>
                    </g>
                    <circle id="Oval" fill="#0060A8" cx="38.5" cy="28.5" r="4.5"></circle>
                    <path d="M32.9138303,5.00313018 C31.9138369,4.96146416 30.9971763,5.33645837 30.3305141,6.08644679 L23.4138931,13.6696631 L7.62233092,11.5446959 C7.2473334,11.5030299 6.83066949,11.6280279 6.53900475,11.9196901 L5.20568024,13.2530028 C4.87234911,13.586331 4.95568189,14.1279893 5.3723458,14.3363195 L11.3723061,17.3362731 L10.5389783,18.1695936 C10.1223144,18.5862539 10.1223144,19.2529102 10.5389783,19.6695705 C10.9556422,20.0862307 11.6223045,20.0862307 12.0389684,19.6695705 L13.3722929,18.3362577 L17.4555992,20.3362268 L11.6223045,26.9611246 L7.62233092,26.4611323 C7.20566701,26.3778003 6.7890031,26.5027983 6.45567197,26.7944605 L6.24734002,27.0027906 C5.95567528,27.2944528 5.99734167,27.8361111 6.37233919,28.0444412 L10.4556455,30.5444026 L12.955629,34.6276729 C13.2056273,35.0026671 13.705624,35.0859992 13.9972888,34.752671 L14.2056207,34.5443409 C14.4972855,34.2526787 14.6222846,33.7943524 14.5389518,33.3776922 L14.0389552,29.377754 L20.6639113,23.5445107 L22.6222317,27.5444489 L21.2889072,28.8777617 C20.8722433,29.2944219 20.8722433,29.9610783 21.2889072,30.3777385 C21.7055711,30.7943988 22.3722334,30.7943988 22.7888973,30.3777385 L23.6222251,29.544418 L26.6638717,35.6276575 C26.8722036,36.0443177 27.4138667,36.1276498 27.7471978,35.7943216 L29.0805223,34.4610088 C29.3721871,34.1693467 29.4971862,33.7943524 29.4555199,33.3776922 L27.3305339,17.5862693 L34.9138171,10.6697094 C35.6221457,10.003053 36.0388097,9.04473446 35.9971433,8.08641592 L35.9971433,8.08641592 C35.9554769,6.41977498 34.6221524,5.08646223 32.9138303,5.00313018 Z" id="Shape" fill="#FFFFFF" transform="translate(20.500000, 20.500000) rotate(-288.000000) translate(-20.500000, -20.500000) "></path>
                </g>
            </g>
        </g>
    </g>
</svg>