<?xml version="1.0" encoding="UTF-8"?>
<svg width="74px" height="74px" viewBox="0 0 74 74" version="1.1" xmlns="http://www.w3.org/2000/svg" xmlns:xlink="http://www.w3.org/1999/xlink">
    <!-- Generator: Sketch 46 (44423) - http://www.bohemiancoding.com/sketch -->
    <title>ico-franquia-automovel_MAPFRE</title>
    <desc>Created with Sketch.</desc>
    <defs>
        <circle id="path-1" cx="44" cy="26" r="12"></circle>
    </defs>
    <g id="1.-Estilos" stroke="none" stroke-width="1" fill="none" fill-rule="evenodd">
        <g id="1.3-Iconografia---Causas-MAPFRE" transform="translate(-313.000000, -484.000000)">
            <g id="ico-franquia-automovel_MAPFRE" transform="translate(313.000000, 484.000000)">
                <circle id="bg_ico-copy-2" fill="#CC0000" cx="37" cy="37" r="37"></circle>
                <g id="Group-8" transform="translate(7.000000, 11.000000)">
                    <g id="Group" transform="translate(27.000000, 26.000000) rotate(-30.000000) translate(-27.000000, -26.000000) translate(7.000000, 8.500000)" fill="#FFFFFF">
                        <path d="M31.8855285,13.3269142 C32.8710283,13.4465327 34.6005281,14.535915 34.6080281,16.599618 L34.6080281,24.27542 L32.2080284,24.27542 L32.2080284,26.7256045 C32.2050284,29.7462552 27.702329,29.7103696 27.692429,26.7256045 L27.692429,24.27542 L19.6080301,24.27542 L11.5032311,24.27542 L11.5032311,26.7256045 C11.5044311,29.7103696 7.0017317,29.7462552 7.0077317,26.7256045 L7.0077317,24.27542 L4.60803202,24.27542 L4.60803202,16.599618 C4.60503202,14.535915 6.33333179,13.4465327 7.30983166,13.3269142 L9.76953134,7.29842923 C10.2378313,6.14439601 11.2428312,5.1623855 13.1361309,5.15412613 L16.6644304,5.15412613 L22.5915297,5.15412613 L26.0595292,5.15412613 C27.961529,5.1623855 28.9665288,6.14439601 29.4264288,7.29842923 L31.8855285,13.3269142 Z M19.6080301,13.2702379 L30.0397943,13.2702379 L28.1848945,7.8181797 C27.9502945,7.1440443 27.6019946,6.66215283 26.7940947,6.65047579 L19.5879301,6.65047579 L12.4225655,6.65047579 C11.6020656,6.66215283 11.2546656,7.1443291 11.0308656,7.8181797 L9.17626588,13.2702379 L19.6080301,13.2702379 Z" id="Combined-Shape" transform="translate(19.608028, 17.065891) rotate(-330.000000) translate(-19.608028, -17.065891) "></path>
                    </g>
                    <g id="Oval-3">
                        <use fill="#FFFFFF" fill-rule="evenodd" xlink:href="#path-1"></use>
                        <circle stroke="#D0021B" stroke-width="3" cx="44" cy="26" r="13.5"></circle>
                    </g>
                    <path d="M45.0898438,28.640625 C45.0898438,28.3203109 45.0009775,28.0654306 44.8232422,27.8759766 C44.6455069,27.6865225 44.3437521,27.5117196 43.9179688,27.3515625 C43.4921854,27.1914054 43.1250015,27.0322274 42.8164062,26.8740234 C42.507811,26.7158195 42.2431652,26.5341807 42.0224609,26.3291016 C41.8017567,26.1240224 41.6298834,25.8828139 41.5068359,25.6054688 C41.3837884,25.3281236 41.3222656,24.9980488 41.3222656,24.6152344 C41.3222656,23.9550748 41.533201,23.4140646 41.9550781,22.9921875 C42.3769552,22.5703104 42.9374965,22.3242191 43.6367188,22.2539062 L43.6367188,21 L44.5742188,21 L44.5742188,22.2714844 C45.2656285,22.3691411 45.8066387,22.6572242 46.1972656,23.1357422 C46.5878926,23.6142602 46.7832031,24.2343712 46.7832031,24.9960938 L45.0898438,24.9960938 C45.0898438,24.5273414 44.993165,24.176759 44.7998047,23.9443359 C44.6064443,23.7119129 44.3476579,23.5957031 44.0234375,23.5957031 C43.7031234,23.5957031 43.455079,23.6865225 43.2792969,23.8681641 C43.1035147,24.0498056 43.015625,24.3007796 43.015625,24.6210938 C43.015625,24.9179702 43.1015616,25.1562491 43.2734375,25.3359375 C43.4453134,25.5156259 43.7646461,25.6992178 44.2314453,25.8867188 C44.6982445,26.0742197 45.0820297,26.2509757 45.3828125,26.4169922 C45.6835953,26.5830086 45.937499,26.7705068 46.1445312,26.9794922 C46.3515635,27.1884776 46.5097651,27.4267565 46.6191406,27.6943359 C46.7285162,27.9619154 46.7832031,28.2734357 46.7832031,28.6289062 C46.7832031,29.2929721 46.5761739,29.8320292 46.1621094,30.2460938 C45.7480448,30.6601583 45.177738,30.9042965 44.4511719,30.9785156 L44.4511719,32.1445312 L43.5195312,32.1445312 L43.5195312,30.984375 C42.718746,30.8984371 42.098635,30.6142602 41.6591797,30.1318359 C41.2197244,29.6494117 41,29.0078165 41,28.2070312 L42.6933594,28.2070312 C42.6933594,28.6718773 42.8037098,29.0283191 43.0244141,29.2763672 C43.2451183,29.5244153 43.5624979,29.6484375 43.9765625,29.6484375 C44.3203142,29.6484375 44.5917959,29.5576181 44.7910156,29.3759766 C44.9902354,29.194335 45.0898438,28.9492203 45.0898438,28.640625 Z" id="$" fill="#D0021B"></path>
                </g>
            </g>
        </g>
    </g>
</svg>