<?xml version="1.0" encoding="UTF-8"?>
<svg width="74px" height="74px" viewBox="0 0 74 74" version="1.1" xmlns="http://www.w3.org/2000/svg" xmlns:xlink="http://www.w3.org/1999/xlink">
    <!-- Generator: Sketch 46 (44423) - http://www.bohemiancoding.com/sketch -->
    <title>ico-tumultos-graves_inativo</title>
    <desc>Created with Sketch.</desc>
    <defs></defs>
    <g id="1.-Estilos" stroke="none" stroke-width="1" fill="none" fill-rule="evenodd">
        <g id="1.3.1-Iconografia---Causas-inativas" transform="translate(-165.000000, -484.000000)">
            <g id="ico-tumultos-graves_inativo" transform="translate(165.000000, 484.000000)">
                <circle id="bg_ico-copy-17" fill="#999999" cx="37" cy="37" r="37"></circle>
                <path d="M23.8307357,39.0831044 L26.8847115,57.5716205 L29.9275875,57.1759844 L26.8736109,38.6874699 C31.9459051,37.274222 35.3438014,33.315988 34.6450286,27.9416469 C33.8788216,22.0486538 28.4850565,17.8965487 22.5925587,18.6626912 C16.6995658,19.428899 12.5474475,24.8226649 13.31385,30.7151283 C14.0127943,36.0889389 18.5631481,39.0137392 23.8307357,39.0831044 Z M23.9307246,27.140158 L27.4557702,22.5614644 L29.8944456,24.4389534 L26.3694017,29.0176454 L30.9480945,32.5426893 L29.0706055,34.9813663 L24.4919127,31.45632 L20.9668704,36.0350128 L18.5281933,34.1575254 L22.0378368,29.5808349 L17.4745461,26.0537895 L19.3520343,23.6151132 L23.9307246,27.140158 Z" id="Shape" fill="#FFFFFF" transform="translate(23.979353, 38.071621) rotate(-10.000000) translate(-23.979353, -38.071621) "></path>
                <path d="M41.7296331,21.4817921 C40.6773551,21.1563608 39.5599741,21.7452552 39.2331223,22.7996103 L35.747607,34.0431478 C35.4211002,35.0963899 36.0082115,36.2123321 37.0675461,36.5383175 L44.947853,38.9632973 L40.201632,54.5641327 L44.0206764,55.4843856 L48.7668967,39.8835494 L55.6734285,42.2091442 C56.7151913,42.5599307 57.8081592,41.988627 58.115365,40.9306073 L61.3913767,29.6479907 C61.6982582,28.5910877 61.0933534,27.470286 60.0417169,27.1450531 L41.7296331,21.4817921 Z" id="Shape" fill="#FFFFFF" transform="translate(48.564305, 38.438297) rotate(4.000000) translate(-48.564305, -38.438297) "></path>
            </g>
        </g>
    </g>
</svg>