<?xml version="1.0" encoding="UTF-8"?>
<svg width="74px" height="74px" viewBox="0 0 74 74" version="1.1" xmlns="http://www.w3.org/2000/svg" xmlns:xlink="http://www.w3.org/1999/xlink">
    <!-- Generator: Sketch 46 (44423) - http://www.bohemiancoding.com/sketch -->
    <title>ico-desmoronamento_inativo</title>
    <desc>Created with Sketch.</desc>
    <defs></defs>
    <g id="1.-Estilos" stroke="none" stroke-width="1" fill="none" fill-rule="evenodd">
        <g id="1.3.1-Iconografia---Causas-inativas" transform="translate(-453.000000, -320.000000)">
            <g id="ico-desmoronamento_inativo" transform="translate(453.000000, 320.000000)">
                <circle id="bg_ico-copy-11" fill="#999999" cx="37" cy="37" r="37"></circle>
                <path d="M36.643063,31.7817478 C36.877792,32.4685547 37.4236269,32.5613556 36.643063,32.8205582 L34.5648917,33.8593686 L32.4855207,31.7817478 C32.2120034,30.9689397 32.550701,30.4461345 33.5252062,29.701727 L35.6045772,30.7405374 C35.8593001,31.0593406 36.5618876,31.5401454 36.643063,31.7817478 Z M34.5648917,23.4596646 C35.1959008,23.7764678 35.4418264,24.0156702 35.6045772,24.500475 C35.806916,25.1096811 35.4218324,25.6056861 34.5648917,26.5804958 L31.4458352,27.6217062 L31.4458352,24.500875 C31.8733059,24.1308713 32.1200312,23.5816658 32.4855207,23.4596646 C33.1865086,23.2268623 33.9370816,23.1540615 34.5648917,23.4596646 Z M43.1155051,27.6505065 C43.7709069,27.4333043 44.6346456,27.6861069 44.9625464,28.6601166 C45.2460606,29.5197252 45.1264968,29.8165282 44.9625464,30.7401374 C44.7897987,31.6593466 44.4087139,32.5277553 43.9216613,32.8201582 C43.7137242,32.8913589 43.1954809,34.3085731 41.8402909,34.900179 L40.8038044,34.900179 L39.7629193,33.8589686 C39.3530433,33.4469645 38.831601,33.1501615 38.7232338,32.8201582 C38.3145574,31.597746 38.5436881,29.8785288 38.7232338,28.6605166 C38.9027795,27.4465045 39.0255423,26.8304983 39.7629193,26.5804958 C40.2831619,26.7840978 40.2899599,26.403294 40.8038044,26.5804958 C41.8710816,26.9148991 42.7612123,27.6617066 42.8807761,27.6217062 L43.1155051,27.6505065 Z M42.8807761,36.9801998 L46.0006324,35.9389894 L47.0391183,39.0602206 L44.9621465,40.101431 C43.945654,39.9486295 43.403418,39.5206252 42.8807761,39.0602206 L42.8807761,36.9801998 Z M57.3153349,41.8268485 C57.3153349,41.8268485 56.6010258,39.6738267 57.4351735,42.1802518 C57.5415413,42.4906549 55.8032671,46.1922919 55.3558025,46.3382934 L51.1974604,47.3795038 C51.0383085,47.0207002 50.4180961,46.3694937 49.1204886,45.299483 C47.8892611,44.196272 47.0655103,43.2906629 47.0391183,43.2198622 C46.7468067,42.3382534 47.426601,40.595036 48.0800034,39.0602206 C48.749001,37.4518045 49.1936665,36.7917979 50.1593744,35.9389894 L51.1978602,35.9389894 C53.2308453,35.2589826 51.1978602,35.9389894 51.1978602,35.9389894 C53.2799104,35.9330137 56.2333359,39.1501183 57.3153349,41.8268485 Z M52.2387454,56.7383974 C52.2031561,56.7383974 52.283132,57 52.283132,57 L23.1287511,57 L19,57 L19,17 C19,17 21.2177291,17 22.2086294,17.2220022 L24.9741928,17.7516075 L27.2874931,19.302023 C27.9233007,24.2304723 27.1259419,27.1565016 28.3271786,30.7405374 C28.5199203,31.3209432 29.7919355,33.1105611 30.4065496,33.8593686 L30.5569041,36.7765978 C35.1163249,41.598646 38.3913342,41.4898449 38.9603621,41.795848 L42.881176,44.2586726 C43.4657992,45.0674807 44.4399045,46.6242962 44.9625464,47.3799038 C45.4851883,48.1419114 45.5295749,48.7135171 46.0014322,49.4599246 C47.1018993,50.5119351 48.031618,52.1287513 48.0804033,52.5787558 C48.12439,53.00156 51.4593811,55.6303863 52.2387454,56.7383974 Z" id="Combined-Shape" fill="#FFFFFF"></path>
            </g>
        </g>
    </g>
</svg>