<?xml version="1.0" encoding="UTF-8"?>
<svg width="74px" height="74px" viewBox="0 0 74 74" version="1.1" xmlns="http://www.w3.org/2000/svg" xmlns:xlink="http://www.w3.org/1999/xlink">
    <!-- Generator: Sketch 46 (44423) - http://www.bohemiancoding.com/sketch -->
    <title>ico-tumultos-graves_BB</title>
    <desc>Created with Sketch.</desc>
    <defs></defs>
    <g id="1.-Estilos" stroke="none" stroke-width="1" fill="none" fill-rule="evenodd">
        <g id="1.3-Iconografia---Causas-BB" transform="translate(-165.000000, -484.000000)">
            <g id="ico-tumultos-graves_BB" transform="translate(165.000000, 484.000000)">
                <circle id="bg_ico-copy-17" fill="#0060A8" cx="37" cy="37" r="37"></circle>
                <path d="M23.8307357,39.0831044 L26.8847115,57.5716205 L29.9275875,57.1759844 L26.8736109,38.6874699 C31.9459051,37.274222 35.3438014,33.315988 34.6450286,27.9416469 C33.8788216,22.0486538 28.4850565,17.8965487 22.5925587,18.6626912 C16.6995658,19.428899 12.5474475,24.8226649 13.31385,30.7151283 C14.0127943,36.0889389 18.5631481,39.0137392 23.8307357,39.0831044 Z M23.9307246,27.140158 L27.4557702,22.5614644 L29.8944456,24.4389534 L26.3694017,29.0176454 L30.9480945,32.5426893 L29.0706055,34.9813663 L24.4919127,31.45632 L20.9668704,36.0350128 L18.5281933,34.1575254 L22.0378368,29.5808349 L17.4745461,26.0537895 L19.3520343,23.6151132 L23.9307246,27.140158 Z" id="Shape" fill="#FFFFFF" transform="translate(23.979353, 38.071621) rotate(-10.000000) translate(-23.979353, -38.071621) "></path>
                <path d="M41.747091,21.4815231 C40.694813,21.1560918 39.5774321,21.7449862 39.2505802,22.7993413 L35.7650649,34.0428788 C35.4385581,35.0961209 36.0256694,36.2120631 37.085004,36.5380485 L44.965311,38.9630283 L40.21909,54.5638637 L44.0381344,55.4841165 L48.7843547,39.8832804 L55.6908864,42.2088752 C56.7326492,42.5596617 57.8256172,41.988358 58.1328229,40.9303383 L61.4088347,29.6477217 C61.7157162,28.5908187 61.1108114,27.470017 60.0591749,27.1447841 L41.747091,21.4815231 Z" id="Shape" fill="#FFFFFF" transform="translate(48.569182, 38.188197) rotate(4.000000) translate(-48.569182, -38.188197) "></path>
            </g>
        </g>
    </g>
</svg>