<?xml version="1.0" encoding="UTF-8"?>
<svg width="74px" height="74px" viewBox="0 0 74 74" version="1.1" xmlns="http://www.w3.org/2000/svg" xmlns:xlink="http://www.w3.org/1999/xlink">
    <!-- Generator: Sketch 46 (44423) - http://www.bohemiancoding.com/sketch -->
    <title>ico-hole-in-one_inativo</title>
    <desc>Created with Sketch.</desc>
    <defs></defs>
    <g id="1.-Estilos" stroke="none" stroke-width="1" fill="none" fill-rule="evenodd">
        <g id="1.3.1-Iconografia---Causas-inativas" transform="translate(-453.000000, -484.000000)">
            <g id="ico-hole-in-one_inativo" transform="translate(453.000000, 484.000000)">
                <circle id="bg_ico-copy-18" fill="#999999" cx="37" cy="37" r="37"></circle>
                <path d="M39.79,30.962963 C32.27188,30.962963 32.45979,41.9676543 23.02,42.5989506 L23.02,26.6419753 L33.77,22.7530864 L23.02,18.8641975 C23.02,18.3871605 22.63472,18 22.16,18 C21.68485,18 21.3,18.3871605 21.3,18.8641975 L21.3,42.7078395 C18.86362,43.1209259 17,45.2507407 17,47.8148148 C17,50.6740123 19.31469,53 22.16,53 L22.16043,53 C50.11,53 60,49.1111111 60,41.7654321 C60,35.9632099 49.68,30.962963 39.79,30.962963 Z M22.5,51 C20.5701875,51 19,49.4034698 19,47.4412811 C19,45.7864769 20.1178125,44.3959075 21.625,44 L21.625,47.4412811 C21.625,47.9323843 22.0165625,48.3309609 22.5,48.3309609 C22.983,48.3309609 23.375,47.9323843 23.375,47.4412811 L23.375,44 C24.8821875,44.3963523 26,45.7869217 26,47.4412811 C26,49.4034698 24.4298125,51 22.5,51 Z" id="Shape" fill="#FFFFFF"></path>
            </g>
        </g>
    </g>
</svg>