<?xml version="1.0" encoding="UTF-8"?>
<svg width="74px" height="74px" viewBox="0 0 74 74" version="1.1" xmlns="http://www.w3.org/2000/svg" xmlns:xlink="http://www.w3.org/1999/xlink">
    <!-- Generator: Sketch 46 (44423) - http://www.bohemiancoding.com/sketch -->
    <title>ico-resp-civil_DMT_inativo</title>
    <desc>Created with Sketch.</desc>
    <defs>
        <polyline id="path-1" points="44.556002 29.5989989 52.3158631 33.5334943 47.7865978 26.8093758 56.7734929 26.8468948 48.9741581 22.9807724 56.7832491 19.1147692 47.8094076 19.149865 52.3408787 12.4154383 44.5933008 16.3459452 44.6416339 8.54409732 40.195985 15.3110461 35.7409771 8.53349427 35.78604 16.3262843 38.074673 19.7914508 38.0564458 16.0620147 40.1817418 19.3032464 42.3096687 16.0699146 42.2867227 19.796611 45.9925387 17.9182973 43.8238548 21.1432834 48.1209885 21.1237639 44.3849846 22.9722393 48.1116538 24.8148482 43.8130138 24.8009397 45.9833578 28.0195792 42.2709564 26.1392297"></polyline>
        <path d="M37.9250558,37.444021 L37.9042406,32.9772052 C37.9016585,32.4230955 38.3469035,31.9739008 38.8922582,31.9739008 L39.9385752,31.9739008 C40.4868244,31.9739008 40.9312681,32.4151647 40.9312681,32.9683516 L40.9312681,35.3492186 L44.8930342,31.9172381 C45.3118713,31.5544098 46.0125309,31.5310302 46.4571996,31.8644174 L56.1424351,39.1258546 C56.2097134,39.1734969 56.2569336,39.2427758 56.2698878,39.3266178 C56.2834689,39.4060909 56.2661269,39.4897249 56.2191157,39.5575474 L53.798559,39.594301 L53.798559,48.7621968 C53.798559,49.864477 52.9216369,50.9096158 52.002626,51.0684544 L52.002626,51.0684544 C51.8308782,51.0684544 51.6917249,50.9284403 51.6917249,50.7580517 L51.6917249,45.1192602 C51.6917249,44.5615775 51.2540087,44.1094862 50.6896634,44.1094862 L47.5598532,44.1094862 C47.0064299,44.1094862 46.5577917,44.5664691 46.5577917,45.1192602 L46.5577917,49.7482777 C46.5577917,50.3059605 46.1165256,50.7580517 45.564583,50.7580517 L38.8927739,50.7580517 C38.3442399,50.7580517 37.8995653,50.3044984 37.8995653,49.7627474 L37.8995653,39.5425119 L35.4370118,39.5577555 C35.3891648,39.4899329 35.3854039,39.3268258 35.3854039,39.3268258 L37.9250558,37.444021 Z" id="path-2"></path>
    </defs>
    <g id="1.-Estilos" stroke="none" stroke-width="1" fill="none" fill-rule="evenodd">
        <g id="1.3.1-Iconografia---Causas-inativas" transform="translate(-313.000000, -153.000000)">
            <g id="ico-resp-civil_DMT_inativo" transform="translate(313.000000, 153.000000)">
                <circle id="bg_ico-copy-13" fill="#999999" cx="37" cy="37" r="37"></circle>
                <g id="Shape-Copy-2" transform="translate(46.262113, 21.033494) rotate(-29.000000) translate(-46.262113, -21.033494) ">
                    <use fill="#FFFFFF" fill-rule="evenodd" xlink:href="#path-1"></use>
                    <path stroke="#999999" stroke-width="1" d="M44.4935425,26.7045014 L42.8707519,24.2978884 L45.9582027,24.307878 L43.2571857,22.9723911 L45.9631111,21.6335711 L42.8822058,21.6475659 L44.5065642,19.2320302 L41.7816856,20.6131503 L41.7992842,17.754937 L40.1809734,20.2139199 L38.5646966,17.7489797 L38.5828736,21.4681583 L35.2869079,16.4778124 L35.2312205,6.8477022 L40.1958727,14.4005931 L45.1520984,6.85646927 L45.0983711,15.529049 L53.8286786,11.099983 L48.7509832,18.6461788 L58.9372019,18.6063415 L50.1005383,22.9810593 L58.9261094,27.355886 L48.728894,27.3133141 L53.80486,34.849061 L44.2117717,29.9850613 L40.8142704,24.840932 L44.4935425,26.7045014 Z"></path>
                </g>
                <path d="M27.0734171,24.0582243 C24.7689502,24.0371294 23.3853732,25.3468016 23.0845953,28.2227081 C20.971973,29.4450365 18.7368798,30.5744014 20.0081155,34.3798053 C17.6094172,36.7480528 16.8660991,39.0430748 19.9153524,41.1707359 C15.6473006,45.1866911 16.7455656,47.6225017 20.6605167,49.2293333 C23.0038609,48.9237277 25.0390213,48.8585925 26.1600554,49.5016839 C26.2795591,54.0082414 25.756004,55.7057974 25.4138712,58.1941147 L29.6086075,58.1941147 C29.4168803,55.3638666 29.0165215,55.1632836 29.0489693,49.5016839 C30.550965,49.5928687 32.0066835,49.6159058 33.9888699,50.4068771 C38.2032586,49.3182292 36.975797,47.1720739 36.4119287,45.1549731 C39.2758902,44.6032982 40.5334222,41.7351199 37.3436391,39.5415863 C38.7231258,37.9277547 39.628608,36.253431 35.3864354,33.9272087 C36.8778037,32.9943377 37.2670754,31.7697579 33.3364687,29.4002519 C35.3220173,25.6389638 32.8239689,24.2975294 28.117259,24.1483479 C27.7509566,24.0917039 27.4026265,24.0612384 27.0734171,24.0582243 Z" id="Path" fill="#FFFFFF" transform="translate(28.200502, 41.126044) rotate(25.000000) translate(-28.200502, -41.126044) "></path>
                <g id="Combined-Shape-Copy-3" transform="translate(45.829889, 41.348710) rotate(-17.000000) translate(-45.829889, -41.348710) ">
                    <use fill="#FFFFFF" fill-rule="evenodd" xlink:href="#path-2"></use>
                    <path stroke="#999999" stroke-width="3" d="M35.7771561,39.3177929 L36.6627,38.6930656 C36.7926114,38.8772136 36.8413861,39.0165728 36.8702945,39.1595576 C36.8814871,39.2149178 36.8838924,39.2439794 36.8850053,39.2922482 L35.7771561,39.3177929 Z M36.4215324,36.6914223 L36.4042569,32.9841951 C36.3978199,31.6028473 37.5118149,30.4739008 38.8922582,30.4739008 L39.9385752,30.4739008 C41.0397292,30.4739008 41.9730414,31.1854635 42.3033738,32.1760382 L43.9108917,30.783485 C44.8639298,29.9578915 46.3482332,29.9079519 47.3570021,30.6642693 L57.0093009,37.9017044 C57.4017637,38.1796217 57.6759647,38.603533 57.748454,39.073948 C57.8278743,39.5386973 57.7236454,40.0200459 57.4519176,40.4120645 L57.0127337,41.0456701 L55.298559,41.071698 L55.298559,48.7621968 C55.298559,50.5508799 53.9385966,52.2560876 52.258093,52.5465399 L52.1312994,52.5684544 L52.002626,52.5684544 C51.0025547,52.5684544 50.1917249,51.7569716 50.1917249,50.7580517 L50.1917249,45.6094862 L48.0577917,45.6094862 L48.0577917,49.7482777 C48.0577917,51.1293033 46.9501923,52.2580517 45.564583,52.2580517 L38.8927739,52.2580517 C37.5159707,52.2580517 36.3995653,51.1331256 36.3995653,49.7627474 L36.3995653,41.0518259 L34.6629185,41.062576 L34.2113237,40.4224453 C34.0493774,40.1928883 33.9762935,39.9840728 33.9297906,39.7540631 C33.8988879,39.6012145 33.8884141,39.4746646 33.8858025,39.3614034 L33.8678911,38.5845985 L36.4215324,36.6914223 Z"></path>
                </g>
            </g>
        </g>
    </g>
</svg>