<?xml version="1.0" encoding="UTF-8"?>
<svg width="74px" height="74px" viewBox="0 0 74 74" version="1.1" xmlns="http://www.w3.org/2000/svg" xmlns:xlink="http://www.w3.org/1999/xlink">
    <!-- Generator: Sketch 46.2 (44496) - http://www.bohemiancoding.com/sketch -->
    <title>ico-incendio-explosao_BB</title>
    <desc>Created with Sketch.</desc>
    <defs>
        <polyline id="path-1" points="41.2524811 40.3976885 51.428597 45.7744876 45.4890154 36.5854479 57.2742375 36.6367205 47.0463565 31.3533585 57.2870315 26.0701595 45.5189277 26.1181207 51.461402 16.9149939 41.301394 22.2863424 41.3647769 11.6245003 35.534848 20.872071 29.692646 11.6100103 29.7517404 22.2594742 32.7530048 26.9948984 32.7291021 21.898329 35.5161698 26.3277284 38.3066877 21.9091247 38.2765968 27.0019502 43.1363246 24.4350859 40.2923589 28.8422845 45.9275282 28.8156096 41.0282125 31.3416975 45.9152868 33.8597682 40.2781423 33.8407611 43.1242849 38.2392865 38.2559211 35.6696402"></polyline>
    </defs>
    <g id="1.-Estilos" stroke="none" stroke-width="1" fill="none" fill-rule="evenodd">
        <g id="1.3-Iconografia---Causas-BB" transform="translate(-850.000000, -478.000000)">
            <g id="ico-incendio-explosao_BB" transform="translate(850.000000, 478.000000)">
                <circle id="bg_ico-copy" fill="#0060A8" cx="37" cy="37" r="37"></circle>
                <g id="Shape" transform="translate(43.489839, 28.692249) rotate(-30.000000) translate(-43.489839, -28.692249) ">
                    <use fill="#FFFFFF" fill-rule="evenodd" xlink:href="#path-1"></use>
                    <path stroke="#0060A8" stroke-width="1" d="M41.6642424,36.903263 L39.357052,33.3376526 L43.8396584,33.3527668 L39.9368648,31.3418479 L43.8476224,29.3254608 L39.3718278,29.3466476 L41.6799859,25.7697721 L37.7716712,27.8341086 L37.796372,23.6535613 L35.5153921,27.2653448 L33.2372987,23.6448422 L33.2611509,28.7306643 L29.252545,22.4058467 L29.1829538,9.86475517 L35.5347344,19.9346872 L41.8751723,9.87733493 L41.8063521,21.4538089 L52.9195227,15.5785465 L46.4393779,25.6143652 L59.3631634,25.561694 L48.1363542,31.3536431 L59.3491012,37.1457522 L46.4101548,37.0894601 L52.8878659,47.111032 L40.9013351,40.777656 L36.8279301,34.3505343 L41.6642424,36.903263 Z"></path>
                </g>
                <path d="M24.3343992,39.410114 L24.3108682,34.0176049 C24.3084615,33.4660862 24.7538451,33.0189921 25.3016958,33.0189921 L26.6282449,33.0189921 C27.1778706,33.0189921 27.6234302,33.4713752 27.6234302,34.0141335 L27.6234302,36.9626106 L32.0477256,32.8697022 C32.4563632,32.4916722 33.1437296,32.470331 33.5675354,32.8096524 L44.2656342,41.3751172 C44.3392419,41.4307809 44.3909045,41.5117243 44.4050774,41.6096827 C44.4199361,41.7025367 44.4009627,41.8002521 44.3495287,41.8794939 L41.7012507,41.9224357 L41.7012507,52.956378 C41.7012507,54.0661634 40.8222518,55.1280614 39.7363598,55.3284873 L39.7363598,55.3284873 C39.5484544,55.3284873 39.3962098,55.1648991 39.3962098,54.9658222 L39.3962098,48.1974658 C39.3962098,47.6453881 38.9554593,47.1978407 38.3920165,47.1978407 L34.7834795,47.1978407 C34.2288788,47.1978407 33.7792861,47.6377379 33.7792861,48.1974658 L33.7792861,53.9661971 C33.7792861,54.5182748 33.3223945,54.9658222 32.7834372,54.9658222 L25.3023595,54.9658222 C24.7523673,54.9658222 24.3065106,54.5147565 24.3065106,53.9593399 L24.3065106,41.8619269 L21.6122849,41.879737 C21.5599366,41.8004952 21.5558218,41.6099258 21.5558218,41.6099258 L24.3343992,39.410114 Z" id="Combined-Shape-Copy-2" fill="#FFFFFF" transform="translate(32.982904, 43.949146) rotate(-15.000000) translate(-32.982904, -43.949146) "></path>
            </g>
        </g>
    </g>
</svg>