<?xml version="1.0" encoding="UTF-8"?>
<svg width="74px" height="74px" viewBox="0 0 74 74" version="1.1" xmlns="http://www.w3.org/2000/svg" xmlns:xlink="http://www.w3.org/1999/xlink">
    <!-- Generator: Sketch 46 (44423) - http://www.bohemiancoding.com/sketch -->
    <title>ico-implosao_BB</title>
    <desc>Created with Sketch.</desc>
    <defs>
        <polyline id="path-1" points="36.8859738 49.9173867 43.045526 53.201677 39.4503269 47.5887699 46.583863 47.6200886 40.3929777 44.3928721 46.5916072 41.1657552 39.4684327 41.1950511 43.0653827 35.5735392 36.9155806 38.8545002 36.9539459 32.3419666 33.425119 37.990626 29.8888633 32.3331158 29.9246329 38.8380884 31.7412832 41.73061 31.7268151 38.6174914 33.4138132 41.323085 35.1028998 38.6240857 35.0846859 41.7349175 38.0262549 40.1670092 36.3048167 42.859042 39.7157565 42.8427483 36.7502252 44.3857492 39.7083469 45.923853 36.2962114 45.912243 38.0189673 48.598978 35.072171 47.0293705"></polyline>
    </defs>
    <g id="1.-Estilos" stroke="none" stroke-width="1" fill="none" fill-rule="evenodd">
        <g id="1.3-Iconografia---Causas-BB" transform="translate(-37.000000, -153.000000)">
            <g id="ico-implosao_BB" transform="translate(37.000000, 153.000000)">
                <circle id="bg_ico-copy-7" fill="#0060A8" cx="37" cy="37" r="37"></circle>
                <path d="M61.5162748,62.6183794 C60.6780564,61.4266962 57.0912214,58.5993525 57.043913,58.14462 C56.9914437,57.6606331 55.9915167,55.9217221 54.8079471,54.7902684 C54.3004573,53.9874955 54.2527188,53.3727246 53.6906093,52.5531735 C53.1284998,51.7405058 52.0808343,50.0661264 51.4520629,49.1962406 L47.2351663,46.5474343 C46.623168,46.2183232 43.1008443,46.3353405 38.1971161,41.1491524 L38.0354075,38.0116269 C37.3743804,37.2062728 36.0063082,35.2815108 35.7990115,34.6572753 C34.5070628,30.8025888 35.3646346,27.6555987 34.6808135,22.3549745 L32.192823,20.6874785 L29.2184164,20.1178797 C28.1526877,19.8791128 25.7674854,19.8791128 25.7674854,19.8791128 L14.3615262,30.695509 C13.5608679,31.4547821 13.4915404,32.7475467 14.2153232,33.5930779 L30.6389207,52.7793099 L47.1528172,72.0710302 C47.8680958,72.9066266 49.1346535,73.0246215 50.0040349,72.3164284 L61.5640133,62.8997371 C61.5403591,62.7659417 61.4779981,62.6183794 61.5162748,62.6183794 Z" id="Shape" fill="#FFFFFF" transform="translate(37.638959, 46.329880) rotate(-50.000000) translate(-37.638959, -46.329880) "></path>
                <g id="Shape" transform="translate(38.240235, 42.767396) rotate(-255.000000) translate(-38.240235, -42.767396) ">
                    <use fill="#0060A8" fill-rule="evenodd" xlink:href="#path-1"></use>
                    <path stroke="#0060A8" stroke-width="1" d="M36.5652652,47.2581596 L35.3796472,45.4091215 L37.6494191,45.4168445 L35.6666783,44.3858994 L37.6525833,43.3526096 L35.3888001,43.3634235 L36.5762273,41.506492 L34.5797842,42.5706314 L34.5925986,40.3820082 L33.4130335,42.2668408 L32.2350002,40.3775208 L32.2494179,43.4797813 L29.425424,38.9833391 L29.3791847,30.5743636 L33.4250051,37.0471054 L37.4643268,30.5812875 L37.4205147,38.018407 L44.5171831,34.2322865 L40.3843667,40.6912799 L48.651039,40.657281 L41.4751894,44.3931561 L48.6420414,48.1291295 L40.3669434,48.092799 L44.4984641,54.5430236 L36.5333191,50.2959862 L33.6502906,45.7055019 L36.5652652,47.2581596 Z"></path>
                </g>
                <path d="M30.1327206,25.8447805 L30.1115013,20.9820306 C30.1091071,20.4333803 30.5556233,19.9886114 31.102342,19.9886114 L32.1512759,19.9886114 C32.7008962,19.9886114 33.1464515,20.4317008 33.1464515,20.9951803 L33.1464515,23.6021392 L37.1390284,19.9086129 C37.547369,19.5308577 38.2283228,19.5047977 38.6517542,19.8438194 L48.3956618,27.6453081 C48.4631084,27.6963126 48.5104467,27.7704808 48.5234333,27.8602399 C48.5370483,27.9453218 48.519663,28.0348581 48.4725341,28.1074672 L46.0459236,28.1468147 L46.0459236,38.0980045 C46.0459236,39.2028131 45.1668083,40.260698 44.2454989,40.4307465 L44.2454989,40.4307465 C44.0733216,40.4307465 43.9338203,40.2808511 43.9338203,40.0984374 L43.9338203,33.9853631 C43.9338203,33.4304783 43.4950093,32.9806552 42.9414707,32.9806552 L39.7793967,32.9806552 C39.2313372,32.9806552 38.7870471,33.4259044 38.7870471,33.9853631 L38.7870471,39.0937295 C38.7870471,39.6486143 38.3446774,40.0984374 37.7913544,40.0984374 L31.102859,40.0984374 C30.5529531,40.0984374 30.1071663,39.642408 30.1071663,39.0953738 L30.1071663,28.0913706 L27.638454,28.10769 C27.5904874,28.0350809 27.5867171,27.8604627 27.5867171,27.8604627 L30.1327206,25.8447805 Z" id="Combined-Shape-Copy-2" fill="#FFFFFF" transform="translate(38.057324, 30.018546) rotate(-17.000000) translate(-38.057324, -30.018546) "></path>
            </g>
        </g>
    </g>
</svg>