<?xml version="1.0" encoding="UTF-8"?>
<svg width="74px" height="74px" viewBox="0 0 74 74" version="1.1" xmlns="http://www.w3.org/2000/svg" xmlns:xlink="http://www.w3.org/1999/xlink">
    <!-- Generator: Sketch 46 (44423) - http://www.bohemiancoding.com/sketch -->
    <title>ico-resp-civil-DCT_inativo</title>
    <desc>Created with Sketch.</desc>
    <defs></defs>
    <g id="1.-Estilos" stroke="none" stroke-width="1" fill="none" fill-rule="evenodd">
        <g id="1.3.1-Iconografia---Causas-inativas" transform="translate(-733.000000, -153.000000)">
            <g id="ico-resp-civil-DCT_inativo" transform="translate(733.000000, 153.000000)">
                <circle id="bg_ico-copy-14" fill="#999999" cx="37" cy="37" r="37"></circle>
                <g id="Group-5" transform="translate(13.000000, 19.000000)">
                    <path d="M28.1418845,37.9994036 C27.2664598,37.9994036 26.6956087,37.403021 26.6860347,36.4798207 C26.6794525,35.7570049 26.6806493,35.0353819 26.6812476,34.3143553 L26.6812476,33.4042754 L25.2804485,33.4042754 C24.7347292,33.4042754 24.1902066,33.4042754 23.6444873,33.4030827 C22.6362231,33.3995044 22.055798,32.8245915 22.0522077,31.8250542 C22.0498142,31.096871 22.0498142,30.3698806 22.0504126,29.6428902 L22.051011,28.777539 L20.6430313,28.7811172 C20.0859428,28.7811172 19.533043,28.7781353 18.9795448,28.7656113 C18.6546264,28.7578583 18.1998604,28.6511058 17.8946884,28.3731915 C17.5769505,28.0857351 17.4524882,27.6199603 17.4441109,27.3104377 C17.4213726,26.5417005 17.4243645,25.7640175 17.4273564,25.0113826 C17.4291515,24.7155768 17.4297499,24.4376625 17.4297499,24.1603446 L15.9344073,24.1603446 C15.3988604,24.1603446 14.8645102,24.1597482 14.3301601,24.1573627 C13.3811351,24.1525916 12.810284,23.5866245 12.8031035,22.6455327 C12.7983165,21.922717 12.7989148,21.1999012 12.8001116,20.4776818 L12.8001116,19.5437466 L11.89776,19.5419575 C11.1701342,19.5419575 10.4413118,19.5413611 9.71308768,19.5371864 C9.2457557,19.5353973 8.85441752,19.3892835 8.58335301,19.1161403 C8.32784628,18.8579066 8.19380996,18.5066372 8.19680184,18.0975187 C8.20158885,17.2429024 8.78201398,16.7097364 9.70949742,16.7055617 C11.1695359,16.6990015 12.6289759,16.6966159 14.0890144,16.7007906 C15.1056559,16.7037725 15.6465882,17.242306 15.6507768,18.2561565 C15.6537687,18.9694302 15.6537687,19.681511 15.6531703,20.3947846 L15.652572,21.3191777 L17.9018689,21.3155994 C18.1956717,21.3155994 18.4888762,21.3167922 18.7832774,21.3173886 C19.7197364,21.3215633 20.2804151,21.879181 20.2846038,22.8101343 C20.288194,23.6426845 20.2875957,24.4752346 20.2869973,25.3232907 L20.2869973,25.9250408 L23.3189706,25.9226553 C24.3912611,25.9250408 24.9136437,26.4486648 24.9160372,27.5227499 C24.9178324,28.2246922 24.9178324,28.9266346 24.917234,29.6279806 L24.917234,30.5499881 L26.870933,30.548199 C27.2628695,30.548199 27.6554045,30.5487954 28.0479394,30.5517773 C28.9945709,30.5589339 29.5839716,31.1535274 29.5857668,32.1041613 C29.5887586,33.5581421 29.5881603,35.0133158 29.5875619,36.4661039 C29.5857668,37.3833404 29.0322686,37.9850904 28.1765903,38 L28.1418845,38 L28.1418845,37.9994036 Z M35.5456388,31.3327508 C34.6582466,31.3327508 33.9916553,30.778115 33.806757,29.8865229 C33.7941911,29.827481 32.5088785,23.9716 26.5424673,23.4938975 C26.5167371,23.4921083 26.4838264,23.4921083 26.4479238,23.4921083 L26.3144859,23.4921083 C22.9169046,23.4921083 21.0439864,18.1670078 20.4282571,16.4178175 C20.2978111,16.0468675 20.1182981,15.6842669 19.9453674,15.3324011 C19.8675784,15.1749561 19.7891911,15.0163183 19.7155908,14.8570842 L19.5372746,14.8713974 C19.1459365,14.9030056 18.7438275,14.9346139 18.3351364,14.9399814 C17.9527739,14.9429633 17.5704114,14.9507162 17.1874505,14.9584692 C16.657289,14.9703969 16.1277258,14.9817281 15.5981627,14.9817281 C14.8825045,14.9817281 14.2895135,14.9620475 13.7306299,14.9179152 C11.9001965,14.7747834 8.84668162,13.5665122 8.25309222,13.32617 C7.42972628,13.0088944 6.95700891,12.3928311 7.00308389,11.7111658 C7.06172478,10.8476037 7.76840733,10.0776737 8.57980574,9.99477656 C8.99627573,9.95302978 9.47557524,10.0418908 9.90102087,10.2363115 C11.7446186,11.080193 13.7922627,11.4899078 16.1612349,11.4899078 C17.3735455,11.4899078 21.4496857,11.3032401 24.0927143,8.8944506 C24.4056651,8.6093797 24.7078452,8.29926073 24.9998529,7.99868389 C25.1404714,7.85376291 25.2822866,7.70943831 25.4241018,7.56630648 C25.7119209,7.27825366 25.8567279,6.88285198 25.8914338,6.28408381 C25.9464844,5.32867883 25.7771439,4.39832192 25.5970326,3.4136942 C25.5533511,3.17514114 25.5096696,2.93539532 25.4695784,2.69564951 C25.403757,2.30024782 25.3325502,1.71400369 25.4875297,1.19216889 C25.699355,0.478895255 26.3910781,0 27.2084603,0 C27.3760057,0 27.5435511,0.0208733922 27.7033176,0.0632165592 C28.3100712,0.220065192 28.7038029,0.660791958 28.8156993,1.30369244 L28.9545226,2.10701985 C29.1525852,3.22941196 29.3530413,4.37029194 29.4936598,5.50520809 C29.7192477,7.3182113 29.1705365,8.89564337 27.8618873,10.1927756 C27.0163814,11.0306932 26.093685,11.9288454 25.0399441,12.9379249 C25.0345588,12.9432923 25.0267799,12.9504489 25.0195993,12.9576055 C25.4869313,13.9845764 25.9536649,15.0121437 26.4221937,16.0492531 L26.681889,16.6229732 L28.274767,15.4123164 C30.2691556,13.8963118 32.5633308,13.1216107 35.0938647,13.1072975 L35.3858723,13.1067011 C36.4737207,13.1067011 37.5753316,13.140695 38.64104,13.1728996 L38.723616,13.1752851 C39.1299136,13.1878092 39.5362111,13.2003332 39.9425087,13.2110681 C41.3151842,13.2456583 42.015883,14.3280928 41.9997268,15.3813045 C41.979382,16.6116419 41.0949817,17.4710293 39.8497604,17.4710293 C39.8126611,17.4632763 39.7713731,17.4710293 39.7312819,17.4698365 C39.6893955,17.4680473 39.5786959,17.4489631 39.4129456,17.4209331 C38.8402994,17.3237227 37.6465384,17.1191635 36.2164188,17.1191635 C33.283776,17.1191635 31.1463754,17.9618522 29.8634564,19.6257597 C29.8006269,19.7080605 29.7360022,19.8082528 29.6905256,19.8881681 C36.1494006,21.9266039 37.5974716,28.5667282 37.6573092,28.8512027 C37.820666,29.6414097 37.5376339,30.1966419 37.2701597,30.5234596 C36.8626653,31.0220355 36.2014594,31.3327508 35.5456388,31.3327508 Z M19.1201143,10.4129455 C16.9647624,10.4129455 15.2115195,8.66554439 15.2115195,6.51737415 C15.2115195,4.3692039 16.9647624,2.6212064 19.1201143,2.6212064 C21.2760645,2.6212064 23.0293074,4.3692039 23.0293074,6.51737415 C23.0299058,8.66494801 21.2760645,10.4129455 19.1201143,10.4129455 Z" id="Combined-Shape" fill="#FFFFFF"></path>
                    <path d="M46.3026223,18 C46.2812187,18 46.259815,17.995371 46.2389602,17.9849558 C46.1643218,17.9485025 46.1330396,17.8536083 46.1681635,17.7760727 C47.8288666,14.0746182 45.1616435,11.3851763 45.0474908,11.2723447 C44.9871215,11.2133251 44.9838286,11.1132232 45.0403562,11.0501533 C45.0968838,10.9865047 45.1901817,10.9830329 45.2505509,11.0420525 C45.2801868,11.0715623 48.1932774,13.9976613 46.4376299,17.9103134 C46.4123846,17.9670185 46.358601,18 46.3026223,18 Z" id="Shape" stroke="#FFFFFF"></path>
                    <path d="M49.4834811,17 C49.463693,17 49.4433052,16.9962025 49.4229175,16.9873417 C49.3383683,16.9512656 49.2981924,16.8512653 49.3323719,16.7632902 C50.5562364,13.5316325 48.1618753,11.3949156 48.0587373,11.3050419 C47.9897787,11.2442822 47.9801845,11.1360539 48.0371503,11.0626359 C48.0947157,10.9898508 48.1978537,10.9784584 48.2668122,11.0392181 C48.293796,11.0626359 50.9490003,13.4215055 49.6351899,16.8917717 C49.6088057,16.9582277 49.5482421,17 49.4834811,17 Z" id="Shape" stroke="#FFFFFF"></path>
                    <path d="M2.27888786,14 C2.20977642,14 2.14637668,13.9490189 2.12867044,13.8734686 C2.11896057,13.8298583 1.13540775,9.45162776 4.76290135,7.02480552 C4.83486863,6.97689559 4.93139617,7.00023633 4.97651851,7.07885775 C5.02164086,7.15686494 4.99993644,7.26005556 4.92682682,7.30919395 C1.48953246,9.60825638 2.41996657,13.7500084 2.43024761,13.7911618 C2.45138086,13.8808394 2.40054683,13.9711312 2.31715617,13.9950862 C2.30459046,13.9981573 2.29145357,14 2.27888786,14 Z" id="Shape" stroke="#FFFFFF"></path>
                    <path d="M0.294898937,13 C0.234790664,13 0.179386517,12.9526367 0.160047334,12.8773744 C0.151161763,12.8410409 -0.738963354,9.25245695 1.77565317,7.03286817 C1.84046557,6.97577264 1.92827591,6.99523703 1.97374913,7.0743922 C2.01922234,7.15354737 2.00406461,7.26384555 1.94029757,7.32029227 C-0.402357027,9.38870765 0.395776299,12.6327719 0.430795902,12.7696714 C0.454839211,12.8624517 0.413547441,12.96172 0.33828143,12.9915654 C0.324169053,12.9974047 0.309533995,13 0.294898937,13 Z" id="Shape" stroke="#FFFFFF"></path>
                </g>
            </g>
        </g>
    </g>
</svg>