<?xml version="1.0" encoding="UTF-8"?>
<svg width="74px" height="74px" viewBox="0 0 74 74" version="1.1" xmlns="http://www.w3.org/2000/svg" xmlns:xlink="http://www.w3.org/1999/xlink">
    <!-- Generator: Sketch 46.2 (44496) - http://www.bohemiancoding.com/sketch -->
    <title>ico-incendio_inativo</title>
    <desc>Created with Sketch.</desc>
    <defs></defs>
    <g id="1.-Estilos" stroke="none" stroke-width="1" fill="none" fill-rule="evenodd">
        <g id="1.3.1-Iconografia---Causas-inativas" transform="translate(-738.000000, -478.000000)">
            <g id="ico-incendio_inativo" transform="translate(738.000000, 478.000000)">
                <circle id="bg_ico-copy" fill="#999999" cx="37" cy="37" r="37"></circle>
                <path d="M21.3163129,41.2853785 C22.2134945,36.9494695 25.5221916,33.4192426 25.8023147,29.0869898 C27.0565878,31.3684748 27.2048993,33.0127453 27.3458984,35.3966984 C31.3321222,30.5133867 35.4665639,23.9765233 34.5712572,18 C34.5712572,18 42.1298014,20.3748594 45.1857501,31.9671584 C46.9930508,30.3595439 46.8227081,27.0490657 45.9291827,25.0934535 C48.6116339,27.0490657 64.0125016,44.4073268 43.5103549,56.0069382 C47.3646733,48.50155 44.5046608,38.3758664 37.8121735,33.6974908 C38.2588893,35.7080401 37.7004242,40.9594119 34.7396311,44.2553591 C35.4098455,40.8477564 33.7344502,38.6688332 33.7344502,38.6688332 C33.7344502,38.6688332 33.1850788,41.7541255 31.0519053,44.8705425 C29.1055743,47.7160239 27.7579269,50.7371915 30.2901916,56.0069382 C22.2263382,51.4641243 20.1041334,47.1629962 21.3163129,41.2853785 Z" id="Shape" fill="#FFFFFF"></path>
            </g>
        </g>
    </g>
</svg>