<?xml version="1.0" encoding="UTF-8"?>
<svg width="74px" height="74px" viewBox="0 0 74 74" version="1.1" xmlns="http://www.w3.org/2000/svg" xmlns:xlink="http://www.w3.org/1999/xlink">
    <!-- Generator: Sketch 46 (44423) - http://www.bohemiancoding.com/sketch -->
    <title>ico-impacto-VT_MAPFRE</title>
    <desc>Created with Sketch.</desc>
    <defs>
        <polyline id="path-1" points="47.8150249 40.1528279 55.574886 44.2904073 51.0456207 37.2192148 60.0325158 37.2586704 52.2331809 33.1929931 60.0422719 29.1274412 51.0684305 29.1643485 55.5999015 22.0823156 47.8523237 26.2157007 47.9006567 18.0111503 43.4550078 25.1273839 39 18 39.0450628 26.1950249 41.3336958 29.8390505 41.3154687 25.9171148 43.4407646 29.3256468 45.5686916 25.9254224 45.5457456 29.8444771 49.2515615 27.8692118 47.0828776 31.2606597 51.3800114 31.2401327 47.6440074 33.1840196 51.3706766 35.121737 47.0720367 35.1071107 49.2423806 38.4918844 45.5299792 36.5144782"></polyline>
    </defs>
    <g id="1.-Estilos" stroke="none" stroke-width="1" fill="none" fill-rule="evenodd">
        <g id="1.3-Iconografia---Causas-MAPFRE" transform="translate(-37.000000, -484.000000)">
            <g id="ico-impacto-VT_MAPFRE" transform="translate(37.000000, 484.000000)">
                <circle id="bg_ico-copy-2" fill="#CC0000" cx="37" cy="37" r="37"></circle>
                <g id="Shape">
                    <use fill="#FFFFFF" fill-rule="evenodd" xlink:href="#path-1"></use>
                    <path stroke="#D0021B" stroke-width="1" d="M47.7886785,37.151066 L46.1554724,34.6039891 L49.3117488,34.6147285 L46.5604605,33.1841697 L49.3168381,31.749994 L46.1668611,31.7650411 L47.8015339,29.2086945 L45.0408439,30.680191 L45.0583904,27.6833449 L43.4399849,30.2694026 L41.8236538,27.6771442 L41.8418305,31.5882218 L38.545854,26.3402757 L38.4903214,16.2412479 L43.4548939,24.1838634 L48.4110376,16.2504713 L48.3572578,25.3796075 L57.051702,20.7410628 L51.9843645,28.6605772 L62.1017037,28.618967 L53.3153926,33.1932771 L62.0906941,37.7677113 L51.9622372,37.7232439 L57.027824,45.6317539 L47.4623702,40.5314274 L44.1080988,35.1906096 L47.7886785,37.151066 Z"></path>
                </g>
                <g id="Group" transform="translate(12.000000, 21.000000)" fill="#FFFFFF">
                    <path d="M31.8855285,14.3269142 C32.8710283,14.4465327 34.6005281,15.535915 34.6080281,17.599618 L34.6080281,25.27542 L32.2080284,25.27542 L32.2080284,27.7256045 C32.2050284,30.7462552 27.702329,30.7103696 27.692429,27.7256045 L27.692429,25.27542 L19.6080301,25.27542 L11.5032311,25.27542 L11.5032311,27.7256045 C11.5044311,30.7103696 7.0017317,30.7462552 7.0077317,27.7256045 L7.0077317,25.27542 L4.60803202,25.27542 L4.60803202,17.599618 C4.60503202,15.535915 6.33333179,14.4465327 7.30983166,14.3269142 L9.76953134,8.29842923 C10.2378313,7.14439601 11.2428312,6.1623855 13.1361309,6.15412613 L16.6644304,6.15412613 L22.5915297,6.15412613 L26.0595292,6.15412613 C27.961529,6.1623855 28.9665288,7.14439601 29.4264288,8.29842923 L31.8855285,14.3269142 Z M19.6080301,14.2702379 L30.0397943,14.2702379 L28.1848945,8.8181797 C27.9502945,8.1440443 27.6019946,7.66215283 26.7940947,7.65047579 L19.5879301,7.65047579 L12.4225655,7.65047579 C11.6020656,7.66215283 11.2546656,8.1443291 11.0308656,8.8181797 L9.17626588,14.2702379 L19.6080301,14.2702379 Z" id="Combined-Shape" transform="translate(19.608028, 18.065891) rotate(-330.000000) translate(-19.608028, -18.065891) "></path>
                </g>
            </g>
        </g>
    </g>
</svg>