<?xml version="1.0" encoding="UTF-8"?>
<svg width="74px" height="74px" viewBox="0 0 74 74" version="1.1" xmlns="http://www.w3.org/2000/svg" xmlns:xlink="http://www.w3.org/1999/xlink">
    <!-- Generator: Sketch 46 (44423) - http://www.bohemiancoding.com/sketch -->
    <title>ico-danos-agua_MAPFRE</title>
    <desc>Created with Sketch.</desc>
    <defs></defs>
    <g id="1.-Estilos" stroke="none" stroke-width="1" fill="none" fill-rule="evenodd">
        <g id="1.3-Iconografia---Causas-MAPFRE" transform="translate(-165.000000, -320.000000)">
            <g id="ico-danos-agua_MAPFRE" transform="translate(165.000000, 320.000000)">
                <circle id="bg_ico-copy-5" fill="#CC0000" cx="37" cy="37" r="37"></circle>
                <path d="M58.5666667,24 L54.7,24 C53.9095167,24 53.2666667,24.7339091 53.2666667,25.6363636 L53.2666667,26.4545455 L21.7333333,26.4545455 L21.7333333,25.6363636 C21.7333333,24.7339091 21.0904833,24 20.3,24 L17.4333333,24 C16.64285,24 16,24.7339091 16,25.6363636 L16,40.3636364 C16,41.2660909 16.64285,42 17.4333333,42 L20.3,42 C21.0904833,42 21.7333333,41.2660909 21.7333333,40.3636364 L21.7333333,39.5454545 L30.3333333,39.5454545 L30.3333333,35.4545455 C30.3333333,35.0020909 30.6544,34.6363636 31.05,34.6363636 L33.2,34.6363636 L33.2,32.1818182 C33.2,31.7293636 33.5210667,31.3636364 33.9166667,31.3636364 L38.7833333,31.3636364 C39.1789333,31.3636364 39.5,31.7293636 39.5,32.1818182 C39.5,32.6342727 39.1789333,33 38.7833333,33 L36.6333333,33 L36.6333333,35.4545455 C36.6333333,35.907 36.3122667,36.2727273 35.9166667,36.2727273 L33.7666667,36.2727273 L33.7666667,39.5454545 L53.2666667,39.5454545 L53.2666667,40.3636364 C53.2666667,41.2660909 53.9095167,42 54.7,42 L57.5666667,42 C58.35715,42 59,41.2660909 59,40.3636364 L59,25.6363636 C59,24.7339091 58.35715,24 57.5666667,24 L58.5666667,24 Z" id="Shape" fill="#FFFFFF"></path>
                <path d="M32.8548384,43.4347312 C32.4865797,42.8550896 31.6194532,42.8550896 31.2511946,43.4347312 L28.3738667,47.9594287 C26.5050767,50.834713 26.5463216,54.2077686 28.4759971,56.3516783 C29.4315057,57.4149004 30.7012616,58 32.0535075,58 C33.4047713,58 34.6755093,57.4149004 35.6310178,56.3516783 C36.9822817,54.8496316 38.1037521,52.1850268 35.7380583,47.96707 L32.8548384,43.4347312 Z" id="Shape" fill="#FFFFFF"></path>
            </g>
        </g>
    </g>
</svg>