<?xml version="1.0" encoding="UTF-8"?>
<svg width="74px" height="74px" viewBox="0 0 74 74" version="1.1" xmlns="http://www.w3.org/2000/svg" xmlns:xlink="http://www.w3.org/1999/xlink">
    <!-- Generator: Sketch 46 (44423) - http://www.bohemiancoding.com/sketch -->
    <title>ico-quebra-vidros_MAPFRE</title>
    <desc>Created with Sketch.</desc>
    <defs></defs>
    <g id="1.-Estilos" stroke="none" stroke-width="1" fill="none" fill-rule="evenodd">
        <g id="1.3-Iconografia---Causas-MAPFRE" transform="translate(-599.000000, -484.000000)">
            <g id="ico-quebra-vidros_MAPFRE" transform="translate(599.000000, 484.000000)">
                <circle id="bg_ico-copy-19" fill="#CC0000" cx="37" cy="37" r="37"></circle>
                <rect id="Rectangle-path" fill="#FFFFFF" x="19" y="21" width="16.9944444" height="15.1974922" rx="3"></rect>
                <rect id="Rectangle-path-Copy-2" fill="#FFFFFF" x="19" y="38" width="16.9944444" height="15.1974922" rx="3"></rect>
                <rect id="Rectangle-path-Copy" fill="#FFFFFF" x="38" y="21" width="16.9944444" height="15.1974922" rx="3"></rect>
                <rect id="Rectangle-path-Copy-3" fill="#FFFFFF" x="38" y="38" width="16.9944444" height="15.1974922" rx="3"></rect>
                <path d="M59.4578418,36.9800699 L49.0365166,38.5936944 L49.3054541,35.8034686 L53.4067498,30.760892 C53.5748356,30.5591889 53.5412185,30.2902515 53.3395154,30.1557828 C53.1378123,29.9876969 52.8688749,30.0213141 52.7344062,30.2230171 L47.960767,36.0387889 L45.6747989,33.1140944 L46.2462909,28.4749239 C46.2799081,28.2396036 46.1118222,28.0042834 45.8765019,28.0042834 C45.6411817,27.9706662 45.4058615,28.1387521 45.4058615,28.3740724 L45.0360725,31.5340871 L43.9267056,31.7694073 L42.6156357,31.2651496 L42.0777609,29.1472674 C42.0105265,28.9119472 41.7752063,28.7774785 41.539886,28.8110957 C41.3045658,28.87833 41.1700971,29.1136503 41.2037142,29.3489705 L42.1449952,33.2821803 L40.5649879,34.6941018 L37.8419965,33.5847349 L32.3960137,28.9119472 C32.2279278,28.7438613 31.9253732,28.7774785 31.7909045,28.9455644 C31.6228186,29.1136503 31.6564357,29.4162049 31.8245216,29.5506736 L41.8760578,38.1902883 L38.6488087,40.1400846 L37.1696529,40.0728502 L29.6057879,37.1145386 C29.3704677,37.013687 29.1015302,37.1481558 29.0342959,37.3498588 C28.9334443,37.5851791 29.0679131,37.8204993 29.2696161,37.9213508 L33.2028259,39.467741 L36.5645437,47.603098 L29.9755769,53.6878072 C29.807491,53.8558931 29.7738738,54.1248305 29.9419597,54.2929164 C30.0428112,54.3937679 30.1436627,54.4273851 30.2781315,54.4273851 C30.378983,54.4273851 30.4798345,54.3937679 30.5806861,54.3265336 L39.0185977,46.5609655 L41.6407375,47.5694809 L38.4134885,54.1920649 C38.3126369,54.3937679 38.4134885,54.6627054 38.6151915,54.7635569 C38.6824259,54.7971741 38.7496603,54.7971741 38.8168946,54.7971741 C38.9849805,54.7971741 39.1194492,54.6963225 39.2203007,54.5618538 L43.052659,46.7290514 L45.4394786,43.9388257 L46.1790565,47.5694809 C46.2126737,47.6703324 46.2799081,47.7711839 46.3471424,47.8384183 L55.1884602,53.7886587 C55.3901632,53.9231275 55.6591007,53.8558931 55.7935694,53.65419 C55.9280381,53.452487 55.8608037,53.1835495 55.6591007,53.0490808 L50.7509927,49.7545974 L48.6667277,46.1911766 L48.8684308,45.6869189 L51.7931252,45.3507471 L52.3646172,45.7541533 C52.4318516,45.8213876 52.5327031,45.8213876 52.6335547,45.8213876 C52.7680234,45.8213876 52.9024921,45.7541533 53.0033436,45.6533017 C53.1378123,45.4515987 53.1041952,45.1826612 52.9024921,45.0481925 L49.8769461,42.863076 L49.3726884,40.3417876 L49.7088602,39.6358269 L57.5416626,42.9639275 C57.7769829,43.064779 58.0123031,42.9639275 58.1131546,42.7286073 C58.2140062,42.493287 58.1131546,42.2579668 57.8778344,42.1571152 L50.8182271,39.1651864 L59.6259276,37.8204993 C59.8612479,37.7868821 60.0293338,37.5515619 59.9957166,37.3162416 C59.9620994,37.0809214 59.693162,36.9464527 59.4578418,36.9800699 Z M47.3892749,36.7447496 L45.7756504,38.7281631 L45.1705412,37.6187962 L45.5403302,34.35793 L47.3892749,36.7447496 Z M34.34581,39.9047643 L36.9343327,40.9132797 C36.9679498,40.9132797 37.0351842,40.9468968 37.0688014,40.9468968 L38.7496603,41.0477484 L38.7832774,41.0477484 C38.8505118,41.0477484 38.9513633,41.0141312 39.0185977,40.980514 L39.4220038,40.7451938 L40.8003081,43.7371226 L37.2705044,46.9643717 L34.34581,39.9047643 Z M48.4314074,40.409022 L49.0028995,43.2664821 C49.0365166,43.3673336 49.0701338,43.4681852 49.1709854,43.5354195 L50.6837584,44.6447864 L48.4650246,44.8801066 C48.2969387,44.9137238 48.16247,45.0145753 48.0952357,45.1490441 L47.7254467,46.090325 C47.6582124,46.2247937 47.6918295,46.3592625 47.7590639,46.4937312 L49.0365166,48.6788477 L46.9522516,47.2669263 L46.078205,42.9639275 C46.0445878,42.7958416 45.9101191,42.6613729 45.7756504,42.6277557 C45.6075645,42.5941385 45.4394786,42.6277557 45.3386271,42.7622244 L42.3130811,46.2584109 C42.2794639,46.2920281 42.2794639,46.3256453 42.2458467,46.3592625 L42.0105265,46.8299029 L39.7245584,45.9558563 L41.6071204,44.2077631 C41.7415891,44.0732944 41.7752063,43.8715913 41.7079719,43.7035054 L40.1615817,40.3417876 L42.8509559,38.6945459 C42.9854247,38.6273116 43.052659,38.4928429 43.052659,38.3583742 C43.052659,38.2239054 43.0190418,38.0894367 42.8845731,37.9885852 L39.9262615,35.4336797 L40.4977535,35.6689999 C40.5649879,35.7026171 40.598605,35.7026171 40.6658394,35.7026171 C40.7666909,35.7026171 40.8675425,35.6689999 40.968394,35.6017656 L42.9518075,33.8536723 C43.0862762,33.7528208 43.1198934,33.5847349 43.0862762,33.416649 L42.8173388,32.273665 L43.6913854,32.6098368 C43.7250026,32.6434539 43.7922369,32.6434539 43.8594713,32.6434539 L43.9603228,32.6434539 L44.935221,32.4417509 L44.8007523,33.1813288 L44.8007523,33.1813288 L44.2628774,37.6524134 C44.2628774,37.753265 44.2628774,37.8541165 44.3301118,37.9213508 L45.3386271,39.7030613 C45.4058615,39.83753 45.5403302,39.9047643 45.6747989,39.9047643 L45.7084161,39.9047643 C45.8428848,39.9047643 45.9773535,39.83753 46.0445878,39.7366784 L48.2633216,37.013687 L48.0616185,39.0643349 C48.0616185,39.1988036 48.0952357,39.3332723 48.1960872,39.4341238 C48.2633216,39.5013582 48.3977903,39.5685926 48.4986418,39.5685926 L48.5658762,39.5685926 L48.733962,39.5349754 L48.4314074,40.1400846 L48.4314074,40.409022 Z" id="Shape-Copy-6" fill="#D0021B"></path>
            </g>
        </g>
    </g>
</svg>