<?xml version="1.0" encoding="UTF-8"?>
<svg width="74px" height="74px" viewBox="0 0 74 74" version="1.1" xmlns="http://www.w3.org/2000/svg" xmlns:xlink="http://www.w3.org/1999/xlink">
    <!-- Generator: Sketch 46 (44423) - http://www.bohemiancoding.com/sketch -->
    <title>ico-granizo_BB</title>
    <desc>Created with Sketch.</desc>
    <defs></defs>
    <g id="1.-Estilos" stroke="none" stroke-width="1" fill="none" fill-rule="evenodd">
        <g id="1.3-Iconografia---Causas-BB" transform="translate(-599.000000, -153.000000)">
            <g id="ico-granizo_BB" transform="translate(599.000000, 153.000000)">
                <circle id="bg_ico-copy-4" fill="#0060A8" cx="37" cy="37" r="37"></circle>
                <path d="M40.4685569,17 C45.5000125,17 49.6151703,20.9362857 49.9013041,25.8960333 C52.89344,26.807571 55.0671756,29.5964611 55.0671756,32.8867321 C55.0671756,36.9180119 51.7991636,40.1860415 47.7678663,40.1860415 L26.2993094,40.1860415 C22.268012,40.1860415 19,36.9180119 19,32.8867321 C19,29.2705684 21.6269648,26.2746957 25.0782852,25.6947656 C25.4450063,23.2087024 27.5756722,21.2937114 30.1636496,21.2937114 C30.9173767,21.2937114 31.6249804,21.4590923 32.2702518,21.7499182 C33.8993352,18.9103323 36.9600851,17 40.4685569,17 Z M41.9292512,43.5164222 C41.9292512,43.5164222 41.277801,43.176869 42.1056356,43.6060878 C42.2088893,43.6585113 42.7217985,45.0020931 42.6514954,45.1456207 L41.9190183,46.4002986 C41.7910154,46.3483499 41.4795237,46.3332403 40.9011561,46.3749629 C40.3303235,46.3924994 39.9064036,46.3622269 39.8823432,46.3507785 C39.5914218,46.1995445 39.3167091,45.5999772 39.0879505,45.058976 C38.8444617,44.495792 38.785201,44.2240381 38.8020877,43.7794402 L39.0502194,43.5313086 C39.3654499,42.8750326 39.0502194,43.5313086 39.0502194,43.5313086 C39.5593558,43.0251252 41.0321453,43.1201078 41.9292512,43.5164222 Z M41.9292512,50.1178464 C41.9292512,50.1178464 41.277801,49.7782932 42.1056356,50.207512 C42.2088893,50.2599355 42.7217985,51.6035172 42.6514954,51.7470449 L41.9190183,53.0017228 C41.7910154,52.949774 41.4795237,52.9346645 40.9011561,52.9763871 C40.3303235,52.9939236 39.9064036,52.9636511 39.8823432,52.9522027 C39.5914218,52.8009687 39.3167091,52.2014014 39.0879505,51.6604002 C38.8444617,51.0972162 38.785201,50.8254623 38.8020877,50.3808644 L39.0502194,50.1327327 C39.3654499,49.4764568 39.0502194,50.1327327 39.0502194,50.1327327 C39.5593558,49.6265494 41.0321453,49.721532 41.9292512,50.1178464 Z M34.3810122,47.9350848 C34.3810122,47.9350848 35.0085935,47.9302062 33.9808989,47.9466432 C33.8533581,47.9496791 32.5953608,47.0045053 32.5788799,46.8435542 L32.5459385,45.3800292 C32.6965322,45.3647051 32.9988303,45.2287389 33.5199013,44.9144219 C34.0478135,44.6251595 34.4648189,44.4487259 34.4940963,44.4473381 C34.8554818,44.4419127 35.4600525,44.841717 35.9875472,45.2116363 C36.5417139,45.594158 36.7542335,45.8066582 36.9946262,46.2089015 L36.9038038,46.5478556 C36.9850327,47.2808129 36.9038038,46.5478556 36.9038038,46.5478556 C36.7073922,47.253312 35.3544146,47.859836 34.3810122,47.9350848 Z M34.3810122,54.9350848 C34.3810122,54.9350848 35.0085935,54.9302062 33.9808989,54.9466432 C33.8533581,54.9496791 32.5953608,54.0045053 32.5788799,53.8435542 L32.5459385,52.3800292 C32.6965322,52.3647051 32.9988303,52.2287389 33.5199013,51.9144219 C34.0478135,51.6251595 34.4648189,51.4487259 34.4940963,51.4473381 C34.8554818,51.4419127 35.4600525,51.841717 35.9875472,52.2116363 C36.5417139,52.594158 36.7542335,52.8066582 36.9946262,53.2089015 L36.9038038,53.5478556 C36.9850327,54.2808129 36.9038038,53.5478556 36.9038038,53.5478556 C36.7073922,54.253312 35.3544146,54.859836 34.3810122,54.9350848 Z M48.5364751,45.9549174 C48.5364751,45.9549174 48.2546112,45.1893468 48.5364751,45.9549174 C48.5724175,46.0497279 47.9850433,47.1803679 47.8338421,47.224963 L46.4287114,47.5429937 C46.3749329,47.4333996 46.1653591,47.234493 45.7268892,46.9076654 C45.3108494,46.5706971 45.0324986,46.2940849 45.0235806,46.2724593 C44.9248066,46.0031779 45.1545136,45.4707239 45.3753024,45.001925 C45.6013611,44.5106452 45.7516164,44.3090507 46.0779354,44.0485661 L46.4288465,44.0485661 C47.1158053,43.8408626 46.4288465,44.0485661 46.4288465,44.0485661 C47.1178984,44.0432236 48.1484962,45.0777121 48.5364751,45.9549174 Z M48.5364751,53.5563416 C48.5364751,53.5563416 48.2546112,52.790771 48.5364751,53.5563416 C48.5724175,53.6511521 47.9850433,54.7817921 47.8338421,54.8263872 L46.4287114,55.1444179 C46.3749329,55.0348238 46.1653591,54.8359171 45.7268892,54.5090896 C45.3108494,54.1721213 45.0324986,53.8955091 45.0235806,53.8738835 C44.9248066,53.6046021 45.1545136,53.0721481 45.3753024,52.6033492 C45.6013611,52.1120694 45.7516164,51.9104748 46.0779354,51.6499902 L46.4288465,51.6499902 C47.1158053,51.4422868 46.4288465,51.6499902 46.4288465,51.6499902 C47.1178984,51.6446478 48.1484962,52.6791363 48.5364751,53.5563416 Z M29.5364751,45.9549174 C29.5364751,45.9549174 29.2546112,45.1893468 29.5364751,45.9549174 C29.5724175,46.0497279 28.9850433,47.1803679 28.8338421,47.224963 L27.4287114,47.5429937 C27.3749329,47.4333996 27.1653591,47.234493 26.7268892,46.9076654 C26.3108494,46.5706971 26.0324986,46.2940849 26.0235806,46.2724593 C25.9248066,46.0031779 26.1545136,45.4707239 26.3753024,45.001925 C26.6013611,44.5106452 26.7516164,44.3090507 27.0779354,44.0485661 L27.4288465,44.0485661 C28.1158053,43.8408626 27.4288465,44.0485661 27.4288465,44.0485661 C28.1178984,44.0432236 29.1484962,45.0777121 29.5364751,45.9549174 Z M29.5364751,52.5563416 C29.5364751,52.5563416 29.2546112,51.790771 29.5364751,52.5563416 C29.5724175,52.6511521 28.9850433,53.7817921 28.8338421,53.8263872 L27.4287114,54.1444179 C27.3749329,54.0348238 27.1653591,53.8359171 26.7268892,53.5090896 C26.3108494,53.1721213 26.0324986,52.8955091 26.0235806,52.8738835 C25.9248066,52.6046021 26.1545136,52.0721481 26.3753024,51.6033492 C26.6013611,51.1120694 26.7516164,50.9104748 27.0779354,50.6499902 L27.4288465,50.6499902 C28.1158053,50.4422868 27.4288465,50.6499902 27.4288465,50.6499902 C28.1178984,50.6446478 29.1484962,51.6791363 29.5364751,52.5563416 Z" id="Shape" fill="#FFFFFF"></path>
            </g>
        </g>
    </g>
</svg>