<?xml version="1.0" encoding="UTF-8"?>
<svg width="74px" height="74px" viewBox="0 0 74 74" version="1.1" xmlns="http://www.w3.org/2000/svg" xmlns:xlink="http://www.w3.org/1999/xlink">
    <!-- Generator: Sketch 43.2 (39069) - http://www.bohemiancoding.com/sketch -->
    <title>ico_sinistro_cinza</title>
    <desc>Created with Sketch.</desc>
    <defs>
        <rect id="path-1" x="0" y="3" width="32" height="37"></rect>
        <path d="M13.6153846,2.33333333 L9,2.33333333 L9,7 L24,7 L24,2.33333333 L19.3846154,2.33333333 L19.3846154,0 L13.6153846,0 L13.6153846,2.33333333 Z" id="path-2"></path>
    </defs>
    <g id="1.-Estilos" stroke="none" stroke-width="1" fill="none" fill-rule="evenodd">
        <g id="1.3-Iconografia" transform="translate(-148.000000, -172.000000)">
            <g id="ico_sinistro_cinza" transform="translate(148.000000, 172.000000)">
                <circle id="bg" fill="#999999" cx="37" cy="37" r="37"></circle>
                <g id="ico" transform="translate(21.000000, 17.000000)">
                    <g id="Rectangle">
                        <use fill="#FFFFFF" fill-rule="evenodd" xlink:href="#path-1"></use>
                        <rect stroke="#979797" stroke-width="1" x="0.5" y="3.5" width="31" height="36"></rect>
                    </g>
                    <g id="Combined-Shape">
                        <use fill="#FFFFFF" fill-rule="evenodd" xlink:href="#path-2"></use>
                        <path stroke="#999999" stroke-width="2" d="M12.6153846,1.33333333 L9,1.33333333 L8,1.33333333 L8,2.33333333 L8,7 L8,8 L9,8 L24,8 L25,8 L25,7 L25,2.33333333 L25,1.33333333 L24,1.33333333 L20.3846154,1.33333333 L20.3846154,0 L20.3846154,-1 L19.3846154,-1 L13.6153846,-1 L12.6153846,-1 L12.6153846,0 L12.6153846,1.33333333 Z"></path>
                    </g>
                    <path d="M14,14.1717172 C14,14.306398 13.9518284,14.4208749 13.8554839,14.5151515 L9.41677419,18.8585859 C9.32042963,18.9528624 9.20344155,19 9.06580645,19 C8.92817135,19 8.81118328,18.9528624 8.71483871,18.8585859 L6.14451613,16.3434343 C6.04817156,16.2491578 6,16.1346808 6,16 C6,15.8653192 6.04817156,15.7508422 6.14451613,15.6565657 L6.84645161,14.969697 C6.94279618,14.8754204 7.05978426,14.8282828 7.19741935,14.8282828 C7.33505445,14.8282828 7.45204253,14.8754204 7.5483871,14.969697 L9.06580645,16.459596 L12.4516129,13.1414141 C12.5479575,13.0471376 12.6649455,13 12.8025806,13 C12.9402157,13 13.0572038,13.0471376 13.1535484,13.1414141 L13.8554839,13.8282828 C13.9518284,13.9225594 14,14.0370364 14,14.1717172 Z" id="Check---FontAwesome" fill="#999999"></path>
                    <path d="M14,22.1717172 C14,22.306398 13.9518284,22.4208749 13.8554839,22.5151515 L9.41677419,26.8585859 C9.32042963,26.9528624 9.20344155,27 9.06580645,27 C8.92817135,27 8.81118328,26.9528624 8.71483871,26.8585859 L6.14451613,24.3434343 C6.04817156,24.2491578 6,24.1346808 6,24 C6,23.8653192 6.04817156,23.7508422 6.14451613,23.6565657 L6.84645161,22.969697 C6.94279618,22.8754204 7.05978426,22.8282828 7.19741935,22.8282828 C7.33505445,22.8282828 7.45204253,22.8754204 7.5483871,22.969697 L9.06580645,24.459596 L12.4516129,21.1414141 C12.5479575,21.0471376 12.6649455,21 12.8025806,21 C12.9402157,21 13.0572038,21.0471376 13.1535484,21.1414141 L13.8554839,21.8282828 C13.9518284,21.9225594 14,22.0370364 14,22.1717172 Z" id="Check---FontAwesome-Copy-2" fill="#999999"></path>
                    <path d="M14,30.1717172 C14,30.306398 13.9518284,30.4208749 13.8554839,30.5151515 L9.41677419,34.8585859 C9.32042963,34.9528624 9.20344155,35 9.06580645,35 C8.92817135,35 8.81118328,34.9528624 8.71483871,34.8585859 L6.14451613,32.3434343 C6.04817156,32.2491578 6,32.1346808 6,32 C6,31.8653192 6.04817156,31.7508422 6.14451613,31.6565657 L6.84645161,30.969697 C6.94279618,30.8754204 7.05978426,30.8282828 7.19741935,30.8282828 C7.33505445,30.8282828 7.45204253,30.8754204 7.5483871,30.969697 L9.06580645,32.459596 L12.4516129,29.1414141 C12.5479575,29.0471376 12.6649455,29 12.8025806,29 C12.9402157,29 13.0572038,29.0471376 13.1535484,29.1414141 L13.8554839,29.8282828 C13.9518284,29.9225594 14,30.0370364 14,30.1717172 Z" id="Check---FontAwesome-Copy-3" fill="#999999"></path>
                    <path d="M17.5625,16 L25.5174513,16" id="Line" stroke="#979797" stroke-width="2" stroke-linecap="square"></path>
                    <path d="M17.5625,24 L25.5174513,24" id="Line" stroke="#979797" stroke-width="2" stroke-linecap="square"></path>
                    <path d="M17.5625,32 L25.5174513,32" id="Line" stroke="#979797" stroke-width="2" stroke-linecap="square"></path>
                </g>
            </g>
        </g>
    </g>
</svg>