<?xml version="1.0" encoding="UTF-8"?>
<svg width="74px" height="74px" viewBox="0 0 74 74" version="1.1" xmlns="http://www.w3.org/2000/svg" xmlns:xlink="http://www.w3.org/1999/xlink">
    <!-- Generator: Sketch 43.2 (39069) - http://www.bohemiancoding.com/sketch -->
    <title>ico_historico_azul</title>
    <desc>Created with Sketch.</desc>
    <defs></defs>
    <g id="1.-Estilos" stroke="none" stroke-width="1" fill="none" fill-rule="evenodd">
        <g id="1.3-Iconografia" transform="translate(-358.000000, -375.000000)">
            <g id="ico_historico_azul" transform="translate(358.000000, 375.000000)">
                <circle id="bg" fill="#0060A8" cx="37" cy="37" r="37"></circle>
                <path d="M37.1428571,18 C26.7295238,18 18.2857143,26.5077778 18.2857143,37 L12,37 L20.1504762,45.2122222 L20.2971429,45.5077778 L28.7619048,37 L22.4761905,37 C22.4761905,28.83 29.0342857,22.2222222 37.1428571,22.2222222 C45.2514286,22.2222222 51.8095238,28.83 51.8095238,37 C51.8095238,45.17 45.2514286,51.7777778 37.1428571,51.7777778 C33.0990476,51.7777778 29.432381,50.11 26.792381,47.4288889 L23.8171429,50.4266667 C27.232381,53.8677778 31.9257143,56 37.1428571,56 C47.5561905,56 56,47.4922222 56,37 C56,26.5077778 47.5561905,18 37.1428571,18 Z M35.047619,28.5555556 L35.047619,39.1111111 L44.0152381,44.4733333 L45.5238095,41.9188889 L38.1904762,37.5277778 L38.1904762,28.5555556 L35.047619,28.5555556 Z" id="ico" fill="#FFFFFF"></path>
            </g>
        </g>
    </g>
</svg>