<?xml version="1.0" encoding="UTF-8"?>
<svg width="43px" height="43px" viewBox="0 0 43 43" version="1.1" xmlns="http://www.w3.org/2000/svg" xmlns:xlink="http://www.w3.org/1999/xlink">
    <!-- Generator: Sketch 46 (44423) - http://www.bohemiancoding.com/sketch -->
    <title>Group 4</title>
    <desc>Created with Sketch.</desc>
    <defs></defs>
    <g id="7.-BB" stroke="none" stroke-width="1" fill="none" fill-rule="evenodd">
        <g id="2.1-Bem-vindo-BB-(Web)" transform="translate(-177.000000, -732.000000)">
            <g id="Group-2" transform="translate(123.000000, 687.000000)">
                <g id="Group-4" transform="translate(43.000000, 34.000000)">
                    <rect id="Rectangle" x="0" y="0" width="64" height="64"></rect>
                    <path d="M33.6499023,34.9262695 L30.6713867,34.9262695 L30.0488281,23 L34.2724609,23 L33.6499023,34.9262695 Z M30,39.1010742 C30,38.7185853 30.0549311,38.3951022 30.1647949,38.1306152 C30.2746588,37.8661282 30.4272451,37.6525073 30.6225586,37.4897461 C30.8178721,37.3269849 31.0457344,37.2089847 31.3061523,37.1357422 C31.5665703,37.0624996 31.8473292,37.0258789 32.1484375,37.0258789 C32.4332697,37.0258789 32.7038561,37.0624996 32.9602051,37.1357422 C33.216554,37.2089847 33.4423818,37.3269849 33.6376953,37.4897461 C33.8330088,37.6525073 33.9876296,37.8661282 34.1015625,38.1306152 C34.2154954,38.3951022 34.2724609,38.7185853 34.2724609,39.1010742 C34.2724609,39.467287 34.2154954,39.7805977 34.1015625,40.0410156 C33.9876296,40.3014336 33.8330088,40.517089 33.6376953,40.6879883 C33.4423818,40.8588876 33.216554,40.9829911 32.9602051,41.0603027 C32.7038561,41.1376143 32.4332697,41.1762695 32.1484375,41.1762695 C31.8473292,41.1762695 31.5665703,41.1376143 31.3061523,41.0603027 C31.0457344,40.9829911 30.8178721,40.8588876 30.6225586,40.6879883 C30.4272451,40.517089 30.2746588,40.3014336 30.1647949,40.0410156 C30.0549311,39.7805977 30,39.467287 30,39.1010742 Z" id="!" fill="#FF9F00"></path>
                    <circle id="Oval" stroke="#FF9F00" stroke-width="2" cx="32.5" cy="32.5" r="20.5"></circle>
                </g>
            </g>
        </g>
    </g>
</svg>