<?xml version="1.0" encoding="UTF-8"?>
<svg width="15px" height="15px" viewBox="0 0 15 15" version="1.1" xmlns="http://www.w3.org/2000/svg" xmlns:xlink="http://www.w3.org/1999/xlink">
    <!-- Generator: Sketch 46 (44423) - http://www.bohemiancoding.com/sketch -->
    <title>ico_fechar-com</title>
    <desc>Created with Sketch.</desc>
    <defs></defs>
    <g id="2.-Bem-Vindo" stroke="none" stroke-width="1" fill="none" fill-rule="evenodd">
        <g id="2.1-Bem-vindo-MAPFRE-(Web)" transform="translate(-532.000000, -283.000000)">
            <g id="Group-4" transform="translate(524.000000, 275.000000)">
                <g id="ico_trocar_usuário">
                    <g id="ico_fechar-com" stroke-width="1" fill="#D8D8D8" opacity="0">
                        <rect id="space" transform="translate(15.000000, 15.000000) scale(-1, 1) translate(-15.000000, -15.000000) " x="0" y="0" width="30" height="30"></rect>
                    </g>
                    <path d="M21.8901374,16.1554141 L21.193973,16.1554141 C21.039269,16.1554141 20.8956175,16.2079021 20.7630141,16.3128798 C20.6304107,16.4178575 20.5420097,16.5476964 20.4978086,16.7024004 C20.2878532,17.46487 19.9259618,18.1472148 19.4121236,18.7494553 C18.8982854,19.3516957 18.2877664,19.8240883 17.5805482,20.1666471 C16.8512295,20.5092059 16.0721962,20.6804827 15.2434249,20.6804827 C14.4146536,20.6804827 13.6245701,20.4981558 12.8731508,20.1334964 C12.1548824,19.7798873 11.5416008,19.2881571 11.0332878,18.6582909 C10.9338352,18.547788 10.8923973,18.406899 10.9089727,18.2356196 C10.9255481,18.0643402 10.9946114,17.9289763 11.1161645,17.8295237 L12.5250686,16.536647 C12.6355715,16.4261441 12.6770094,16.3349807 12.6493837,16.2631538 C12.621758,16.191327 12.5305945,16.1554141 12.3758905,16.1554141 L8.580137,16.1554141 C8.42543303,16.1554141 8.29006908,16.2106647 8.1740411,16.3211675 C8.05801312,16.4316703 8,16.5642718 8,16.7189757 L8,20.1169211 C8.01105028,20.271625 8.05525076,20.3683136 8.13260274,20.4069896 C8.20995473,20.4456655 8.30940579,20.4097527 8.43095892,20.2992498 L8.92821921,19.8351402 C9.04977233,19.7246374 9.18237375,19.6776744 9.32602744,19.6942498 C9.46968113,19.7108252 9.59123243,19.7798885 9.69068498,19.9014416 C10.3758026,20.7081123 11.1935113,21.3379691 12.1438357,21.7910307 C13.127311,22.2551426 14.1660221,22.4871951 15.2600002,22.4871951 C16.4092298,22.4871951 17.4921413,22.2330424 18.5087675,21.7247293 C19.4922427,21.2274665 20.3237641,20.5395967 21.0033566,19.6610991 C21.682949,18.7826015 22.1332413,17.7963785 22.354247,16.7024004 C22.3873979,16.5587467 22.3570101,16.4316703 22.2630826,16.3211675 C22.1691552,16.2106647 22.0448414,16.1554141 21.8901374,16.1554141 Z M22.1056169,10.2048659 L21.6083566,10.7021262 C21.4978538,10.8126291 21.3735399,10.8623546 21.2354114,10.8513043 C21.0972828,10.840254 20.9784941,10.7739533 20.8790415,10.6524002 C20.1939239,9.82362891 19.3706901,9.177197 18.4093154,8.71308507 C17.4147898,8.23792287 16.3650286,8.00034533 15.2600002,8.00034533 C14.1107707,7.98929504 13.0278591,8.24344776 12.011233,8.7628111 C11.0277577,9.2490236 10.1962363,9.93413092 9.51664388,10.8181536 C8.83705142,11.7021763 8.38675911,12.6911619 8.16575343,13.78514 C8.13260258,13.9287937 8.1629904,14.0586326 8.25691782,14.1746606 C8.35084523,14.2906886 8.47515906,14.3487017 8.62986303,14.3487017 L9.32602744,14.3487017 C9.48073141,14.3487017 9.62438295,14.2934511 9.75698636,14.1829483 C9.88958976,14.0724454 9.97799071,13.939844 10.0221918,13.78514 C10.2321472,13.0226704 10.5912761,12.3403256 11.0995891,11.7380852 C11.6079022,11.1358447 12.2211838,10.6634521 12.9394522,10.3208933 C13.6687709,9.97833454 14.4422792,9.80705771 15.2600002,9.80705771 C16.1219224,9.80705771 16.9396311,10.0004348 17.713151,10.3871947 C18.45352,10.7629044 19.0778517,11.2822599 19.5861647,11.945277 C19.674567,12.0668301 19.7104799,12.2132441 19.6939045,12.3845235 C19.6773291,12.5558029 19.6137909,12.696692 19.503288,12.8071948 L18.3761647,13.9343181 C18.2656619,14.044821 18.2269865,14.1415095 18.2601373,14.2243866 C18.2932882,14.3072637 18.3872142,14.3487017 18.5419181,14.3487017 L21.9398635,14.3487017 C22.1056177,14.3487017 22.2437442,14.2906886 22.354247,14.1746606 C22.4647499,14.0586326 22.5200005,13.9232687 22.5200005,13.7685647 L22.5200005,10.3706194 C22.5200005,10.2159154 22.4785625,10.1219894 22.3956854,10.0888385 C22.3128083,10.0556877 22.2161197,10.0943631 22.1056169,10.2048659 Z" id="refresh---icofont" fill="#979797"></path>
                </g>
            </g>
        </g>
    </g>
</svg>