<?xml version="1.0" encoding="UTF-8"?>
<svg width="196px" height="52px" viewBox="0 0 196 52" version="1.1" xmlns="http://www.w3.org/2000/svg" xmlns:xlink="http://www.w3.org/1999/xlink">
    <!-- Generator: Sketch 43.2 (39069) - http://www.bohemiancoding.com/sketch -->
    <title>logo_bb_seguros</title>
    <desc>Created with Sketch.</desc>
    <defs>
        <polygon id="path-1" points="0 52.0390244 195.87038 52.0390244 195.87038 0.0521756098 0 0.0521756098"></polygon>
    </defs>
    <g id="Page-1" stroke="none" stroke-width="1" fill="none" fill-rule="evenodd">
        <g id="logo_bb_seguros">
            <g>
                <polygon id="bg" fill="#FFED00" points="0 52.1234341 195.87038 52.1234341 195.87038 0.136585366 0 0.136585366"></polygon>
                <path d="M8.14753561,12.8125678 L13.3915941,16.3086068 L19.6847649,12.1136605 L17.062599,10.3657776 L20.4712234,8.09368 L27.81296,12.9875337 L15.7516527,21.0277678 L18.3738185,22.7753776 L33.3191259,12.8125678 L20.7333307,4.42322146 L8.14753561,12.8125678 Z M33.3191259,21.2024605 L28.0750673,17.7068312 L21.7823063,21.9015044 L24.4043356,23.6495239 L20.9958478,25.9216215 L13.653838,21.0277678 L25.7155551,12.9875337 L23.0932527,11.2397873 L8.14753561,21.2024605 L20.7333307,29.59208 L33.3191259,21.2024605 Z M33.3191259,7.91871415 L30.6972332,9.66659707 L28.0750673,7.91871415 L33.3191259,4.42322146 L33.3191259,7.91871415 Z M8.14753561,26.0964507 L10.7694283,24.3485678 L13.3915941,26.0964507 L8.14753561,29.59208 L8.14753561,26.0964507 Z" id="simbolo" fill="#0058A2"></path>
                <g id="tipos_outline" transform="translate(0.000000, 0.084410)">
                    <path d="M45.2159161,25.3072878 L38.3525015,25.3072878 L38.3525015,8.53405854 L45.2415941,8.53405854 C48.1975746,8.53405854 50.639721,9.3007122 50.639721,12.8781561 C50.639721,14.8067415 49.5855551,16.200322 47.4780429,16.6186829 C50.2279161,16.9671122 50.9478576,18.570078 50.9478576,20.8697659 C50.9478576,25.1213951 46.8606771,25.3072878 45.2159161,25.3072878 Z M168.768443,25.305922 L160.451077,25.3046927 L159.609301,22.2625268 L155.906472,22.2625268 L155.043389,25.3046927 L149.317184,25.3046927 L146.05894,17.8117561 L147.055058,17.7971415 C147.976326,17.8560098 148.549028,16.9169854 148.549028,15.7728098 C148.549028,14.4232098 147.672014,13.6864683 146.661828,13.6864683 L145.474901,13.6864683 L145.474901,25.3046927 L141.894589,25.3046927 L141.894589,11.5759512 L148.441536,11.5759512 C150.608872,11.5759512 152.003682,12.830761 151.997399,15.1696488 C151.991799,17.2398732 151.284423,18.3679317 149.503623,18.7001073 L151.931428,24.0707805 L155.801028,11.5759512 L159.987916,11.5759512 L163.484775,23.2247707 L168.201204,23.2249073 C169.220404,23.2249073 169.720033,22.5974341 169.720033,21.665922 C169.720033,19.3669171 163.126784,19.4628 163.126784,15.3748 C163.126784,13.226039 164.036443,11.5666634 167.714004,11.5666634 L172.187994,11.5666634 L172.187994,13.6797756 L169.003916,13.679639 C168.024736,13.679639 167.444658,14.1927902 167.444658,15.143561 C167.444658,17.7486537 173.394999,17.3390341 173.394999,21.4442439 C173.394999,24.9999707 171.066765,25.305922 168.768443,25.305922 Z M159.062277,20.1603415 L157.673614,14.5431317 L156.411292,20.1603415 L159.062277,20.1603415 Z M119.185633,25.7096683 C113.839136,25.7096683 113.839136,22.1559902 113.839136,18.5060195 C113.839136,14.8173951 113.839136,11.3025073 119.185633,11.3025073 C124.53254,11.3025073 124.53254,14.8173951 124.53254,18.5060195 C124.53254,22.1559902 124.53254,25.7096683 119.185633,25.7096683 Z M119.186043,23.6238732 C120.750765,23.6238732 120.953321,22.0788195 120.953321,18.5060195 C120.953321,14.9333561 120.750765,13.3881659 119.186043,13.3881659 C117.620911,13.3881659 117.418765,14.9333561 117.418765,18.5060195 C117.418765,22.0788195 117.620911,23.6238732 119.186043,23.6238732 Z M102.212443,25.305922 L102.212443,11.5341561 L107.556755,11.5341561 C111.755936,11.5341561 112.541165,14.0518341 112.541165,18.3437561 C112.541165,20.4609659 112.901614,25.305922 107.429867,25.305922 L102.212443,25.305922 Z M105.692092,13.6751317 L105.692092,23.2123415 L107.019019,23.2123415 C108.692189,23.2123415 109.019175,21.8963415 109.019175,18.4436 C109.019175,15.9066634 109.019175,13.6751317 107.110121,13.6751317 L105.692092,13.6751317 Z M133.439682,17.9913659 L132.375545,18.0175902 L132.375545,22.7540976 L134.222316,22.7540976 C134.925594,22.7540976 136.508482,22.7306049 136.508482,20.3843415 C136.508482,18.8974732 135.980989,17.9913659 134.31014,17.9913659 L133.439682,17.9913659 Z M132.375545,15.4261561 L133.438726,15.4127707 L134.596014,15.4127707 C135.321419,15.4127707 136.33256,14.9016683 136.33256,13.2754829 C136.33256,12.0443024 135.541321,11.1380585 134.420092,11.1380585 L132.375545,11.1380585 L132.375545,15.4261561 Z M135.007409,25.3089268 L128.143994,25.3089268 L128.143994,8.53569756 L135.033087,8.53569756 C137.989204,8.53569756 140.431214,9.30262439 140.431214,12.8800683 C140.431214,14.8081073 139.377184,16.201961 137.269399,16.620322 C140.019819,16.9688878 140.73976,18.5717171 140.73976,20.871678 C140.73976,25.1230341 136.652443,25.3089268 135.007409,25.3089268 Z M187.802843,25.305922 L187.802843,23.2298244 L183.726589,23.2298244 L183.726589,11.5773171 L180.233828,11.5773171 L180.233828,25.305922 L187.802843,25.305922 Z M174.691604,25.3060585 L178.184228,25.3060585 L178.184228,11.5773171 L174.691604,11.5773171 L174.691604,25.3060585 Z M93.0726966,25.7096683 C87.7289307,25.7096683 87.7289307,22.1411024 87.7289307,18.4751512 C87.7289307,14.7705463 87.7289307,11.2407707 93.0726966,11.2407707 C98.4161893,11.2407707 98.4161893,14.7705463 98.4161893,18.4751512 C98.4161893,22.1411024 98.4161893,25.7096683 93.0726966,25.7096683 Z M93.0722868,23.6149951 C94.6364624,23.6149951 94.8390185,22.0633854 94.8390185,18.4751512 C94.8390185,14.8869171 94.6364624,13.3354439 93.0722868,13.3354439 C91.5086576,13.3354439 91.3061015,14.8869171 91.3061015,18.4751512 C91.3061015,22.0633854 91.5086576,23.6149951 93.0722868,23.6149951 Z M58.5100429,20.153239 L57.1211063,14.5358927 L55.8586478,20.153239 L58.5100429,20.153239 Z M54.4910185,25.305922 L51.0407356,25.305922 L55.2486576,11.5773171 L59.4354088,11.5773171 L63.5594673,25.305922 L59.8985698,25.305922 L59.0566576,22.2636195 L55.3538283,22.2636195 L54.4910185,25.305922 Z M81.9002868,25.7096683 C84.9323454,25.7096683 86.7046771,24.5071707 86.7046771,20.7640488 L83.2549405,20.7640488 C83.2119161,21.8692976 83.1933405,23.6149951 81.9002868,23.6149951 C80.4326771,23.6149951 80.2186478,22.729239 80.2186478,18.4751512 C80.2186478,14.0761463 80.554921,13.3354439 81.83336,13.3354439 C82.7542185,13.3354439 83.1676624,14.0335317 83.1676624,15.8957366 L86.5962283,15.8957366 C86.7251649,12.8892195 85.0547259,11.2407707 81.7499063,11.2407707 C76.8260039,11.2407707 76.6828624,14.3689854 76.6828624,18.4751512 C76.6828624,22.6035805 76.5566576,25.7096683 81.9002868,25.7096683 Z M67.3320917,25.305922 L67.3320917,16.1497854 L71.1534771,25.305922 L75.2712527,25.305922 L75.2712527,11.5773171 L72.3053015,11.5773171 L72.3053015,20.4538634 L68.5886771,11.5773171 L64.3699649,11.5773171 L64.3699649,25.305922 L67.3320917,25.305922 Z M43.4211844,17.9660976 L42.5783161,17.9920488 L42.5783161,22.7285561 L43.8517015,22.7285561 C44.7151941,22.7285561 46.6588039,22.7050634 46.6588039,20.3588 C46.6588039,18.8720683 46.0111161,17.9660976 43.9596039,17.9660976 L43.4211844,17.9660976 Z M42.5783161,15.4008878 L42.8895941,15.3873659 L44.3104917,15.3873659 C45.201438,15.3873659 46.4431356,14.8762634 46.4431356,13.2502146 C46.4431356,12.0188976 45.470921,11.1126537 44.0946868,11.1126537 L42.5783161,11.1126537 L42.5783161,15.4008878 Z" id="Fill-3" fill="#0058A2"></path>
                    <mask id="mask-2" fill="white">
                        <use xlink:href="#path-1"></use>
                    </mask>
                    <g id="Clip-6"></g>
                    <polygon id="Fill-5" fill="#0058A2" mask="url(#mask-2)" points="0.000136585366 35.0822244 195.870244 35.0822244 195.870244 34.033522 0.000136585366 34.033522"></polygon>
                    <path d="M38.7563844,44.8565327 L40.407838,44.6942693 C40.5057698,45.2498985 40.7072332,45.6567863 41.0125015,45.9172546 C41.3158576,46.175401 41.7247941,46.3065229 42.24136,46.3065229 C42.7872917,46.3065229 43.2001893,46.1911083 43.4760917,45.9582302 C43.7539063,45.7272644 43.8928137,45.4572351 43.8928137,45.1481424 C43.8928137,44.9485912 43.8342185,44.7801815 43.7167551,44.6414107 C43.6013405,44.5004546 43.3978283,44.3791668 43.1062185,44.2774107 C42.9085795,44.2069327 42.4547063,44.0855083 41.7482868,43.9094498 C40.8383551,43.6844937 40.2005015,43.406679 39.8345893,43.077918 C39.3180234,42.6161229 39.0597405,42.0525717 39.0597405,41.387401 C39.0597405,40.9587961 39.1810283,40.5595571 39.4236039,40.1858595 C39.6663161,39.8140741 40.0166576,39.5303863 40.4724429,39.3346595 C40.9304137,39.1408449 41.4801698,39.0430498 42.1259454,39.0430498 C43.1825698,39.0430498 43.975038,39.2740156 44.5092234,39.7358107 C45.0414966,40.199518 45.3212234,40.8159278 45.3486771,41.5887278 L43.6521502,41.6631668 C43.57976,41.2307376 43.4232332,40.9195961 43.184482,40.7317912 C42.9457307,40.5419376 42.5877405,40.4481034 42.110238,40.4481034 C41.6171649,40.4481034 41.2296722,40.5478107 40.9518576,40.7513229 C40.771838,40.8805327 40.6818283,41.054679 40.6818283,41.2718498 C40.6818283,41.471401 40.7659649,41.6417229 40.934238,41.7825424 C41.1475844,41.962562 41.6679746,42.1505034 42.4937698,42.3440449 C43.3195649,42.5397717 43.9299649,42.7413717 44.3252429,42.9487083 C44.720521,43.1580937 45.0297502,43.441918 45.2547063,43.8038693 C45.4777502,44.1658205 45.5893405,44.6120449 45.5893405,45.1422693 C45.5893405,45.6235961 45.4563063,46.0756937 45.1881893,46.4943278 C44.9200722,46.9150107 44.5424137,47.2280644 44.0533015,47.4317132 C43.5641893,47.6371376 42.9535161,47.7388937 42.2237405,47.7388937 C41.1612429,47.7388937 40.345282,47.4942693 39.7758576,47.0031083 C39.2064332,46.5119473 38.8659259,45.7958302 38.7563844,44.8565327" id="Fill-7" fill="#0058A2" mask="url(#mask-2)"></path>
                    <path d="M50.6221151,44.0250146 C50.6103688,43.5573463 50.4909932,43.2030439 50.2620761,42.9604683 C50.033159,42.7178927 49.7532956,42.5966049 49.4245346,42.5966049 C49.072281,42.5966049 48.78272,42.725678 48.5538029,42.9819122 C48.3248859,43.2365073 48.2113834,43.5846634 48.2153444,44.0250146 L50.6221151,44.0250146 Z M50.5301932,45.6529756 L52.1365737,45.9210927 C51.9292371,46.5099122 51.6043005,46.9581854 51.1582127,47.2653659 C50.7140371,47.5744585 50.156359,47.7270244 49.4872273,47.7270244 C48.4285541,47.7270244 47.64592,47.3826927 47.1371395,46.6900683 C46.7359883,46.1362146 46.5345249,45.4358049 46.5345249,44.5923902 C46.5345249,43.5827512 46.7985444,42.7921951 47.3269932,42.2208585 C47.8533932,41.6493854 48.5206127,41.3637854 49.3267395,41.3637854 C50.2327102,41.3637854 50.9469151,41.6631805 51.4714029,42.2619707 C51.9937054,42.860761 52.2442029,43.7765659 52.222759,45.011161 L48.1859785,45.011161 C48.1977249,45.4886634 48.326798,45.8604488 48.5753834,46.1246049 C48.8238322,46.3906732 49.1349737,46.5237073 49.5047102,46.5237073 C49.7572566,46.5237073 49.9685541,46.455278 50.1407883,46.3182829 C50.3128859,46.179239 50.4440078,45.9582439 50.5301932,45.6529756 L50.5301932,45.6529756 Z" id="Fill-8" fill="#0058A2" mask="url(#mask-2)"></path>
                    <path d="M54.8251746,44.4202244 C54.8251746,45.066 54.9504234,45.5394049 55.2007844,45.8389366 C55.451282,46.1381951 55.7584624,46.2889854 56.1264234,46.2889854 C56.5196527,46.2889854 56.8523746,46.1343707 57.1243161,45.8271902 C57.3943454,45.5198732 57.5313405,45.0640878 57.5313405,44.4592878 C57.5313405,43.8293561 57.4002185,43.3616878 57.1400234,43.0564195 C56.8817405,42.749239 56.5529795,42.5965366 56.1557893,42.5965366 C55.7682966,42.5965366 55.451282,42.7471902 55.2007844,43.0465854 C54.9504234,43.3478927 54.8251746,43.8038146 54.8251746,44.4202244 M53.3869307,47.9913854 L55.2263259,48.2142927 C55.2576039,48.4295512 55.328082,48.5763805 55.4376234,48.6566927 C55.5903259,48.7719707 55.8329015,48.8287902 56.1597502,48.8287902 C56.5804332,48.8287902 56.895399,48.7660976 57.1066966,48.6389366 C57.2476527,48.5548 57.355282,48.4198537 57.4276722,48.2319122 C57.4765698,48.098878 57.5019746,47.8523415 57.5019746,47.4923024 L57.5019746,46.6039512 C57.0206478,47.2614732 56.41216,47.5900976 55.6782868,47.5900976 C54.8604137,47.5900976 54.2127259,47.2438537 53.73536,46.5530049 C53.3615259,46.005161 53.173721,45.3261951 53.173721,44.5121463 C53.173721,43.490761 53.4202576,42.7119512 53.9114185,42.1718927 C54.4025795,41.6338829 55.0129795,41.3637171 55.7428917,41.3637171 C56.4942478,41.3637171 57.1165307,41.6945268 57.6056429,42.3558732 L57.6056429,41.502761 L59.1124527,41.502761 L59.1124527,46.966039 C59.1124527,47.6840683 59.053721,48.2201659 58.9343454,48.5763805 C58.8170185,48.9324585 58.6506576,49.2102732 58.4373112,49.413922 C58.2220527,49.6153854 57.9364527,49.7738244 57.580238,49.8893756 C57.2222478,50.0027415 56.7701502,50.0614732 56.2242185,50.0614732 C55.1910868,50.0614732 54.4592624,49.8835024 54.0287454,49.5312488 C53.5963161,49.1770829 53.3810576,48.7289463 53.3810576,48.1869756 C53.3810576,48.1322049 53.3829698,48.0676 53.3869307,47.9913854" id="Fill-9" fill="#0058A2" mask="url(#mask-2)"></path>
                    <path d="M64.7145424,47.5901112 L64.7145424,46.6782673 C64.4914985,47.0030673 64.1998888,47.259438 63.8398498,47.4473795 C63.4778985,47.6331356 63.096279,47.7271063 62.6951278,47.7271063 C62.2861912,47.7271063 61.920279,47.6372332 61.595479,47.4591259 C61.270679,47.2791063 61.0358888,47.0266966 60.8891961,46.70176 C60.744279,46.37696 60.6718888,45.9269112 60.6718888,45.3535259 L60.6718888,41.5027746 L62.2823668,41.5027746 L62.2823668,44.2989502 C62.2823668,45.1560234 62.3117327,45.6803746 62.3723766,45.8741893 C62.4309717,46.0659551 62.538601,46.218521 62.6951278,46.3320234 C62.8517912,46.4453893 63.0513424,46.5002966 63.2920059,46.5002966 C63.5679083,46.5002966 63.8144449,46.4259941 64.0316156,46.2752039 C64.2487863,46.122638 64.3975278,45.9367454 64.47784,45.7137015 C64.5580156,45.4886088 64.5991278,44.9407649 64.5991278,44.0700332 L64.5991278,41.5027746 L66.2094693,41.5027746 L66.2094693,47.5901112 L64.7145424,47.5901112 Z" id="Fill-10" fill="#0058A2" mask="url(#mask-2)"></path>
                    <path d="M69.4205366,47.5901112 L67.8100585,47.5901112 L67.8100585,41.5027746 L69.305122,41.5027746 L69.305122,42.3676332 C69.5613561,41.9586966 69.792322,41.6886673 69.9956976,41.5594576 C70.2012585,41.4302478 70.4320878,41.3637307 70.6924195,41.3637307 C71.0602439,41.3637307 71.4124976,41.4654868 71.7530049,41.668999 L71.253922,43.0720039 C70.9838927,42.8978576 70.7314829,42.8098966 70.4987415,42.8098966 C70.2716,42.8098966 70.0818829,42.8704039 69.9253561,42.9956527 C69.7667805,43.1189893 69.6454927,43.3439454 69.5554829,43.668882 C69.4654732,43.993682 69.4205366,44.67456 69.4205366,45.7097405 L69.4205366,47.5901112 Z" id="Fill-11" fill="#0058A2" mask="url(#mask-2)"></path>
                    <path d="M73.7253795,44.5454732 C73.7253795,45.1501366 73.8681112,45.6119317 74.1558966,45.9327707 C74.4414966,46.2537463 74.7956624,46.4142341 75.216482,46.4142341 C75.6371649,46.4142341 75.989282,46.2537463 76.2729698,45.9327707 C76.5587063,45.6119317 76.7015746,45.1461756 76.7015746,44.5337268 C76.7015746,43.9388976 76.5587063,43.4790146 76.2729698,43.1581756 C75.989282,42.8372 75.6371649,42.6767122 75.216482,42.6767122 C74.7956624,42.6767122 74.4414966,42.8372 74.1558966,43.1581756 C73.8681112,43.4790146 73.7253795,43.942722 73.7253795,44.5454732 M72.0737893,44.4592878 C72.0737893,43.925239 72.20696,43.4066244 72.4690673,42.9056293 C72.7332234,42.4068195 73.1070576,42.0231512 73.5902966,41.7609073 C74.0736722,41.4968878 74.6137307,41.3637171 75.2104722,41.3637171 C76.130238,41.3637171 76.8855551,41.6631122 77.4745112,42.2619024 C78.0634673,42.8606927 78.3569893,43.6160098 78.3569893,44.5297659 C78.3569893,45.4495317 78.0595063,46.2126341 77.4665893,46.8190732 C76.87176,47.4257854 76.1242283,47.7270927 75.2222185,47.7270927 C74.6626283,47.7270927 74.1322673,47.6018439 73.6255356,47.3494341 C73.1188039,47.097161 72.7332234,46.7272878 72.4690673,46.2399512 C72.20696,45.7527512 72.0737893,45.1598341 72.0737893,44.4592878" id="Fill-12" fill="#0058A2" mask="url(#mask-2)"></path>
                    <path d="M79.0516078,45.8525132 L80.6678224,45.6059766 C80.7363883,45.9190302 80.8752956,46.1577815 81.0865932,46.320318 C81.2959785,46.4825815 81.5895005,46.5648059 81.9690712,46.5648059 C82.3859298,46.5648059 82.6989834,46.4884546 82.9083688,46.33384 C83.0512371,46.2282595 83.1215785,46.083479 83.1215785,45.9053717 C83.1215785,45.7820351 83.0825151,45.680279 83.0061639,45.6001034 C82.9259883,45.5238888 82.7459688,45.4534107 82.4680176,45.3888059 C81.1688176,45.1032059 80.3450712,44.840962 79.996642,44.6041229 C79.5153151,44.275362 79.2746517,43.8176644 79.2746517,43.2323961 C79.2746517,42.7061327 79.4821249,42.2619571 79.8988468,41.9038302 C80.3157054,41.5437912 80.9613444,41.3637717 81.8360371,41.3637717 C82.6696176,41.3637717 83.2898517,41.5007668 83.6949639,41.7707961 C84.0999395,42.0427376 84.3778907,42.4438888 84.5304566,42.976162 L83.0120371,43.2558888 C82.9474322,43.0191863 82.8242322,42.8372546 82.6423005,42.7120059 C82.4602322,42.5848449 82.2019493,42.5221522 81.8654029,42.5221522 C81.440759,42.5221522 81.1374029,42.5808839 80.953559,42.7002595 C80.8322712,42.7843961 80.7714907,42.8939376 80.7714907,43.0269717 C80.7714907,43.1425229 80.8243493,43.2382693 80.9321151,43.3185815 C81.076759,43.4262107 81.5777541,43.5768644 82.4367395,43.7724546 C83.2938127,43.9662693 83.8926029,44.2048839 84.2331102,44.4887083 C84.56952,44.7763571 84.7379298,45.1755961 84.7379298,45.6861522 C84.7379298,46.2439668 84.5050517,46.7252937 84.0373834,47.1264449 C83.5716273,47.5275961 82.8828273,47.7271473 81.9690712,47.7271473 C81.1394517,47.7271473 80.4839785,47.5588741 79.9986907,47.2223278 C79.5153151,46.8876937 79.2003493,46.4298595 79.0516078,45.8525132" id="Fill-13" fill="#0058A2" mask="url(#mask-2)"></path>
                </g>
            </g>
        </g>
    </g>
</svg>