<?xml version="1.0" encoding="UTF-8"?>
<svg width="280px" height="105px" viewBox="0 0 280 105" version="1.1" xmlns="http://www.w3.org/2000/svg" xmlns:xlink="http://www.w3.org/1999/xlink">
    <!-- Generator: Sketch 47.1 (45422) - http://www.bohemiancoding.com/sketch -->
    <title>logo_mapfre_h</title>
    <desc>Created with Sketch.</desc>
    <defs></defs>
    <g id="Page-1" stroke="none" stroke-width="1" fill="none" fill-rule="evenodd">
        <g id="logo_mapfre_h" fill="#FEFEFE">
            <g id="MAPFRE" transform="translate(40.000000, 40.000000)">
                <g id="logo">
                    <path d="M14.4425909,7.91966089 C14.7078168,8.02985502 14.8924348,8.29275913 14.8924348,8.59731142 C14.8924348,8.75783043 14.8412965,8.90620205 14.7546214,9.02680823 L12.3069156,13.2497597 C12.246243,13.3694982 12.1214308,13.4519269 11.9775501,13.4519269 C11.8319359,13.4519269 11.7053902,13.3651599 11.6464511,13.2402153 L9.19961204,9.02073453 C9.11640391,8.9018637 9.06613233,8.75609509 9.06613233,8.59991443 C9.06699908,8.30664186 9.2394826,8.05154678 9.48824023,7.93527896 C9.50470851,7.92486691 9.52637729,7.91271953 9.55237983,7.90230749 C10.3099205,7.62899133 11.1264003,7.47975204 11.9775501,7.47975204 C12.8339004,7.47975204 13.6564474,7.62899133 14.4148548,7.90838118 C14.4252559,7.91185186 14.4339234,7.91619021 14.4425909,7.91966089 M7.24162076,9.30272739 C7.42710555,9.16390014 7.6862642,9.13787003 7.90208528,9.26368223 C8.01389621,9.3287575 8.09797109,9.42420124 8.14564241,9.53439537 L10.1209687,12.9773112 C10.1825081,13.0692843 10.1885753,13.1907581 10.130503,13.2905402 C10.0706971,13.3929253 9.95975296,13.4484562 9.84794204,13.4389118 L5.88428817,13.4484562 C5.76727674,13.4571329 5.64419805,13.4345735 5.53412063,13.3721012 C5.32870056,13.251495 5.21948989,13.0267684 5.23769167,12.8046448 C5.23595816,12.7872914 5.23682492,12.7690703 5.24202542,12.7473786 C5.35730335,12.0983612 5.5843922,11.4623588 5.93022599,10.8636663 C6.27779327,10.2580324 6.71810295,9.74263625 7.22255223,9.31834546 C7.22861949,9.31313943 7.23642026,9.30793341 7.24162076,9.30272739 M16.7134794,9.30272739 C16.5288614,9.16390014 16.2705695,9.13787003 16.0556151,9.26368223 C15.9429375,9.3287575 15.8579958,9.42420124 15.8077242,9.53439537 L13.8341314,12.9773112 C13.7743256,13.0692843 13.7647913,13.1907581 13.8254639,13.2905402 C13.884403,13.3929253 13.9970807,13.4484562 14.1080249,13.4389118 L18.0716787,13.4484562 C18.1895569,13.4571329 18.3117689,13.4345735 18.4209795,13.3721012 C18.6281331,13.251495 18.736477,13.0267684 18.7174085,12.8046448 C18.7182752,12.7872914 18.7182752,12.7690703 18.7139415,12.7473786 C18.5986636,12.0983612 18.3724415,11.4623588 18.0257409,10.8636663 C17.6790404,10.2580324 17.237864,9.74263625 16.7342814,9.31834546 C16.7264807,9.31313943 16.7204134,9.30793341 16.7134794,9.30272739 M12.5652075,14.6276202 L12.5652075,18.302204 L11.3907594,18.302204 L11.3907594,14.6276202 C10.8291046,14.6276202 10.0966997,14.6258848 9.81847249,14.6154728 L5.92069172,14.6258848 C5.59305972,14.6423706 5.25155969,14.5677509 4.94732997,14.3890108 C4.3553388,14.0480164 4.03637431,13.4154847 4.06237685,12.7794824 C4.06411035,12.6849063 4.07191112,12.604213 4.08491239,12.53827 C4.2235926,11.7608374 4.49661927,10.9955522 4.91179316,10.2736505 C5.32956731,9.5508811 5.85915238,8.92789381 6.46847857,8.41683599 C6.8741182,8.11748973 7.44444058,7.96564742 7.96969189,8.05762047 C8.11790637,7.55610703 8.46634041,7.14049294 8.91791785,6.90535428 C9.00719324,6.8550294 9.08693436,6.82032259 9.15194071,6.79776316 C10.0368938,6.47759281 10.9885868,6.30319108 11.9775501,6.30319108 C12.9725806,6.30319108 13.9294741,6.47846048 14.8170275,6.80210151 C15.3266773,7.02422512 15.7825885,7.48842874 15.972407,8.04287008 C16.4733893,7.9283376 16.9925733,8.04026707 17.4025467,8.3491577 C18.0084059,8.86108319 18.6263996,9.5508811 19.0441737,10.2736505 C19.4593476,10.9955522 19.7306408,11.7608374 19.8710545,12.53827 C19.883189,12.604213 19.8935901,12.6849063 19.8944568,12.7794824 C19.9178591,13.4154847 19.6014949,14.0480164 19.0086369,14.3890108 C18.7035405,14.5668833 18.3646407,14.6423706 18.0335417,14.6258848 L14.1366277,14.6154728 C13.860134,14.6258848 13.1277291,14.6276202 12.5652075,14.6276202 M11.9775501,1.45291396 C5.99263208,1.45291396 1.14055809,6.31186778 1.14055809,12.3022637 C1.14055809,18.2952626 5.99263208,23.1524811 11.9775501,23.1524811 C17.9642016,23.1524811 22.8171423,18.2961303 22.8171423,12.3022637 C22.8171423,6.31186778 17.9642016,1.45291396 11.9775501,1.45291396 M11.9775501,0.311927482 C18.5934631,0.311927482 23.9569203,5.68107145 23.9569203,12.3022637 C23.9569203,18.9251913 18.5934631,24.2943353 11.9775501,24.2943353 C5.36337061,24.2943353 -8.66751351e-05,18.9251913 -8.66751351e-05,12.3022637 C-8.66751351e-05,5.68107145 5.36337061,0.311927482 11.9775501,0.311927482" id="Fill-3"></path>
                </g>
                <path d="M66.6473411,24 L73.4037191,0 L88.7501637,0 L95.5074062,24 L86.8213756,24 L85.7139002,20.0605571 L76.4425762,20.0605571 L75.3351008,24 L66.6473411,24 Z M81.0773737,3.59197472 L77.5509162,16.1193503 L84.6029667,16.1193503 L81.0773737,3.59197472 Z M43.6877597,0 L49.4300325,11.9982362 L55.1766281,0 L63.858336,0 L63.858336,24 L55.1766281,24 L55.1766281,11.9982362 L49.4300325,23.9938267 L43.6877597,11.9982362 L43.6877597,23.9938267 L35,23.9938267 L35,0 L43.6877597,0 Z M114.531603,0.0123465863 C118.321745,0.0123465863 121.389132,3.13956052 121.389132,7.00580584 C121.389132,10.8702874 118.32088,14.000147 114.530738,14.000147 L106.959964,14.000147 L106.959964,24 L98.2756624,24 L98.2756624,0.0123465863 L114.531603,0.0123465863 Z M108.990768,2.76034394 C110.949815,2.76034394 112.850073,3.83185125 112.850073,6.00220475 C112.850073,8.17608584 111.172001,9.93547439 108.990768,9.93547439 L107.1078,9.93547439 L107.1078,2.76034394 L108.990768,2.76034394 Z M124.402053,0 L147.493044,0 L147.493044,3.93856103 L133.088083,3.93856103 L133.088083,10.0413023 L147.493044,10.0413023 L147.493044,13.9754538 L133.088083,13.9754538 L133.088083,24 L124.402053,24 L124.402053,0 Z M173.642777,17.9969134 L173.642777,23.9938267 L167.764772,23.9938267 L165.097667,23.9938267 L165.097667,18.1900492 C165.102854,18.1274344 165.104583,18.0630558 165.104583,17.9969134 C165.104583,15.8221504 163.375504,14.0618799 161.245278,14.0618799 L159.364039,14.060998 L159.364039,23.9938267 L150.533631,24 L150.533631,12.0008819 L150.533631,0.00705519218 L160.1793,0.00705519218 L167.764772,0.00705519218 C171.008525,0.00705519218 173.642777,2.69331961 173.642777,6.00573234 C173.642777,9.31638127 171.008525,12.0008819 167.764772,12.0008819 C170.948872,12.0008819 173.542491,14.5822003 173.642777,17.8028956 C173.644507,17.8655104 173.642777,17.9342985 173.642777,17.9969134 L173.642777,17.8028956 L173.642777,17.9969134 Z M173.642777,17.8028956 L173.642777,17.9969134 C173.642777,17.9342985 173.643642,17.8655104 173.642777,17.8028956 L173.642777,17.8028956 Z M161.246142,2.76298964 C163.151588,2.76298964 165.104583,3.83361505 165.104583,6.00573234 C165.104583,8.17873154 163.378097,9.93988388 161.245278,9.93988388 L159.364039,9.93988388 L159.364039,2.76298964 L161.246142,2.76298964 Z M185.591581,20.0605571 L200,20.0605571 L200,23.9938267 L176.90555,23.9938267 L176.90555,0 L200,0 L200,3.93679724 L185.591581,3.93679724 L185.591581,10.0413023 L200,10.0413023 L200,13.9754538 L185.591581,13.9754538 L185.591581,20.0605571 Z" id="logotipo"></path>
            </g>
        </g>
    </g>
</svg>