<?xml version="1.0" encoding="UTF-8"?>
<svg width="215px" height="40px" viewBox="0 0 215 40" version="1.1" xmlns="http://www.w3.org/2000/svg" xmlns:xlink="http://www.w3.org/1999/xlink">
    <!-- Generator: Sketch 43.2 (39069) - http://www.bohemiancoding.com/sketch -->
    <title>logo_gruposegurador</title>
    <desc>Created with Sketch.</desc>
    <defs>
        <polygon id="path-1" points="53.1105196 18.9855545 76.3516653 18.9855545 76.3516653 0.437300605 0 0.437300605 0 18.9855545 53.1105196 18.9855545 53.1105196 12.373582 13.08246 12.373582 13.08246 18.9856178 53.1105196 18.9856178"></polygon>
        <polygon id="path-3" points="6.39691558e-05 0.437300605 9.09711762 0.437300605 9.09711762 9.43816212 6.39691558e-05 9.43816212 6.39691558e-05 0.437300605"></polygon>
        <polygon id="path-5" points="0 26.8002141 101.591861 26.8002141 101.591861 0.0268705559 0 0.0268705559"></polygon>
        <polygon id="path-7" points="0 26.8002141 101.591861 26.8002141 101.591861 0.0268705559 0 0.0268705559"></polygon>
        <polygon id="path-9" points="0 26.8002141 101.591861 26.8002141 101.591861 0.0268705559 0 0.0268705559"></polygon>
        <polygon id="path-11" points="0 26.8002141 101.591861 26.8002141 101.591861 0.0268705559 0 0.0268705559"></polygon>
        <polygon id="path-13" points="0 26.8002141 101.591861 26.8002141 101.591861 0.0268705559 0 0.0268705559"></polygon>
        <polygon id="path-15" points="0 26.8002141 101.591861 26.8002141 101.591861 0.0268705559 0 0.0268705559"></polygon>
        <polygon id="path-17" points="0 26.8002141 101.591861 26.8002141 101.591861 0.0268705559 0 0.0268705559"></polygon>
        <polygon id="path-19" points="0 26.8002141 101.591861 26.8002141 101.591861 0.0268705559 0 0.0268705559"></polygon>
    </defs>
    <g id="Symbols" stroke="none" stroke-width="1" fill="none" fill-rule="evenodd">
        <g id="header_gruposegurador" transform="translate(-17.000000, -16.000000)">
            <g id="logo_gruposegurador" transform="translate(17.000000, 16.000000)">
                <g id="logo_mapfre_seguros" transform="translate(112.735795, 11.515152)">
                    <g id="logo">
                        <rect id="bg" fill="#D62219" x="0" y="0.00484894261" width="101.659091" height="27.7000008"></rect>
                        <g id="tipo" transform="translate(10.373377, 5.358416)">
                            <path d="M53.1105196,17.0111201 C53.1105196,16.4333264 52.9473982,15.9675474 52.5942885,15.6435273 C52.3141036,15.3891209 51.937965,15.2017967 51.3507281,15.1328159 L50.5779807,15.0176369 C50.2965164,14.9942214 50.0854182,14.880308 49.967715,14.7632304 C49.8282622,14.6474186 49.7578961,14.4600944 49.7578961,14.2980844 C49.7578961,13.8576195 50.1084471,13.4848698 50.7890789,13.4848698 C51.209996,13.4848698 51.7025585,13.5342322 52.1247549,13.9272332 L52.9473982,13.138067 C52.38383,12.5817902 51.7268667,12.373582 50.8121078,12.373582 C49.4054261,12.373582 48.5380043,13.1842652 48.5380043,14.3442825 C48.5380043,14.9024578 48.6787365,15.3182415 49.0081776,15.6213775 C49.2883625,15.9004652 49.7099193,16.084625 50.2728478,16.1542387 L51.0705432,16.2713163 C51.373757,16.3149831 51.5144891,16.3852296 51.6565007,16.5029401 C51.7965931,16.6421675 51.84457,16.8269602 51.84457,17.058584 C51.84457,17.5692954 51.4447628,17.848383 50.6937649,17.848383 C50.0854182,17.848383 49.523769,17.7085228 49.0990138,17.314889 L48.2795689,18.126205 C48.9122239,18.775511 49.6632218,18.9856178 50.6720154,18.9856178 C52.0543888,18.9856178 53.1105196,18.2660652 53.1105196,17.0111201 L53.1105196,17.0111201 Z M45.1130957,18.9856178 C45.8634539,18.9856178 46.4263825,18.7305785 46.8959161,18.2660652 C47.5509602,17.6167593 47.5509602,16.8041775 47.5509602,15.6909912 C47.5509602,14.555655 47.5509602,13.7424405 46.8959161,13.0912359 C46.4263825,12.6286213 45.8647333,12.373582 45.1130957,12.373582 C44.3633772,12.373582 43.7991693,12.6286213 43.330915,13.0912359 C42.6752312,13.7424405 42.6982601,14.555655 42.6982601,15.6909912 C42.6982601,16.8041775 42.6752312,17.6167593 43.330915,18.2660652 C43.7991693,18.7305785 44.3633772,18.9856178 45.1130957,18.9856178 L45.1130957,18.9856178 Z M45.1130957,17.848383 L45.1130957,17.848383 C44.7612654,17.848383 44.4829995,17.7085228 44.2936508,17.4990488 C44.0345757,17.2459081 43.9872386,16.9440378 43.9872386,15.6909912 C43.9872386,14.4373118 44.0345757,14.1367071 44.2936508,13.8576195 C44.4829995,13.6481455 44.7612654,13.5089181 45.1130957,13.5089181 C45.4655658,13.5089181 45.7700589,13.6481455 45.93382,13.8576195 C46.1916157,14.1367071 46.2619818,14.4373118 46.2619818,15.6909912 C46.2619818,16.9440378 46.1916157,17.2459081 45.93382,17.4990488 C45.7700589,17.7085228 45.4649261,17.848383 45.1130957,17.848383 L45.1130957,17.848383 Z M40.3768194,18.9381539 L41.8538672,18.9381539 L40.3768194,16.1320889 C41.033143,15.9004652 41.5960715,15.3429227 41.5960715,14.4151619 C41.5960715,13.3247583 40.7977365,12.4185145 39.4620605,12.4185145 L36.8847432,12.4185145 L36.8847432,18.9381539 L38.1711629,18.9381539 L38.1711629,16.3390315 L39.0884806,16.3390315 L40.3768194,18.9381539 Z M39.226654,15.2720433 L39.226654,15.2720433 L38.1711629,15.2720433 L38.1711629,13.5557492 L39.3699449,13.5557492 C39.9303147,13.5557492 40.307093,13.9272332 40.307093,14.4151619 C40.307093,14.9239748 39.9303147,15.2720433 39.3699449,15.2720433 L39.226654,15.2720433 Z M35.4524738,16.712414 L35.4524738,12.4185145 L34.1628556,12.4185145 L34.1628556,16.6643173 C34.1628556,17.4079182 33.71827,17.848383 33.0376382,17.848383 C32.3339775,17.848383 31.8868331,17.4079182 31.8868331,16.6643173 L31.8868331,12.4185145 L30.5978546,12.4185145 L30.5978546,16.712414 C30.5978546,18.0787411 31.6757348,18.9856178 33.0376382,18.9856178 C34.3733141,18.9856178 35.4524738,18.0787411 35.4524738,16.712414 L35.4524738,16.712414 Z M29.4016313,16.2713163 L29.4016313,15.3182415 L26.9164296,15.3182415 L26.9164296,16.3630798 L28.1356818,16.3630798 L28.1356818,16.618752 C28.1356818,16.9674533 28.0422868,17.2459081 27.8318283,17.4990488 C27.6220094,17.7085228 27.3162369,17.848383 26.9164296,17.848383 C26.5677977,17.848383 26.283135,17.7313055 26.094426,17.5224644 C25.8609386,17.2459081 25.7899328,16.9440378 25.7899328,15.6909912 C25.7899328,14.4373118 25.8609386,14.1367071 26.094426,13.8576195 C26.283135,13.6481455 26.5677977,13.5089181 26.9164296,13.5089181 C27.5714738,13.5089181 27.9476124,13.8329383 28.1120132,14.4600944 L29.4016313,14.4600944 C29.2142017,13.3690579 28.4401749,12.373582 26.9164296,12.373582 C26.1910194,12.373582 25.6031429,12.6286213 25.1585572,13.0912359 C24.4792048,13.7424405 24.5003146,14.555655 24.5003146,15.6909912 C24.5003146,16.8041775 24.4792048,17.6167593 25.1585572,18.2660652 C25.6031429,18.7305785 26.2121292,18.9856178 26.9164296,18.9856178 C27.6220094,18.9856178 28.2540247,18.775511 28.7696161,18.241384 C29.2391497,17.7781365 29.4016313,17.1978114 29.4016313,16.2713163 L29.4016313,16.2713163 Z M23.4697715,18.9381539 L23.4697715,17.801552 L20.4203619,17.801552 L20.4203619,16.2238524 L23.0251859,16.2238524 L23.0251859,15.0885163 L20.4203619,15.0885163 L20.4203619,13.5557492 L23.4697715,13.5557492 L23.4697715,12.4185145 L19.1320231,12.4185145 L19.1320231,18.9381539 L23.4697715,18.9381539 Z M17.9364395,17.0111201 C17.9364395,16.4333264 17.7707594,15.9675474 17.4208481,15.6435273 C17.1387442,15.3891209 16.7626055,15.2017967 16.1779275,15.1328159 L15.3795924,15.0176369 C15.121157,14.9942214 14.9100588,14.880308 14.7686869,14.7632304 C14.6522631,14.6474186 14.581897,14.4600944 14.581897,14.2980844 C14.581897,13.8576195 14.9100588,13.4848698 15.6137195,13.4848698 C16.0359159,13.4848698 16.5278387,13.5342322 16.9513145,13.9272332 L17.7707594,13.138067 C17.2084706,12.5817902 16.5547058,12.373582 15.6361087,12.373582 C14.2070378,12.373582 13.3376969,13.1842652 13.3376969,14.3442825 C13.3376969,14.9024578 13.5027374,15.3182415 13.8308991,15.6213775 C14.1123634,15.9004652 14.5345598,16.084625 15.0974884,16.1542387 L15.8951838,16.2713163 C16.2009563,16.3149831 16.3416885,16.3852296 16.4811412,16.5029401 C16.5994842,16.6421675 16.6685709,16.8269602 16.6685709,17.058584 C16.6685709,17.5692954 16.270043,17.848383 15.5190451,17.848383 C14.9100588,17.848383 14.3452111,17.7085228 13.9255735,17.314889 L13.08246,18.126205 C13.7375042,18.775511 14.4872227,18.9856178 15.4953766,18.9856178 C16.8566402,18.9856178 17.9364395,18.2660652 17.9364395,17.0111201 L17.9364395,17.0111201 Z" id="Fill-3" fill="#FFFFFF"></path>
                            <mask id="mask-2" fill="white">
                                <use xlink:href="#path-1"></use>
                            </mask>
                            <g id="Clip-4"></g>
                            <path d="M70.8619603,7.91387524 L76.3511536,7.91387524 L76.3511536,9.36627016 L67.556674,9.36627016 L67.556674,0.50697759 L76.3511536,0.50697759 L76.3511536,1.96127106 L70.8619603,1.96127106 L70.8619603,4.21548923 L76.3511536,4.21548923 L76.3511536,5.66788415 L70.8619603,5.66788415 L70.8619603,7.91387524 Z M61.5953884,1.52713472 C62.3195193,1.52713472 63.0628408,1.9226671 63.0628408,2.72575606 C63.0628408,3.52694645 62.4052379,4.17878382 61.5953884,4.17878382 L60.8776545,4.17878382 L60.8776545,1.52713472 L61.5953884,1.52713472 Z M66.314393,7.0816751 L66.314393,7.0816751 L66.314393,7.15318736 L66.314393,7.0816751 Z M66.314393,7.15318736 L66.314393,7.15318736 L66.314393,7.0816751 L66.314393,7.15318736 L66.314393,7.0816751 C66.2766512,5.89254654 65.2876881,4.93883885 64.0754726,4.93883885 C65.3113567,4.93883885 66.314393,3.94716006 66.314393,2.72575606 C66.314393,1.50118779 65.3113567,0.509508997 64.0754726,0.509508997 L61.1872652,0.509508997 L57.5154356,0.509508997 L57.5154356,4.93883885 L57.5154356,9.37006727 L60.8776545,9.36627016 L60.8776545,5.69952674 L61.5953884,5.69952674 C62.4039585,5.69952674 63.0628408,6.34946555 63.0628408,7.15318736 C63.0628408,7.17723573 63.0615615,7.20001839 63.0602821,7.22343391 L63.0602821,9.36627016 L64.0754726,9.36627016 L66.314393,9.36627016 L66.314393,7.15318736 Z M47.5643938,0.50697759 L56.3575939,0.50697759 L56.3575939,1.96190391 L50.8728785,1.96190391 L50.8728785,4.21548923 L56.3575939,4.21548923 L56.3575939,5.66788415 L50.8728785,5.66788415 L50.8728785,9.37006727 L47.5643938,9.37006727 L47.5643938,0.50697759 Z M41.6952237,1.52586901 C42.4417438,1.52586901 43.1652349,1.9214014 43.1652349,2.7238575 C43.1652349,3.5263136 42.5274624,4.17625242 41.6952237,4.17625242 L40.9794089,4.17625242 L40.9794089,1.52586901 L41.6952237,1.52586901 Z M43.8068456,0.512040404 L43.8068456,0.512040404 L37.61719,0.512040404 L37.61719,9.37006727 L40.923116,9.37006727 L40.923116,5.67737692 L43.8068456,5.67737692 C45.2487103,5.67737692 46.4174268,4.52242236 46.4174268,3.09407581 C46.4174268,1.66636212 45.2487103,0.512040404 43.8068456,0.512040404 L43.8068456,0.512040404 Z M31.0680279,1.833435 L29.7240359,6.45894892 L32.4113801,6.45894892 L31.0680279,1.833435 Z M25.5730774,9.37006727 L25.5730774,9.37006727 L28.1465565,0.50697759 L33.9901389,0.50697759 L36.5642577,9.37006727 L33.255773,9.37006727 L32.8322972,7.91387524 L29.3043982,7.91387524 L28.8815621,9.37006727 L25.5730774,9.37006727 Z M16.8310525,0.50697759 L19.0187977,4.9369403 L21.2078222,0.50697759 L24.5118291,0.50697759 L24.5118291,9.37006727 L21.2078222,9.37006727 L21.2078222,4.9369403 L19.0187977,9.36627016 L16.8310525,4.9369403 L16.8310525,9.36627016 L13.5232075,9.36627016 L13.5232075,0.50697759 L16.8310525,0.50697759 Z" id="Fill-1" fill="#FFFFFF" mask="url(#mask-2)"></path>
                        </g>
                        <g id="simbolo" transform="translate(10.373377, 5.358416)">
                            <mask id="mask-4" fill="white">
                                <use xlink:href="#path-3"></use>
                            </mask>
                            <g id="Clip-7"></g>
                            <path d="M4.54891064,0.437110749 C7.06161908,0.437110749 9.09711762,2.45211093 9.09711762,4.93668716 C9.09711762,7.42316194 7.06161908,9.43816212 4.54891064,9.43816212 C2.0362022,9.43816212 6.39691558e-05,7.42316194 6.39691558e-05,4.93668716 C6.39691558e-05,2.45211093 2.0362022,0.437110749 4.54891064,0.437110749 M4.54891064,0.864285725 L4.54891064,0.864285725 C2.27544684,0.864285725 0.43121608,2.68943036 0.43121608,4.93668716 C0.43121608,7.18774107 2.27544684,9.0103543 4.54891064,9.0103543 C6.82237444,9.0103543 8.66532582,7.18774107 8.66532582,4.93668716 C8.66532582,2.68943036 6.82237444,0.864285725 4.54891064,0.864285725 M4.7715233,5.80938981 L4.7715233,7.18963962 L4.3250186,7.18963962 L4.3250186,5.80938981 C4.11328069,5.80938981 3.83437517,5.80938981 3.72946575,5.8055927 L2.24921949,5.80938981 C2.12320025,5.81508548 1.99526194,5.78787285 1.87819838,5.72142341 C1.65366665,5.59232164 1.53148556,5.35500221 1.54236032,5.11704993 C1.54236032,5.08034452 1.54619847,5.05060049 1.55067631,5.02528641 C1.60313101,4.73417458 1.70804043,4.44685985 1.86668394,4.17536642 C2.02276868,3.90450585 2.2255509,3.67098353 2.45583986,3.47859658 C2.61064522,3.36721466 2.82878004,3.30962514 3.02708442,3.34443199 C3.08273759,3.156475 3.21643312,3.0001606 3.38723077,2.91156135 C3.41985504,2.89194294 3.44800147,2.88055161 3.47550821,2.87105883 C3.81070658,2.75144984 4.17405139,2.6862661 4.54891064,2.6862661 C4.92568897,2.6862661 5.29031316,2.75144984 5.6280703,2.87359024 C5.82061746,2.95586098 5.99397387,3.13052808 6.06497963,3.33873632 C6.25624741,3.29633525 6.4539121,3.33810347 6.60935715,3.45454821 C6.83900642,3.6450366 7.07377322,3.90450585 7.23305642,4.17536642 C7.38978085,4.44685985 7.49405058,4.73417458 7.54586559,5.02528641 C7.55034343,5.05060049 7.55546097,5.08034452 7.55546097,5.11704993 C7.56313726,5.35500221 7.44415463,5.59232164 7.21898321,5.72142341 C7.10319903,5.78787285 6.97462103,5.81508548 6.84860179,5.80938981 L5.36835553,5.8055927 C5.2640858,5.80938981 4.98645967,5.80938981 4.7715233,5.80938981 M6.34516454,3.81274233 L6.34516454,3.81274233 C6.27607785,3.75958278 6.18012412,3.75072286 6.0976039,3.79628819 C6.05346519,3.82160226 6.02467907,3.85767481 6.00420894,3.89817733 L5.25257136,5.19046074 C5.23018215,5.22590044 5.22762338,5.27083292 5.25065228,5.30817117 C5.27240179,5.34677513 5.31270236,5.36765924 5.35812046,5.36449499 L6.86395439,5.36765924 C6.90809311,5.3708235 6.9541509,5.36196358 6.99573085,5.33918091 C7.07377322,5.29424843 7.11663256,5.20944629 7.10831657,5.125277 C7.10959595,5.11958133 7.10831657,5.11325281 7.10767687,5.10376004 C7.06225877,4.86137779 6.97909887,4.62215981 6.84540334,4.39749741 C6.71362687,4.16967076 6.545388,3.9760181 6.35475991,3.8171723 C6.35220114,3.81527374 6.348363,3.81400804 6.34516454,3.81274233 M2.75073767,3.81274233 L2.75073767,3.81274233 C2.7488186,3.81400804 2.74562014,3.81527374 2.74242168,3.8171723 C2.5511539,3.9760181 2.3848341,4.16967076 2.25369733,4.39749741 C2.12064149,4.62215981 2.03428312,4.86137779 1.99142379,5.10376004 C1.98822533,5.11325281 1.98822533,5.11958133 1.99014441,5.125277 C1.9831078,5.20944629 2.02276868,5.29424843 2.10209043,5.33918091 C2.14303069,5.36196358 2.18972817,5.3708235 2.23450658,5.36765924 L3.73970082,5.36449499 C3.78319985,5.36765924 3.82286072,5.34677513 3.847169,5.30817117 C3.86955821,5.27083292 3.86763913,5.22590044 3.84461024,5.19046074 L3.09425204,3.89817733 C3.07378191,3.85767481 3.04179733,3.82160226 3.00021738,3.79628819 C2.91641778,3.75072286 2.82046405,3.75958278 2.75073767,3.81274233 M5.48541908,3.29253814 L5.48541908,3.29253814 C5.48222062,3.29063959 5.47902217,3.28937388 5.47518402,3.28810818 C5.18604343,3.18305478 4.87387395,3.12736382 4.54891064,3.12736382 C4.2258664,3.12736382 3.91497631,3.18305478 3.6277548,3.28557677 C3.61751973,3.29063959 3.60920374,3.2944367 3.60280683,3.29823381 C3.50749278,3.34316629 3.44288394,3.43872691 3.44288394,3.54821027 C3.44288394,3.60579979 3.4607953,3.6608579 3.49277988,3.70579038 L4.42225171,5.28981847 C4.44528061,5.33601665 4.49325748,5.3695578 4.54891064,5.3695578 C4.60328442,5.3695578 4.64998191,5.33791521 4.67429019,5.29298273 L5.60312233,3.70768893 C5.63702598,3.6621236 5.65621673,3.60706549 5.65621673,3.54694457 C5.65621673,3.43303124 5.58585066,3.33430636 5.48541908,3.29253814" id="Fill-6" fill="#FFFFFF" mask="url(#mask-4)"></path>
                        </g>
                    </g>
                </g>
                <g id="logo_bb_seguros" transform="translate(0.815341, 12.121212)">
                    <polygon id="bg" fill="#FFED00" fill-rule="nonzero" points="0 26.8436853 101.591861 26.8436853 101.591861 0.0703417693 0 0.0703417693"></polygon>
                    <path d="M4.22587277,6.59850111 L6.94580246,8.39896902 L10.209874,6.23856228 L8.84983828,5.33839867 L10.6177855,4.16826332 L14.4257155,6.68860894 L8.16989129,10.8293475 L9.52992697,11.7293705 L17.2815921,6.59850111 L10.7537324,2.27796896 L4.22587277,6.59850111 Z M17.2815921,10.9193146 L14.5616623,9.11905772 L11.2978033,11.2793238 L12.6577682,12.1795578 L10.8898918,13.3496931 L7.0818202,10.8293475 L13.3378569,6.68860894 L11.9777504,5.78851563 L4.22587277,10.9193146 L10.7537324,15.2399875 L17.2815921,10.9193146 Z M17.2815921,4.07815552 L15.9216981,4.97831914 L14.5616623,4.07815552 L17.2815921,2.27796896 L17.2815921,4.07815552 Z M4.22587277,13.4397305 L5.58576679,12.5395669 L6.94580246,13.4397305 L4.22587277,15.2399875 L4.22587277,13.4397305 Z" id="simbolo" fill="#0058A2" fill-rule="nonzero"></path>
                    <g id="tipos_outline" transform="translate(0.000000, 0.043471)">
                        <path d="M23.4520864,13.0333099 L19.8922471,13.0333099 L19.8922471,4.39505926 L23.4654047,4.39505926 C24.9985797,4.39505926 26.2652449,4.78988761 26.2652449,6.63227923 C26.2652449,7.62550503 25.7184819,8.3432021 24.625381,8.55865891 C26.0516545,8.73810077 26.4250658,9.56363175 26.4250658,10.7479762 C26.4250658,12.9375747 24.3051726,13.0333099 23.4520864,13.0333099 Z M87.5349311,13.0326065 L83.2209726,13.0319734 L82.7843696,11.4652512 L80.8638276,11.4652512 L80.4161734,13.0319734 L77.4461693,13.0319734 L75.7562197,9.17309427 L76.2728751,9.16556772 C76.750708,9.19588503 77.0477507,8.71228536 77.0477507,8.12303236 C77.0477507,7.42798534 76.5928709,7.04856182 76.0689189,7.04856182 L75.4532969,7.04856182 L75.4532969,13.0319734 L73.5963006,13.0319734 L73.5963006,5.96164079 L76.991998,5.96164079 C78.1161276,5.96164079 78.8395721,6.60787064 78.8363133,7.8124031 C78.8334087,8.8785733 78.4665149,9.45952595 77.5428694,9.63059713 L78.8020962,12.3965059 L80.8091371,5.96164079 L82.9807454,5.96164079 L84.7944572,11.9608089 L87.2407219,11.9608793 C87.7693492,11.9608793 88.0284911,11.6377292 88.0284911,11.1579983 C88.0284911,9.97400567 84.6087784,10.0233856 84.6087784,7.91805643 C84.6087784,6.8114397 85.0805902,5.95685755 86.9880264,5.95685755 L89.3085456,5.95685755 L89.3085456,7.04511506 L87.6570636,7.04504472 C87.1491934,7.04504472 86.8483251,7.30931873 86.8483251,7.79896782 C86.8483251,9.1405964 89.9345815,8.92964139 89.9345815,11.0438336 C89.9345815,12.8750409 88.7269991,13.0326065 87.5349311,13.0326065 Z M82.5006453,10.382621 L81.7803891,7.48974539 L81.125662,10.382621 L82.5006453,10.382621 Z M61.817873,13.2405367 C59.0448116,13.2405367 59.0448116,11.4103846 59.0448116,9.53064148 C59.0448116,7.63099165 59.0448116,5.82081657 61.817873,5.82081657 C64.591147,5.82081657 64.591147,7.63099165 64.591147,9.53064148 C64.591147,11.4103846 64.591147,13.2405367 61.817873,13.2405367 Z M61.8180856,12.1663476 C62.6296581,12.1663476 62.7347176,11.3706415 62.7347176,9.53064148 C62.7347176,7.69071183 62.6296581,6.89493542 61.8180856,6.89493542 C61.0063004,6.89493542 60.9014536,7.69071183 60.9014536,9.53064148 C60.9014536,11.3706415 61.0063004,12.1663476 61.8180856,12.1663476 Z M53.0144083,13.0326065 L53.0144083,5.94011622 L55.7863364,5.94011622 C57.9643207,5.94011622 58.3715945,7.23672603 58.3715945,9.44707547 C58.3715945,10.5374433 58.5585482,13.0326065 55.7205235,13.0326065 L53.0144083,13.0326065 Z M54.8191938,7.04272345 L54.8191938,11.9544078 L55.5074295,11.9544078 C56.3752506,11.9544078 56.5448481,11.2766649 56.5448481,9.4984953 C56.5448481,8.19196727 56.5448481,7.04272345 55.5546813,7.04272345 L54.8191938,7.04272345 Z M69.2110039,9.26559372 L68.6590692,9.2790993 L68.6590692,11.7184112 L69.6169318,11.7184112 C69.9817001,11.7184112 70.8026948,11.7063124 70.8026948,10.4979815 C70.8026948,9.73224101 70.5291006,9.26559372 69.6624833,9.26559372 L69.2110039,9.26559372 Z M68.6590692,7.94450493 L69.210508,7.93761142 L69.8107573,7.93761142 C70.1870022,7.93761142 70.7114495,7.67439254 70.7114495,6.83690342 C70.7114495,6.2028427 70.3010585,5.73612507 69.719512,5.73612507 L68.6590692,5.73612507 L68.6590692,7.94450493 Z M70.024135,13.034154 L66.4642956,13.034154 L66.4642956,4.39590336 L70.0374534,4.39590336 C71.5706992,4.39590336 72.8372936,4.79087239 72.8372936,6.63326401 C72.8372936,7.62620842 72.2906011,8.34404619 71.1973587,8.55950305 C72.6239159,8.73901521 72.9973268,9.56447589 72.9973268,10.7489609 C72.9973268,12.9384188 70.8773629,13.034154 70.024135,13.034154 Z M97.4074811,13.0326065 L97.4074811,11.9634116 L95.2932552,11.9634116 L95.2932552,5.96234423 L93.4816689,5.96234423 L93.4816689,13.0326065 L97.4074811,13.0326065 Z M90.6070901,13.0326768 L92.4186053,13.0326768 L92.4186053,5.96234423 L90.6070901,5.96234423 L90.6070901,13.0326768 Z M48.2739068,13.2405367 C45.5022619,13.2405367 45.5022619,11.4027173 45.5022619,9.51474424 C45.5022619,7.60686442 45.5022619,5.78902208 48.2739068,5.78902208 C51.0454099,5.78902208 51.0454099,7.60686442 51.0454099,9.51474424 C51.0454099,11.4027173 51.0454099,13.2405367 48.2739068,13.2405367 Z M48.2736942,12.1617754 C49.0849833,12.1617754 49.1900429,11.3626929 49.1900429,9.51474424 C49.1900429,7.66679564 49.0849833,6.86778347 48.2736942,6.86778347 C47.4626885,6.86778347 47.3576289,7.66679564 47.3576289,9.51474424 C47.3576289,11.3626929 47.4626885,12.1617754 48.2736942,12.1617754 Z M30.3473356,10.3789632 L29.6269374,7.48601729 L28.9721396,10.3789632 L30.3473356,10.3789632 Z M28.2627929,13.0326065 L26.4732387,13.0326065 L28.6557567,5.96234423 L30.827294,5.96234423 L32.9663146,13.0326065 L31.0675212,13.0326065 L30.6308476,11.4658139 L28.7103054,11.4658139 L28.2627929,13.0326065 Z M42.479126,13.2405367 C44.0517603,13.2405367 44.9710135,12.6212478 44.9710135,10.6935316 L43.1817427,10.6935316 C43.1594273,11.2627372 43.1497927,12.1617754 42.479126,12.1617754 C41.7179226,12.1617754 41.6069123,11.705609 41.6069123,9.51474424 C41.6069123,7.24924686 41.7813267,6.86778347 42.4444132,6.86778347 C42.9220338,6.86778347 43.1364742,7.22730025 43.1364742,8.18633994 L44.9147645,8.18633994 C44.9816399,6.6379769 44.1152353,5.78902208 42.4011283,5.78902208 C39.8472536,5.78902208 39.7730106,7.40005966 39.7730106,9.51474424 C39.7730106,11.6408946 39.7075521,13.2405367 42.479126,13.2405367 Z M34.9230573,13.0326065 L34.9230573,8.31717564 L36.9050908,13.0326065 L39.0408527,13.0326065 L39.0408527,5.96234423 L37.5025062,5.96234423 L37.5025062,10.5337855 L35.574809,5.96234423 L33.3866945,5.96234423 L33.3866945,13.0326065 L34.9230573,13.0326065 Z M22.521215,9.25258049 L22.0840454,9.26594542 L22.0840454,11.7052573 L22.7445108,11.7052573 C23.1923775,11.7052573 24.2004673,11.6931585 24.2004673,10.4848276 C24.2004673,9.71915743 23.8645318,9.25258049 22.8004764,9.25258049 L22.521215,9.25258049 Z M22.0840454,7.9314917 L22.2454956,7.92452789 L22.9824709,7.92452789 C23.444577,7.92452789 24.0886069,7.66130896 24.0886069,6.82389019 C24.0886069,6.18975918 23.5843494,5.72304154 22.8705397,5.72304154 L22.0840454,5.72304154 L22.0840454,7.9314917 Z" id="Fill-3" fill="#0058A2" fill-rule="nonzero"></path>
                        <g id="Fill-5-Clipped">
                            <mask id="mask-6" fill="white">
                                <use xlink:href="#path-5"></use>
                            </mask>
                            <g id="path-1"></g>
                            <polygon id="Fill-5" fill="#0058A2" fill-rule="nonzero" mask="url(#mask-6)" points="7.08425721e-05 18.0674241 101.591791 18.0674241 101.591791 17.52734 7.08425721e-05 17.52734"></polygon>
                        </g>
                        <g id="Fill-7-Clipped">
                            <mask id="mask-8" fill="white">
                                <use xlink:href="#path-7"></use>
                            </mask>
                            <g id="path-1"></g>
                            <path d="M20.1017286,23.1012148 L20.9582861,23.0176488 C21.0090803,23.303799 21.1135731,23.5133472 21.2719062,23.6474889 C21.4292476,23.7804349 21.6413502,23.847963 21.9092768,23.847963 C22.1924346,23.847963 22.4065917,23.7885242 22.5496937,23.6685915 C22.6937874,23.5496436 22.7658344,23.4105779 22.7658344,23.2513944 C22.7658344,23.1486251 22.7354429,23.0618937 22.6745183,22.9904265 C22.6146563,22.9178338 22.5091009,22.8553703 22.357852,22.8029657 C22.2553428,22.7666693 22.0199329,22.7041355 21.6535351,22.613465 C21.1815819,22.4976121 20.8507471,22.3545369 20.6609599,22.1852242 C20.3930332,21.9473987 20.25907,21.6571686 20.25907,21.3146042 C20.25907,21.0938717 20.3219782,20.8882627 20.4477946,20.6958076 C20.5736818,20.5043373 20.755393,20.3582375 20.9917947,20.2574377 C21.2293298,20.1576228 21.5144712,20.1072581 21.8494149,20.1072581 C22.397453,20.1072581 22.8084816,20.226206 23.0855469,20.4640315 C23.3616204,20.7028418 23.506706,21.0202942 23.5209453,21.4182879 L22.6410097,21.4566242 C22.6034632,21.2339222 22.5222776,21.0736836 22.3984448,20.9769637 C22.2746119,20.8791886 22.0889336,20.8308638 21.8412679,20.8308638 C21.5855263,20.8308638 21.3845459,20.8822133 21.2404521,20.9870225 C21.1470816,21.0535659 21.1003963,21.1432516 21.1003963,21.2550951 C21.1003963,21.3578644 21.1440354,21.4455805 21.2313134,21.5181029 C21.3419695,21.6108134 21.6118797,21.7076036 22.0401939,21.8072779 C22.4685081,21.9080777 22.7851035,22.0119021 22.9901219,22.1186809 C23.1951404,22.2265149 23.3555279,22.372685 23.4722056,22.5590908 C23.5878915,22.7454965 23.64577,22.975303 23.64577,23.2483698 C23.64577,23.4962541 23.5767693,23.7290854 23.4377053,23.9446829 C23.2986413,24.1613356 23.1027617,24.3225589 22.8490744,24.4274385 C22.5953871,24.5332325 22.27865,24.5856371 21.9001381,24.5856371 C21.3490537,24.5856371 20.9258403,24.459655 20.6304976,24.206706 C20.3351549,23.953757 20.1585444,23.5849551 20.1017286,23.1012148" id="Fill-7" fill="#0058A2" fill-rule="nonzero" mask="url(#mask-8)"></path>
                        </g>
                        <g id="Fill-8-Clipped">
                            <mask id="mask-10" fill="white">
                                <use xlink:href="#path-9"></use>
                            </mask>
                            <g id="path-1"></g>
                            <path d="M26.2561133,22.6729811 C26.2500208,22.4321309 26.1881044,22.2496643 26.0693723,22.1247374 C25.9506401,21.9998104 25.8054837,21.9373469 25.6349656,21.9373469 C25.4522626,21.9373469 25.3020764,22.0038198 25.1833442,22.135781 C25.0646121,22.2668981 25.0057419,22.4461992 25.0077963,22.6729811 L26.2561133,22.6729811 Z M26.2084362,23.5113847 L27.0416157,23.6494656 C26.9340767,23.9527089 26.7655422,24.1835706 26.5341704,24.3417693 C26.3037903,24.5009527 26.0145401,24.5795244 25.6674823,24.5795244 C25.1183816,24.5795244 24.7124536,24.4021928 24.448565,24.0454897 C24.2405004,23.7602538 24.1360076,23.3995413 24.1360076,22.9651808 C24.1360076,22.4452145 24.2729463,22.0380763 24.5470362,21.7438367 C24.8200635,21.4495267 25.1661295,21.3024421 25.5842423,21.3024421 C26.0541411,21.3024421 26.4245769,21.4566312 26.6966124,21.7650095 C26.9675144,22.0733879 27.0974397,22.5450295 27.0863174,23.1808487 L24.9925651,23.1808487 C24.9986576,23.4267635 25.0656038,23.6182338 25.1945373,23.7542748 C25.3234,23.8913006 25.4847794,23.9598134 25.6765502,23.9598134 C25.8075381,23.9598134 25.9171316,23.9245722 26.0064641,23.8540194 C26.0957257,23.7824115 26.1637346,23.6685985 26.2084362,23.5113847 L26.2084362,23.5113847 Z" id="Fill-8" fill="#0058A2" fill-rule="nonzero" mask="url(#mask-10)"></path>
                        </g>
                        <g id="Fill-9-Clipped">
                            <mask id="mask-12" fill="white">
                                <use xlink:href="#path-11"></use>
                            </mask>
                            <g id="path-1"></g>
                            <path d="M28.4361092,22.876515 C28.4361092,23.2090909 28.5010719,23.4528955 28.6309263,23.607155 C28.7608516,23.7612738 28.9201765,23.8389311 29.1110264,23.8389311 C29.3149822,23.8389311 29.4875547,23.7593042 29.6286023,23.6011056 C29.768658,23.4428366 29.8397131,23.2081061 29.8397131,22.8966328 C29.8397131,22.5722165 29.7717042,22.3313663 29.6367491,22.1741525 C29.5027859,22.0159538 29.3322678,21.9373117 29.1262576,21.9373117 C28.9252772,21.9373117 28.7608516,22.0148987 28.6309263,22.1690879 C28.5010719,22.3242618 28.4361092,22.5590626 28.4361092,22.876515 M27.6901369,24.7156709 L28.6441739,24.8304687 C28.6603968,24.9413273 28.6969516,25.0169447 28.7537673,25.0583057 C28.8329694,25.1176741 28.9587858,25.1469363 29.128312,25.1469363 C29.3465072,25.1469363 29.5098701,25.1146495 29.6194636,25.0491613 C29.6925731,25.0058307 29.7483971,24.9363331 29.7859436,24.8395428 C29.8113053,24.7710299 29.824482,24.644063 29.824482,24.4586421 L29.824482,24.0011392 C29.5748327,24.3397645 29.2592291,24.5090068 28.8785919,24.5090068 C28.4543867,24.5090068 28.1184512,24.3306904 27.8708564,23.9749018 C27.6769603,23.6927609 27.5795517,23.343092 27.5795517,22.923855 C27.5795517,22.3978393 27.7074226,21.9967505 27.9621724,21.7186192 C28.2169223,21.4415429 28.5335178,21.3024069 28.9121005,21.3024069 C29.3018055,21.3024069 29.6245642,21.4727747 29.8782515,21.8133695 L29.8782515,21.3740148 L30.6597867,21.3740148 L30.6597867,24.1876152 C30.6597867,24.5574019 30.6293244,24.8334934 30.567408,25.0169447 C30.5065542,25.2003257 30.420268,25.3434009 30.3096119,25.4482805 C30.197964,25.5520346 30.0498322,25.633631 29.8650747,25.6931401 C29.6793964,25.7515238 29.4449074,25.7817708 29.1617497,25.7817708 C28.6258965,25.7817708 28.246322,25.6901154 28.0230262,25.508704 C27.7987386,25.3263078 27.6870908,25.0955165 27.6870908,24.8164003 C27.6870908,24.7881933 27.6880826,24.7549216 27.6901369,24.7156709" id="Fill-9" fill="#0058A2" fill-rule="nonzero" mask="url(#mask-12)"></path>
                        </g>
                        <g id="Fill-10-Clipped">
                            <mask id="mask-14" fill="white">
                                <use xlink:href="#path-13"></use>
                            </mask>
                            <g id="path-1"></g>
                            <path d="M33.5654161,24.5090138 L33.5654161,24.0394122 C33.4497301,24.2066849 33.2984813,24.3387164 33.1117403,24.4355067 C32.9240074,24.5311715 32.7260733,24.5795666 32.5180087,24.5795666 C32.305906,24.5795666 32.1161187,24.5332818 31.9476551,24.4415561 C31.7791915,24.3488456 31.6574131,24.218854 31.5813282,24.051511 C31.5061642,23.8842382 31.4686176,23.6524621 31.4686176,23.3571674 L31.4686176,21.3740218 L32.3039224,21.3740218 L32.3039224,22.8140585 C32.3039224,23.2554532 32.3191536,23.5254952 32.3506077,23.6253102 C32.3809991,23.72407 32.4368231,23.8026418 32.5180087,23.8610958 C32.5992651,23.9194795 32.7027661,23.9477569 32.8275907,23.9477569 C32.9706927,23.9477569 33.0985635,23.9094909 33.2112032,23.8318336 C33.3238429,23.7532618 33.4009905,23.6575267 33.4426459,23.5426586 C33.4842305,23.4267354 33.5055541,23.1445946 33.5055541,22.6961658 L33.5055541,21.3740218 L34.3407881,21.3740218 L34.3407881,24.5090138 L33.5654161,24.5090138 Z" id="Fill-10" fill="#0058A2" fill-rule="nonzero" mask="url(#mask-14)"></path>
                        </g>
                        <g id="Fill-11-Clipped">
                            <mask id="mask-16" fill="white">
                                <use xlink:href="#path-15"></use>
                            </mask>
                            <g id="path-1"></g>
                            <path d="M36.0062686,24.5090138 L35.1709638,24.5090138 L35.1709638,21.3740218 L35.9464066,21.3740218 L35.9464066,21.819426 C36.0793073,21.6088227 36.1991021,21.469757 36.3045867,21.4032137 C36.4112047,21.3366704 36.5309287,21.3024139 36.6659546,21.3024139 C36.8567336,21.3024139 37.0394367,21.3548185 37.2160472,21.4596278 L36.9571884,22.1821785 C36.8171327,22.0924927 36.6862156,22.0471926 36.5654999,22.0471926 C36.4476886,22.0471926 36.3492883,22.078354 36.2681027,22.1428574 C36.1858545,22.206376 36.1229463,22.3222289 36.076261,22.489572 C36.0295758,22.6568447 36.0062686,23.0074984 36.0062686,23.5406187 L36.0062686,24.5090138 Z" id="Fill-11" fill="#0058A2" fill-rule="nonzero" mask="url(#mask-16)"></path>
                        </g>
                        <g id="Fill-12-Clipped">
                            <mask id="mask-18" fill="white">
                                <use xlink:href="#path-17"></use>
                            </mask>
                            <g id="path-1"></g>
                            <path d="M38.2390564,22.9410184 C38.2390564,23.2524214 38.3130869,23.490247 38.4623522,23.6554798 C38.610484,23.8207829 38.7941788,23.9034345 39.0124448,23.9034345 C39.2306399,23.9034345 39.4132721,23.8207829 39.5604121,23.6554798 C39.7086147,23.490247 39.782716,23.2503815 39.782716,22.934969 C39.782716,22.6286306 39.7086147,22.3917899 39.5604121,22.2265571 C39.4132721,22.0612539 39.2306399,21.9786023 39.0124448,21.9786023 C38.7941788,21.9786023 38.610484,22.0612539 38.4623522,22.2265571 C38.3130869,22.3917899 38.2390564,22.6306002 38.2390564,22.9410184 M37.3824281,22.8966328 C37.3824281,22.6215964 37.4514995,22.3545088 37.5874464,22.0964952 C37.724456,21.839607 37.9183521,21.642017 38.1689931,21.5069608 C38.419705,21.3709901 38.6998165,21.3024069 39.0093277,21.3024069 C39.4863816,21.3024069 39.878141,21.4565961 40.1836142,21.7649744 C40.4890873,22.0733527 40.6413281,22.4623427 40.6413281,22.9329291 C40.6413281,23.4066106 40.4870329,23.79961 40.1795053,24.1119275 C39.8709859,24.4243857 39.4832645,24.5795596 39.0154201,24.5795596 C38.7251782,24.5795596 38.4500964,24.5150562 38.1872705,24.3850646 C37.9244446,24.2551434 37.724456,24.0646578 37.5874464,23.8136784 C37.4514995,23.5627693 37.3824281,23.2574157 37.3824281,22.8966328" id="Fill-12" fill="#0058A2" fill-rule="nonzero" mask="url(#mask-18)"></path>
                        </g>
                        <g id="Fill-13-Clipped">
                            <mask id="mask-20" fill="white">
                                <use xlink:href="#path-19"></use>
                            </mask>
                            <g id="path-1"></g>
                            <path d="M41.001605,23.614147 L41.8398852,23.4871801 C41.8754482,23.6484034 41.947495,23.7713608 42.0570885,23.8550675 C42.1656901,23.9386336 42.3179309,23.9809793 42.5148024,23.9809793 C42.7310139,23.9809793 42.8933851,23.9416582 43.0019867,23.8620313 C43.0760881,23.8076572 43.112572,23.7330949 43.112572,23.6413692 C43.112572,23.5778506 43.092311,23.525446 43.05271,23.4841554 C43.0111254,23.4449047 42.9177549,23.4086083 42.7735903,23.3753367 C42.0997358,23.228252 41.6724842,23.0931958 41.4917648,22.9712232 C41.2421155,22.8019106 41.1172909,22.5661953 41.1172909,22.2647808 C41.1172909,21.993754 41.2249008,21.7650025 41.4410415,21.5805664 C41.657253,21.3951455 41.9921259,21.302435 42.4458017,21.302435 C42.8781539,21.302435 43.19985,21.3729878 43.4099691,21.5120535 C43.6200173,21.652104 43.7641819,21.8586978 43.8433131,22.1328197 L43.0557563,22.2768796 C43.0222477,22.1549773 42.9583477,22.061282 42.8639854,21.9967787 C42.7695523,21.9312905 42.635589,21.8990036 42.4610328,21.8990036 C42.2407833,21.8990036 42.0834419,21.9292506 41.9880878,21.9907293 C41.9251796,22.0340598 41.8936547,22.0904739 41.8936547,22.1589868 C41.8936547,22.2184959 41.9210708,22.2678055 41.9769655,22.3091665 C42.0519878,22.3645957 42.3118384,22.4421827 42.7573673,22.5429121 C43.2019045,22.6427271 43.5124783,22.7656142 43.6890888,22.9117844 C43.8635741,23.0599242 43.950923,23.2655331 43.950923,23.5284707 C43.950923,23.8157464 43.8301364,24.0636309 43.5875714,24.2702246 C43.3459983,24.4768184 42.9887392,24.5795877 42.5148024,24.5795877 C42.0845046,24.5795877 41.7445311,24.4929267 41.4928274,24.3196046 C41.2421155,24.1472672 41.0787526,23.9114816 41.001605,23.614147" id="Fill-13" fill="#0058A2" fill-rule="nonzero" mask="url(#mask-20)"></path>
                        </g>
                    </g>
                </g>
                <g id="header" transform="translate(1.000000, 0.000000)">
                    <path d="M71.1100051,5.54763168 C70.5406521,5.87620084 69.8330383,6.04048295 68.9871425,6.04048295 C68.0490656,6.04048295 67.3095957,5.78048275 66.7687103,5.26047454 C66.227825,4.74046632 65.9573864,4.02427776 65.9573864,3.11188738 C65.9573864,2.19406609 66.2529032,1.4459715 66.8439459,0.867581166 C67.4349885,0.28919083 68.2212261,0 69.2026822,0 C69.8208368,0 70.3657808,0.0855353159 70.8375304,0.256608514 L70.8375304,1.49077327 C70.3874704,1.2300903 69.8371041,1.09975077 69.186415,1.09975077 C68.6414629,1.09975077 68.1975098,1.27693107 67.8545424,1.63129698 C67.511575,1.98566289 67.3400938,2.45882254 67.3400938,3.05079011 C67.3400938,3.65090403 67.4939524,4.1152386 67.8016741,4.44380776 C68.1093959,4.77237691 68.5248818,4.93665903 69.0481443,4.93665903 C69.362644,4.93665903 69.6120711,4.89185482 69.796433,4.80224505 L69.796433,3.66176276 L68.6292652,3.66176276 L68.6292652,2.6108898 L71.1100051,2.6108898 L71.1100051,5.54763168 Z M77.136983,5.93865418 L75.6282052,5.93865418 L74.7213117,4.43566145 C74.6535316,4.32161266 74.5884637,4.2197849 74.526106,4.13017513 C74.4637483,4.04056536 74.4007137,3.96385511 74.3370004,3.9000421 C74.2732871,3.83622908 74.2068636,3.78735175 74.1377278,3.75340866 C74.0685921,3.71946557 73.9933573,3.70249427 73.9120212,3.70249427 L73.5582107,3.70249427 L73.5582107,5.93865418 L72.2446386,5.93865418 L72.2446386,0.0977556243 L74.3268334,0.0977556243 C75.7420823,0.0977556243 76.4496961,0.627259961 76.4496961,1.68628452 C76.4496961,1.88994309 76.4185177,2.07798501 76.35616,2.25041594 C76.2938023,2.42284686 76.2056895,2.5783039 76.0918189,2.71679173 C75.9779483,2.85527955 75.8403567,2.97475746 75.67904,3.07522902 C75.5177233,3.17570058 75.3381087,3.25444738 75.1401908,3.31147177 L75.1401908,3.32776438 C75.2269493,3.35491885 75.3109954,3.39904422 75.3923315,3.46014179 C75.4736677,3.52123936 75.5522914,3.59251879 75.6282052,3.67398222 C75.7041189,3.75544564 75.7766425,3.84301751 75.8457783,3.93670046 C75.914914,4.0303834 75.9779485,4.12202838 76.0348838,4.21163815 L77.136983,5.93865418 Z M73.5582107,1.08345817 L73.5582107,2.70864542 L74.1275609,2.70864542 C74.4095262,2.70864542 74.6359084,2.62718322 74.8067143,2.46425636 C74.9802314,2.29861406 75.0669886,2.09360084 75.0669886,1.84921056 C75.0669886,1.33870641 74.7619827,1.08345817 74.1519616,1.08345817 L73.5582107,1.08345817 Z M82.4360061,3.4092274 C82.4360061,5.16340654 81.6199458,6.04048295 79.9878005,6.04048295 C78.404457,6.04048295 77.6127971,5.18377209 77.6127971,3.47032466 L77.6127971,0.0977556243 L78.930436,0.0977556243 L78.930436,3.48661727 C78.930436,4.43159303 79.2991543,4.90407382 80.036602,4.90407382 C80.7604936,4.90407382 81.122434,4.44788547 81.122434,3.53549508 L81.122434,0.0977556243 L82.4360061,0.0977556243 L82.4360061,3.4092274 Z M85.0184157,3.92651758 L85.0184157,5.93865418 L83.7048436,5.93865418 L83.7048436,0.0977556243 L85.7626377,0.0977556243 C87.2321106,0.0977556243 87.9668361,0.718226091 87.9668361,1.95918564 C87.9668361,2.54572232 87.7560431,3.02023966 87.3344507,3.38275192 C86.9128584,3.74526417 86.3496141,3.92651758 85.6447009,3.92651758 L85.0184157,3.92651758 Z M85.0184157,1.10789708 L85.0184157,2.92859558 L85.5348976,2.92859558 C86.2343884,2.92859558 86.5841286,2.6217546 86.5841286,2.00806345 C86.5841286,1.40794953 86.2343884,1.10789708 85.5348976,1.10789708 L85.0184157,1.10789708 Z M91.285334,6.04048295 C90.450283,6.04048295 89.7697808,5.76826342 89.2438071,5.22381618 C88.7178334,4.67936893 88.4548505,3.96996889 88.4548505,3.09559477 C88.4548505,2.17234259 88.7219001,1.42560571 89.2560075,0.855361713 C89.7901148,0.28511772 90.4977286,0 91.3788701,0 C92.21121,0 92.8842564,0.272898389 93.3980297,0.818703354 C93.911803,1.36450832 94.1686858,2.08409114 94.1686858,2.97747339 C94.1686858,3.89529468 93.9023139,4.63524304 93.3695622,5.19734069 C92.8368105,5.75943835 92.1420747,6.04048295 91.285334,6.04048295 Z M91.342269,1.13233598 C90.8813642,1.13233598 90.5153571,1.30544317 90.2442366,1.65166274 C89.9731162,1.9978823 89.837558,2.45610721 89.837558,3.0263512 C89.837558,3.60474154 89.9731162,4.06228759 90.2442366,4.3990031 C90.5153571,4.7357186 90.8705196,4.90407382 91.3097348,4.90407382 C91.7625059,4.90407382 92.1217352,4.74047056 92.3874332,4.41325912 C92.6531313,4.08604769 92.7859783,3.63189589 92.7859783,3.05079011 C92.7859783,2.4452453 92.657198,1.97412221 92.3996336,1.63740671 C92.1420691,1.30069121 91.7896178,1.13233598 91.342269,1.13233598 Z M97.1659076,5.71463087 L97.1659076,4.41122255 C97.4017824,4.60945022 97.6579874,4.75811875 97.9345303,4.85723258 C98.2110732,4.95634642 98.4903231,5.0059026 98.7722884,5.0059026 C98.9376719,5.0059026 99.0820413,4.99096786 99.2054012,4.96109794 C99.328761,4.93122801 99.4317852,4.88981806 99.514477,4.83686683 C99.5971687,4.7839156 99.6588477,4.72146124 99.6995157,4.64950188 C99.7401838,4.57754252 99.7605175,4.49947457 99.7605175,4.4152957 C99.7605175,4.3012469 99.7279836,4.19941914 99.6629147,4.10980937 C99.5978458,4.0201996 99.5090551,3.93737969 99.3965401,3.86134716 C99.2840251,3.78531463 99.1505003,3.71199864 98.9959616,3.64139701 C98.841423,3.57079537 98.6746864,3.49883709 98.4957469,3.42552 C98.0402645,3.23543867 97.7006912,3.00327139 97.4770168,2.72901118 C97.2533424,2.45475097 97.1415069,2.12347134 97.1415069,1.73516233 C97.1415069,1.4310322 97.2025081,1.16967429 97.3245123,0.951080762 C97.4465165,0.732487231 97.6125753,0.552591527 97.8226937,0.411388252 C98.032812,0.270184978 98.276139,0.166320666 98.5526819,0.0997921999 C98.8292248,0.033263734 99.1220305,0 99.4311078,0 C99.7347627,0 100.003846,0.0183289963 100.238365,0.0549875387 C100.472884,0.0916460811 100.6891,0.147990773 100.887017,0.224023306 L100.887017,1.44189546 C100.789414,1.37400927 100.683001,1.31427032 100.567775,1.26267681 C100.452549,1.21108331 100.333935,1.16831565 100.211931,1.13437256 C100.089927,1.10042946 99.9686021,1.07531195 99.8479535,1.05901926 C99.7273049,1.04272658 99.6127582,1.03458036 99.50431,1.03458036 C99.3551937,1.03458036 99.2196355,1.04883624 99.0976313,1.07734844 C98.9756271,1.10586064 98.8726029,1.14591289 98.7885555,1.1975064 C98.7045082,1.2490999 98.6394402,1.31087541 98.5933498,1.38283477 C98.5472593,1.45479413 98.5242144,1.53557748 98.5242144,1.62518725 C98.5242144,1.72294337 98.5499704,1.81051524 98.6014833,1.8879055 C98.6529962,1.96529575 98.7261977,2.03861174 98.8210898,2.10785565 C98.915982,2.17709956 99.0312065,2.24498473 99.1667667,2.3115132 C99.3023269,2.37804167 99.4555077,2.44660569 99.6263136,2.51720733 C99.8594772,2.61496344 100.068915,2.71882775 100.254632,2.82880338 C100.44035,2.93877901 100.599631,3.06300887 100.73248,3.2014967 C100.865329,3.33998452 100.966997,3.49815697 101.037489,3.67601879 C101.10798,3.85388061 101.143225,4.06093038 101.143225,4.29717432 C101.143225,4.62302803 101.081546,4.89660527 100.958186,5.11791425 C100.834826,5.33922323 100.667412,5.51844008 100.455938,5.65557018 C100.244464,5.79270029 99.998426,5.89113379 99.7178163,5.95087363 C99.4372066,6.01061348 99.1410119,6.04048295 98.8292234,6.04048295 C98.5093012,6.04048295 98.2049731,6.01332889 97.9162298,5.95901993 C97.6274865,5.90471098 97.3773816,5.82324878 97.1659076,5.71463087 Z M105.600423,5.93865418 L102.102987,5.93865418 L102.102987,0.0977556243 L105.466219,0.0977556243 L105.466219,1.16899434 L103.416559,1.16899434 L103.416559,2.46832951 L105.323882,2.46832951 L105.323882,3.53549508 L103.416559,3.53549508 L103.416559,4.87148861 L105.600423,4.87148861 L105.600423,5.93865418 Z M111.322392,5.54763168 C110.753039,5.87620084 110.045425,6.04048295 109.19953,6.04048295 C108.261453,6.04048295 107.521983,5.78048275 106.981097,5.26047454 C106.440212,4.74046632 106.169773,4.02427776 106.169773,3.11188738 C106.169773,2.19406609 106.46529,1.4459715 107.056333,0.867581166 C107.647376,0.28919083 108.433613,0 109.415069,0 C110.033224,0 110.578168,0.0855353159 111.049917,0.256608514 L111.049917,1.49077327 C110.599857,1.2300903 110.049491,1.09975077 109.398802,1.09975077 C108.85385,1.09975077 108.409897,1.27693107 108.066929,1.63129698 C107.723962,1.98566289 107.552481,2.45882254 107.552481,3.05079011 C107.552481,3.65090403 107.706339,4.1152386 108.014061,4.44380776 C108.321783,4.77237691 108.737269,4.93665903 109.260531,4.93665903 C109.575031,4.93665903 109.824458,4.89185482 110.00882,4.80224505 L110.00882,3.66176276 L108.841652,3.66176276 L108.841652,2.6108898 L111.322392,2.6108898 L111.322392,5.54763168 Z M117.211099,3.4092274 C117.211099,5.16340654 116.395039,6.04048295 114.762894,6.04048295 C113.17955,6.04048295 112.38789,5.18377209 112.38789,3.47032466 L112.38789,0.0977556243 L113.705529,0.0977556243 L113.705529,3.48661727 C113.705529,4.43159303 114.074248,4.90407382 114.811695,4.90407382 C115.535587,4.90407382 115.897527,4.44788547 115.897527,3.53549508 L115.897527,0.0977556243 L117.211099,0.0977556243 L117.211099,3.4092274 Z M123.372281,5.93865418 L121.863503,5.93865418 L120.95661,4.43566145 C120.88883,4.32161266 120.823762,4.2197849 120.761404,4.13017513 C120.699046,4.04056536 120.636012,3.96385511 120.572299,3.9000421 C120.508585,3.83622908 120.442162,3.78735175 120.373026,3.75340866 C120.30389,3.71946557 120.228655,3.70249427 120.147319,3.70249427 L119.793509,3.70249427 L119.793509,5.93865418 L118.479937,5.93865418 L118.479937,0.0977556243 L120.562132,0.0977556243 C121.97738,0.0977556243 122.684994,0.627259961 122.684994,1.68628452 C122.684994,1.88994309 122.653816,2.07798501 122.591458,2.25041594 C122.5291,2.42284686 122.440988,2.5783039 122.327117,2.71679173 C122.213246,2.85527955 122.075655,2.97475746 121.914338,3.07522902 C121.753022,3.17570058 121.573407,3.25444738 121.375489,3.31147177 L121.375489,3.32776438 C121.462247,3.35491885 121.546294,3.39904422 121.62763,3.46014179 C121.708966,3.52123936 121.78759,3.59251879 121.863503,3.67398222 C121.939417,3.75544564 122.011941,3.84301751 122.081076,3.93670046 C122.150212,4.0303834 122.213247,4.12202838 122.270182,4.21163815 L123.372281,5.93865418 Z M119.793509,1.08345817 L119.793509,2.70864542 L120.362859,2.70864542 C120.644824,2.70864542 120.871207,2.62718322 121.042012,2.46425636 C121.21553,2.29861406 121.302287,2.09360084 121.302287,1.84921056 C121.302287,1.33870641 120.997281,1.08345817 120.38726,1.08345817 L119.793509,1.08345817 Z M129.045449,5.93865418 L127.61394,5.93865418 L127.199128,4.63931901 L125.125066,4.63931901 L124.714321,5.93865418 L123.290945,5.93865418 L125.413808,0.0977556243 L126.971387,0.0977556243 L129.045449,5.93865418 Z M126.898185,3.62917755 L126.2719,1.66591876 C126.22581,1.5192846 126.193276,1.34414085 126.174297,1.14048228 L126.141763,1.14048228 C126.128207,1.31155548 126.094317,1.48126841 126.040093,1.64962616 L125.405675,3.62917755 L126.898185,3.62917755 Z M129.773404,5.93865418 L129.773404,0.0977556243 L131.839331,0.0977556243 C133.910692,0.0977556243 134.946356,1.04679032 134.946356,2.94488818 C134.946356,3.85456313 134.663717,4.58093446 134.098431,5.12402398 C133.533145,5.66711349 132.780119,5.93865418 131.839331,5.93865418 L129.773404,5.93865418 Z M131.086976,1.16899434 L131.086976,4.87148861 L131.737661,4.87148861 C132.307014,4.87148861 132.753679,4.70041798 133.077668,4.35827159 C133.401657,4.01612519 133.563649,3.55043291 133.563649,2.96118079 C133.563649,2.40451403 133.403012,1.96665468 133.081735,1.64758959 C132.760457,1.32852449 132.309726,1.16899434 131.729528,1.16899434 L131.086976,1.16899434 Z M138.378724,6.04048295 C137.543673,6.04048295 136.863171,5.76826342 136.337197,5.22381618 C135.811224,4.67936893 135.548241,3.96996889 135.548241,3.09559477 C135.548241,2.17234259 135.81529,1.42560571 136.349398,0.855361713 C136.883505,0.28511772 137.591119,0 138.47226,0 C139.3046,0 139.977647,0.272898389 140.49142,0.818703354 C141.005193,1.36450832 141.262076,2.08409114 141.262076,2.97747339 C141.262076,3.89529468 140.995704,4.63524304 140.462952,5.19734069 C139.930201,5.75943835 139.235465,6.04048295 138.378724,6.04048295 Z M138.435659,1.13233598 C137.974754,1.13233598 137.608747,1.30544317 137.337627,1.65166274 C137.066506,1.9978823 136.930948,2.45610721 136.930948,3.0263512 C136.930948,3.60474154 137.066506,4.06228759 137.337627,4.3990031 C137.608747,4.7357186 137.96391,4.90407382 138.403125,4.90407382 C138.855896,4.90407382 139.215125,4.74047056 139.480823,4.41325912 C139.746521,4.08604769 139.879369,3.63189589 139.879369,3.05079011 C139.879369,2.4452453 139.750588,1.97412221 139.493024,1.63740671 C139.235459,1.30069121 138.883008,1.13233598 138.435659,1.13233598 Z M147.122316,5.93865418 L145.613538,5.93865418 L144.706644,4.43566145 C144.638864,4.32161266 144.573796,4.2197849 144.511439,4.13017513 C144.449081,4.04056536 144.386046,3.96385511 144.322333,3.9000421 C144.25862,3.83622908 144.192196,3.78735175 144.12306,3.75340866 C144.053925,3.71946557 143.97869,3.70249427 143.897354,3.70249427 L143.543543,3.70249427 L143.543543,5.93865418 L142.229971,5.93865418 L142.229971,0.0977556243 L144.312166,0.0977556243 C145.727415,0.0977556243 146.435029,0.627259961 146.435029,1.68628452 C146.435029,1.88994309 146.40385,2.07798501 146.341493,2.25041594 C146.279135,2.42284686 146.191022,2.5783039 146.077151,2.71679173 C145.963281,2.85527955 145.825689,2.97475746 145.664373,3.07522902 C145.503056,3.17570058 145.323441,3.25444738 145.125523,3.31147177 L145.125523,3.32776438 C145.212282,3.35491885 145.296328,3.39904422 145.377664,3.46014179 C145.459,3.52123936 145.537624,3.59251879 145.613538,3.67398222 C145.689452,3.75544564 145.761975,3.84301751 145.831111,3.93670046 C145.900247,4.0303834 145.963281,4.12202838 146.020216,4.21163815 L147.122316,5.93865418 Z M143.543543,1.08345817 L143.543543,2.70864542 L144.112893,2.70864542 C144.394859,2.70864542 144.621241,2.62718322 144.792047,2.46425636 C144.965564,2.29861406 145.052321,2.09360084 145.052321,1.84921056 C145.052321,1.33870641 144.747315,1.08345817 144.137294,1.08345817 L143.543543,1.08345817 Z" id="GRUPO-SEGURADOR" fill="#6D6E71"></path>
                    <path d="M0.411586302,3.06818182 L61.4196085,3.06818182" id="Line" stroke="#7B7C7E" stroke-linecap="square"></path>
                    <path d="M151.689995,3.06818182 L212.698018,3.06818182" id="Line" stroke="#7B7C7E" stroke-linecap="square"></path>
                </g>
            </g>
        </g>
    </g>
</svg>