<?xml version="1.0" encoding="UTF-8"?>
<svg width="200px" height="182px" viewBox="0 0 200 182" version="1.1" xmlns="http://www.w3.org/2000/svg" xmlns:xlink="http://www.w3.org/1999/xlink">
    <defs></defs>
    <g id="Page-1" stroke="none" stroke-width="1" fill="none" fill-rule="evenodd">
        <g id="tela_erro_MAPFRE-(Phone)" transform="translate(-60.000000, -175.000000)" fill-rule="nonzero" fill="#D4D4D4">
            <g id="ico_erro" transform="translate(60.000000, 175.000000)">
                <path d="M195.522222,152 L4.47777778,152 C2.00666667,152 0,149.995741 0,147.528108 L0,4.47189241 C0,2.00204207 2.00666667,0 4.47777778,0 L195.522222,0 C197.993333,0 200,2.00204207 200,4.47189241 L200,147.528108 C200,149.995741 197.993333,152 195.522222,152 Z M9,143 L191,143 L191,9 L9,9 L9,143 Z" id="Shape"></path>
                <path d="M121.499869,182 L79.5001314,182 C77.0166842,182 75,179.984721 75,177.498541 L75,147.499227 C75,145.015279 77.0166842,143 79.5001314,143 L121.499869,143 C123.983316,143 126,145.013047 126,147.499227 L126,177.498541 C126,179.984721 123.983316,182 121.499869,182 Z M84,173 L117,173 L117,152 L84,152 L84,173 Z" id="Shape"></path>
                <rect id="Rectangle-path" x="25" y="173" width="149" height="9" rx="1.5"></rect>
                <path d="M174.528134,21 L25.4718656,21 C23.0040172,21 21,22.994853 21,25.4585629 L21,126.539226 C21,129.000724 23.0040172,131 25.4718656,131 L174.528134,131 C176.995983,131 179,129.002935 179,126.539226 L179,25.4585629 C179,22.9970646 176.995983,21 174.528134,21 Z M139,108.664749 L132.666724,115 L99.9888851,82.3219229 L67.3332763,114.951131 L61,108.61588 L93.6533858,75.986672 L61,43.3330296 L67.3332763,37 L99.9866621,69.6514211 L132.664501,37 L138.997777,43.3330296 L106.319938,75.986672 L139,108.664749 Z" id="Shape"></path>
            </g>
        </g>
    </g>
</svg>
