<?xml version="1.0" encoding="UTF-8"?>
<svg width="454px" height="543px" viewBox="0 0 454 543" version="1.1" xmlns="http://www.w3.org/2000/svg" xmlns:xlink="http://www.w3.org/1999/xlink">
    <defs>
        <rect id="path-1" x="0" y="0" width="454" height="543"></rect>
    </defs>
    <g id="Tela-Erro" stroke="none" stroke-width="1" fill="none" fill-rule="evenodd">
        <g id="tela-erro_mapfre" transform="translate(-746.000000, -225.000000)">
            <g id="ico_erro" transform="translate(746.000000, 225.000000)">
                <mask id="mask-2" fill="white">
                    <use xlink:href="#path-1"></use>
                </mask>
                <use id="Mask" fill="#D8D8D8" opacity="0" xlink:href="#path-1"></use>
                <g id="Group" mask="url(#mask-2)" fill-rule="nonzero" fill="#D4D4D4">
                    <g transform="translate(0.000000, -4.000000)">
                        <path d="M585.589056,457.332024 L13.4109444,457.332024 C6.00996667,457.332024 0,451.301683 0,443.877159 L0,13.4548659 C0,6.02367073 6.00996667,0 13.4109444,0 L585.589056,0 C592.990033,0 599,6.02367073 599,13.4548659 L599,443.877159 C599,451.301683 592.990033,457.332024 585.589056,457.332024 Z M26.8218889,430.428963 L572.178111,430.428963 L572.178111,26.903061 L26.8218889,26.903061 L26.8218889,430.428963 Z" id="Shape"></path>
                        <path d="M362.082189,547 L236.917811,547 C229.516833,547 223.506867,540.976329 223.506867,533.545134 L223.506867,443.877159 C223.506867,436.452634 229.516833,430.428963 236.917811,430.428963 L362.082189,430.428963 C369.483167,430.428963 375.493133,436.445963 375.493133,443.877159 L375.493133,533.545134 C375.493133,540.976329 369.483167,547 362.082189,547 Z M250.328756,520.096939 L348.671244,520.096939 L348.671244,457.332024 L250.328756,457.332024 L250.328756,520.096939 Z" id="Shape"></path>
                        <rect id="Rectangle-path" x="75.9931333" y="520.096939" width="447.013733" height="26.903061" rx="3"></rect>
                        <path d="M523.006867,62.7715854 L75.9931333,62.7715854 C68.5921556,62.7715854 62.5821889,68.7885854 62.5821889,76.2197805 L62.5821889,381.105573 C62.5821889,388.530098 68.5921556,394.560439 75.9931333,394.560439 L523.006867,394.560439 C530.407844,394.560439 536.417811,388.536768 536.417811,381.105573 L536.417811,76.2197805 C536.417811,68.7952561 530.407844,62.7715854 523.006867,62.7715854 Z M416.265067,326.759122 L397.303389,345.784049 L299.466722,247.650915 L201.696611,345.637293 L182.734933,326.612366 L280.498389,228.625988 L182.734933,130.566232 L201.696611,111.547976 L299.460067,209.601061 L397.296733,111.547976 L416.258411,130.566232 L318.421744,228.625988 L416.265067,326.759122 Z" id="Shape"></path>
                    </g>
                </g>
            </g>
        </g>
    </g>
</svg>