<?xml version="1.0" encoding="UTF-8"?>
<svg width="74px" height="74px" viewBox="0 0 74 74" version="1.1" xmlns="http://www.w3.org/2000/svg" xmlns:xlink="http://www.w3.org/1999/xlink">
    <!-- Generator: Sketch 44 (41411) - http://www.bohemiancoding.com/sketch -->
    <title>ico-vendaval_MAPFRE</title>
    <desc>Created with Sketch.</desc>
    <defs></defs>
    <g id="1.-Estilos" stroke="none" stroke-width="1" fill="none" fill-rule="evenodd">
        <g id="1.3-Iconografia---Causas-MAPFRE" transform="translate(-453.000000, -153.000000)">
            <g id="ico-vendaval_MAPFRE" transform="translate(453.000000, 153.000000)">
                <circle id="bg_ico-copy-19" fill="#CC0000" cx="37" cy="37" r="37"></circle>
                <path d="M40.6167024,49.0891089 L27.2719486,49.0891089 C26.9464668,49.0891089 26.6616702,48.759901 26.6616702,48.3836634 C26.6616702,48.0074257 26.9464668,47.6782178 27.2719486,47.6782178 L40.6167024,47.6782178 C41.8779443,47.6782178 42.8950749,46.5024752 42.8950749,45.0445545 C42.8950749,43.5866337 41.8779443,42.4108911 40.6167024,42.4108911 C39.3554604,42.4108911 38.3383298,43.5866337 38.3383298,45.0445545 C38.3383298,45.4207921 38.0535332,45.75 37.7280514,45.75 C37.4025696,45.75 37.117773,45.4207921 37.117773,45.0445545 C37.117773,42.8341584 38.7044968,41 40.6167024,41 C42.5289079,41 44.1156317,42.8341584 44.1156317,45.0445545 C44.1156317,47.2549505 42.5289079,49.0891089 40.6167024,49.0891089 Z M23.6102784,51.9108911 L29.7130621,51.9108911 C30.0385439,51.9108911 30.3233405,52.240099 30.3233405,52.6163366 C30.3233405,52.9925743 30.0385439,53.3217822 29.7130621,53.3217822 L23.6102784,53.3217822 C23.2847966,53.3217822 23,52.9925743 23,52.6163366 C23,52.240099 23.2847966,51.9108911 23.6102784,51.9108911 Z M44.6852248,55.25 C45.0107066,55.25 45.2955032,55.5792079 45.2955032,55.9554455 C45.2955032,57.4133663 46.3126338,58.5891089 47.5738758,58.5891089 C48.8351178,58.5891089 49.8522484,57.4133663 49.8522484,55.9554455 C49.8522484,54.4975248 48.8351178,53.3217822 47.5738758,53.3217822 L32.1541756,53.3217822 C31.8286938,53.3217822 31.5438972,52.9925743 31.5438972,52.6163366 C31.5438972,52.240099 31.8286938,51.9108911 32.1541756,51.9108911 L47.5738758,51.9108911 C49.4860814,51.9108911 51.0728051,53.7450495 51.0728051,55.9554455 C51.0728051,58.1658416 49.4860814,60 47.5738758,60 C45.6616702,60 44.0749465,58.1658416 44.0749465,55.9554455 C44.0749465,55.5792079 44.359743,55.25 44.6852248,55.25 Z M27.2719486,56.1435644 L37.4025696,56.1435644 C37.7280514,56.1435644 38.012848,56.4727723 38.012848,56.8490099 C38.012848,57.2252475 37.7280514,57.5544554 37.4025696,57.5544554 L27.2719486,57.5544554 C26.9464668,57.5544554 26.6616702,57.2252475 26.6616702,56.8490099 C26.6616702,56.4727723 26.9464668,56.1435644 27.2719486,56.1435644 Z" id="Combined-Shape" fill="#FFFFFF" transform="translate(37.036403, 50.500000) scale(1, -1) translate(-37.036403, -50.500000) "></path>
                <path d="M40.2962963,14 C36.8159759,14 33.7797851,15.8950041 32.1637731,18.7118056 C31.5236793,18.4233131 30.8217534,18.2592593 30.0740741,18.2592593 C27.5068622,18.2592593 25.3932925,20.1588846 25.0295139,22.625 C21.6058864,23.2002769 19,26.1721111 19,29.7592593 C19,33.7581926 22.2417899,37 26.2407407,37 L47.537037,37 C51.5359878,37 54.7777778,33.7581926 54.7777778,29.7592593 C54.7777778,26.4953889 52.6214839,23.7288765 49.6533565,22.8246528 C49.3695186,17.9047015 45.2873802,14 40.2962963,14 Z" id="Path-Copy-11" fill="#FFFFFF"></path>
            </g>
        </g>
    </g>
</svg>