<?xml version="1.0" encoding="UTF-8"?>
<svg width="74px" height="74px" viewBox="0 0 74 74" version="1.1" xmlns="http://www.w3.org/2000/svg" xmlns:xlink="http://www.w3.org/1999/xlink">
    <!-- Generator: Sketch 44 (41411) - http://www.bohemiancoding.com/sketch -->
    <title>ico-roubo-furto_inativo</title>
    <desc>Created with Sketch.</desc>
    <defs>
        <polyline id="path-1" points="61.7314987 37.0965897 69.4913598 41.0310851 64.9620945 34.3069666 73.9489896 34.3444856 66.1496548 30.4783632 73.9587458 26.6123601 64.9849043 26.6474559 69.5163754 19.9130291 61.7687975 23.843536 61.8171306 16.0416881 57.3714817 22.8086369 52.9164739 16.0310851 52.9615367 23.8238751 55.2501697 27.2890416 55.2319426 23.5596055 57.3572385 26.8008372 59.4851655 23.5675054 59.4622194 27.2942019 63.1680354 25.4158881 60.9993515 28.6408742 65.2964852 28.6213548 61.5604813 30.4698302 65.2871505 32.312439 60.9885105 32.2985305 63.1588545 35.51717 59.4464531 33.6368205"></polyline>
    </defs>
    <g id="1.-Estilos" stroke="none" stroke-width="1" fill="none" fill-rule="evenodd">
        <g id="1.3.1-Iconografia---Causas-inativas" transform="translate(-731.000000, -320.000000)">
            <g id="ico-roubo-furto_inativo" transform="translate(731.000000, 320.000000)">
                <circle id="bg_ico-copy-15" fill="#999999" cx="37" cy="37" r="37"></circle>
                <g id="Shape-Copy-2" transform="translate(63.437610, 28.531085) rotate(-158.000000) translate(-63.437610, -28.531085) ">
                    <use fill="#FFFFFF" fill-rule="evenodd" xlink:href="#path-1"></use>
                    <path stroke="#999999" stroke-width="1" d="M61.6690392,34.2020922 L60.0462486,31.7954792 L63.1336994,31.8054688 L60.4326824,30.4699819 L63.1386078,29.1311619 L60.0577025,29.1451568 L61.6820609,26.729621 L58.9571823,28.1107411 L58.9747809,25.2525278 L57.3564701,27.7115107 L55.7401933,25.2465705 L55.7583703,28.9657492 L52.4624046,23.9754032 L52.4067172,14.345293 L57.3713694,21.8981839 L62.3275951,14.3540601 L62.2738679,23.0266398 L71.0041753,18.5975738 L65.9264799,26.1437696 L76.1126987,26.1039323 L67.276035,30.4786502 L76.1016061,34.8534768 L65.9043907,34.8109049 L70.9803567,42.3466518 L61.3872684,37.4826521 L57.9897671,32.3385228 L61.6690392,34.2020922 Z"></path>
                </g>
                <path d="M21.1624866,31.8860906 L23.4906205,31.8860906 C23.9471174,31.8860906 24.2210155,32.3882371 23.9927671,32.7534346 L23.5362702,33.5751289 L23.0341237,33.5751289 L21.527684,33.5751289 C21.390735,33.5751289 21.2537859,33.5751289 21.1168369,33.6207786 L20.6146903,32.7990843 C20.4320916,32.3882371 20.7059897,31.8860906 21.1624866,31.8860906 Z M21.7102828,46.4483403 L22.988474,46.4483403 C24.6775124,46.4483403 25.9557035,44.896251 25.6361557,43.2072126 L24.9970602,40.1943333 C24.8601111,39.5552377 24.2666652,39.1443906 23.5362702,39.1443906 L22.988474,39.1443906 L21.7102828,39.1443906 L21.1624866,39.1443906 C20.4320916,39.1443906 19.8386457,39.6008874 19.7016966,40.1943333 L19.062601,43.2072126 C18.6974035,44.8506013 19.9755947,46.4483403 21.7102828,46.4483403 Z M27.6447419,24.9929881 C30.1554746,24.9929881 32.1640608,22.9844019 32.1184111,20.5193189 C32.1184111,17.9629365 30.1098249,16 27.5534425,16 C25.0883595,16 23.0797734,18.0542358 23.125423,20.5649686 C23.125423,23.0300516 25.1796589,25.0386377 27.6447419,24.9929881 Z M19.5190979,36.4054094 C19.5190979,37.5466516 20.3407922,38.3683459 21.527684,38.3683459 L29.5620287,38.3683459 C30.383723,38.3683459 30.8402199,37.9574988 30.8402199,37.044505 L30.8402199,33.3012308 C30.8402199,33.2555811 30.8402199,33.2555811 30.8858696,33.0729824 C32.1640608,35.0359189 33.442252,36.907556 34.6747935,38.8248428 C34.5378444,38.9617918 34.4008954,39.0530912 34.2182966,39.1443906 C32.6205576,40.1486837 31.0228186,41.1529767 29.4250796,42.0659704 C28.649035,42.5224673 28.3294872,43.2072126 28.3294872,44.0745566 C28.3294872,47.9091302 28.3751369,51.7893535 28.3294872,55.6239271 C28.3294872,57.0390673 29.2424809,57.952061 30.7032708,57.9977107 C32.1184111,58.0433604 33.0314048,57.4042648 33.2596532,56.2630227 C33.3053029,56.0347742 33.3053029,55.8065258 33.3053029,55.5782774 C33.3053029,52.3371497 33.2596532,49.0503723 33.2596532,45.8092447 C33.2596532,45.5809962 33.2596532,45.3527478 33.5335513,45.1701491 C35.039991,44.302805 36.5920803,43.3898113 38.1441696,42.5224673 L40.0614564,40.970378 C40.3353545,40.7421296 43.3482337,38.1857472 41.3852973,34.9902692 C39.833208,32.4795365 38.2811186,30.0144535 36.7290293,27.5037208 C36.63773,27.321122 36.5007809,27.184173 36.4094815,26.9559245 C36.5920803,26.9102748 36.7290293,26.9102748 36.8203287,26.9102748 C38.6463161,26.9102748 40.5179532,26.9102748 42.3439407,26.8646252 C42.7091381,26.8646252 42.8460872,26.9559245 43.0286859,27.2298226 C43.6677815,28.2797654 44.3525268,29.3297082 44.9916224,30.3796509 C45.630718,31.4295937 46.8176098,31.7491415 47.7306036,31.1556956 C48.826196,30.6078994 49.0544444,29.4210076 48.4153488,28.3710648 C47.5023551,26.8646252 46.5893614,25.3581855 45.6763677,23.8517459 C45.3111702,23.2583 44.8546734,23.0300516 44.2155778,22.9844019 C41.2026985,22.9844019 38.1441696,22.9844019 35.1312903,23.0300516 C34.5834941,23.0757013 33.9443985,23.2583 33.4879017,23.5321981 C31.7988633,24.5821409 30.2011243,25.723383 28.5120859,26.8189755 C27.5990922,27.4124214 27.1425954,28.2341157 27.1425954,29.3297082 L27.1425954,33.7577277 C27.0969457,33.9403264 27.1425954,34.1229252 27.1425954,34.3511736 L26.5947991,34.3511736 L21.6189834,34.3511736 C20.2951425,34.4881226 19.5190979,35.2641673 19.5190979,36.4054094 Z M54.0302602,41.6094736 C53.3455149,41.1986264 52.6607696,41.2442761 51.9303746,41.5638239 C50.0587375,42.3398686 48.1871004,43.1159132 46.3154633,43.8919579 C46.1328646,43.9832572 45.9502658,44.0289069 45.7220174,44.1202063 C45.630718,43.9376076 45.5850683,43.7550088 45.493769,43.5724101 C44.7177243,41.700773 44.8090237,41.9290214 43.9873293,40.0573843 C43.9416797,40.0117346 43.6677815,39.3269893 43.3938834,38.7791931 C42.9373866,40.3312824 41.8874438,41.5181742 41.0200998,42.2485692 L39.833208,43.2072126 C40.6549023,45.1701491 41.4765966,47.1787352 42.298291,49.096022 C42.7547878,50.2372642 43.3938834,50.5111623 44.5807753,50.0090157 C47.6393042,48.7308245 50.6978331,47.4526333 53.756362,46.1744421 C54.6693558,45.900544 55.3084514,45.2614484 55.3084514,44.2571554 C55.354101,43.1615629 54.9889036,42.2485692 54.0302602,41.6094736 Z" id="Shape" fill="#FFFFFF"></path>
            </g>
        </g>
    </g>
</svg>