<?xml version="1.0" encoding="UTF-8"?>
<svg width="74px" height="74px" viewBox="0 0 74 74" version="1.1" xmlns="http://www.w3.org/2000/svg" xmlns:xlink="http://www.w3.org/1999/xlink">
    <!-- Generator: Sketch 46 (44423) - http://www.bohemiancoding.com/sketch -->
    <title>ico-danos-eletricos_BB</title>
    <desc>Created with Sketch.</desc>
    <defs>
        <polygon id="path-1" points="10.2397503 28.9816799 19.6630067 31.0761427 17.737619 35.5887936 14.6607131 42.8015686 21.9301354 35.8378558 29.0856441 28.9816799 19.6630067 26.8877742 24.6640622 15.1623483"></polygon>
    </defs>
    <g id="1.-Estilos" stroke="none" stroke-width="1" fill="none" fill-rule="evenodd">
        <g id="1.3-Iconografia---Causas-BB" transform="translate(-313.000000, -320.000000)">
            <g id="ico-danos-eletricos_BB" transform="translate(313.000000, 320.000000)">
                <circle id="bg_ico-copy-9" fill="#0060A8" cx="37" cy="37" r="37"></circle>
                <g id="Group-2-Copy" transform="translate(24.000000, 23.000000)">
                    <path d="M27.5904146,-4.54747351e-13 L3.47049241,-4.54747351e-13 C1.55686289,-4.54747351e-13 0,1.55686289 0,3.47049241 L0,27.5904146 C0,29.5040441 1.55686289,31.060907 3.47049241,31.060907 L27.5904146,31.060907 C29.5040441,31.060907 31.060907,29.5040441 31.060907,27.5904146 L31.060907,3.47049241 C31.060907,1.55686289 29.5040441,-4.54747351e-13 27.5904146,-4.54747351e-13 Z" id="Shape" fill="#FFFFFF"></path>
                    <path d="M22.5386936,9.15620973 C22.0601397,8.6652795 21.4240388,8.39483974 20.7472468,8.39483974 L10.3136602,8.39483974 C9.63686827,8.39483974 9.00076728,8.6652795 8.52221344,9.15620973 L4.10011168,13.6926762 C3.62155785,14.1836064 3.35793589,14.8361583 3.35793589,15.5304535 C3.35793589,16.2247487 3.62155785,16.8773006 4.10011168,17.3682308 L8.52221344,21.9046973 C9.00076728,22.3956275 9.63686827,22.6660673 10.3136602,22.6660673 L20.7472468,22.6660673 C21.4240388,22.6660673 22.0601397,22.3956275 22.5386936,21.9046973 L26.9607953,17.3682308 C27.4393492,16.8773006 27.7029711,16.2247487 27.7029711,15.5304535 C27.7029711,14.8361583 27.4393492,14.1836064 26.9607953,13.6926762 L22.5386936,9.15620973 Z M24.8954041,16.5758436 L21.0664917,20.5037797 C20.7939659,20.7827357 20.4323046,20.9365786 20.047456,20.9365786 L11.0134511,20.9365786 C10.6286024,20.9365786 10.2669411,20.7827357 9.9944153,20.5037797 L6.16550288,16.5758436 C5.89357933,16.2965787 5.74361485,15.9252551 5.74361485,15.5304535 C5.74361485,15.1356519 5.89357933,14.7643284 6.16550288,14.4850634 L9.9944153,10.5571274 C10.2669411,10.2781713 10.6286024,10.1243284 11.0134511,10.1243284 L20.047456,10.1243284 C20.4323046,10.1243284 20.7939659,10.2781713 21.0664917,10.5571274 L24.8954041,14.4850634 C25.1673277,14.7643284 25.3172922,15.1356519 25.3172922,15.5304535 C25.3172922,15.9252551 25.1673277,16.2965787 24.8954041,16.5758436 Z" id="Shape" fill="#0060A8"></path>
                    <path d="M10.0738077,14.2712276 C9.14802476,14.2712276 8.39483974,15.0244126 8.39483974,15.9501955 C8.39483974,16.8759784 9.14802476,17.6291634 10.0738077,17.6291634 C10.9995906,17.6291634 11.7527756,16.8759784 11.7527756,15.9501955 C11.7527756,15.0244126 10.9995906,14.2712276 10.0738077,14.2712276 Z" id="Shape" fill="#0060A8"></path>
                    <path d="M15.9501955,15.9501955 C15.0244126,15.9501955 14.2712276,16.7033805 14.2712276,17.6291634 C14.2712276,18.5549464 15.0244126,19.3081314 15.9501955,19.3081314 C16.8759784,19.3081314 17.6291634,18.5549464 17.6291634,17.6291634 C17.6291634,16.7033805 16.8759784,15.9501955 15.9501955,15.9501955 Z" id="Shape" fill="#0060A8"></path>
                    <path d="M21.8265833,14.2712276 C20.9008004,14.2712276 20.1476154,15.0244126 20.1476154,15.9501955 C20.1476154,16.8759784 20.9008004,17.6291634 21.8265833,17.6291634 C22.7523662,17.6291634 23.5055513,16.8759784 23.5055513,15.9501955 C23.5055513,15.0244126 22.7523662,14.2712276 21.8265833,14.2712276 Z" id="Shape" fill="#0060A8"></path>
                </g>
                <g id="Page-1-Copy-2" transform="translate(19.662697, 28.981958) rotate(1.000000) translate(-19.662697, -28.981958) ">
                    <use fill="#FFFFFF" fill-rule="evenodd" xlink:href="#path-1"></use>
                    <path stroke="#0060A8" stroke-width="3" d="M21.7512021,25.8152243 L32.1473608,28.1254666 L30.1234085,30.0647519 L22.9677746,36.9210478 L10.4045175,48.9559676 L13.2810082,42.2129988 L16.3579506,35.0001381 L17.5746134,32.1485701 L7.17794957,29.8377526 L28.9198049,9.00778792 L21.7512021,25.8152243 Z"></path>
                </g>
            </g>
        </g>
    </g>
</svg>