<?xml version="1.0" encoding="UTF-8"?>
<svg width="74px" height="74px" viewBox="0 0 74 74" version="1.1" xmlns="http://www.w3.org/2000/svg" xmlns:xlink="http://www.w3.org/1999/xlink">
    <!-- Generator: Sketch 44 (41411) - http://www.bohemiancoding.com/sketch -->
    <title>ico-incendio-explosao_MAPFRE</title>
    <desc>Created with Sketch.</desc>
    <defs>
        <polyline id="path-1" points="46.5884009 36.5921702 55.5474339 41.3258939 50.3182376 33.2358809 60.6939246 33.2810212 51.6893177 28.6295594 60.7051884 23.978241 50.3445723 24.020466 55.5763153 15.9180507 46.6314637 20.6469757 46.6872659 11.2603102 41.5546076 19.4018538 36.4111441 11.2475533 36.4631707 20.623321 39.1054782 24.7923794 39.0844343 20.3053694 41.5381634 24.2050042 43.99493 20.314874 43.968438 24.7985878 48.2469331 22.5387254 45.7431111 26.4188146 50.7043034 26.3953301 46.3909553 28.619293 50.6935262 30.8361976 45.7305949 30.8194639 48.2363334 34.6919172 43.9502352 32.4296056"></polyline>
    </defs>
    <g id="1.-Estilos" stroke="none" stroke-width="1" fill="none" fill-rule="evenodd">
        <g id="1.3-Iconografia---Causas-MAPFRE" transform="translate(-37.000000, -320.000000)">
            <g id="ico-incendio-explosao_MAPFRE" transform="translate(37.000000, 320.000000)">
                <circle id="bg_ico-copy" fill="#CC0000" cx="37" cy="37" r="37"></circle>
                <g id="Shape" transform="translate(48.558166, 26.286724) rotate(-14.000000) translate(-48.558166, -26.286724) ">
                    <use fill="#FFFFFF" fill-rule="evenodd" xlink:href="#path-1"></use>
                    <path stroke="#D0011B" stroke-width="1" d="M46.7762909,33.3558937 L44.8095045,30.3163554 L48.6178977,30.3291963 L45.2996076,28.6194435 L48.6243977,26.9051812 L44.82258,26.9231777 L46.7905944,23.8734116 L43.4635125,25.6307462 L43.4846143,22.0593106 L41.5373856,25.1426206 L39.5926309,22.0518826 L39.6136243,26.5281453 L35.9639753,20.7696935 L35.9014519,9.50229814 L41.554494,18.46447 L47.1976613,9.51314488 L47.1364218,19.8144422 L57.0344361,14.5816033 L51.2650226,23.5167105 L62.7813204,23.4697755 L52.7793154,28.6298439 L62.7687884,33.7900528 L51.239377,33.7398931 L57.0067028,42.6624383 L46.2372549,36.9721378 L42.5222441,31.1104996 L46.7762909,33.3558937 Z"></path>
                </g>
                <path d="M19.2708226,44.9366099 C20.0389768,41.2242663 22.8718361,38.2017362 23.1116736,34.492523 C24.1855643,36.445898 24.3125465,37.853699 24.4332679,39.8948058 C27.8462161,35.7137837 31.3860662,30.1170143 30.6195174,25 C30.6195174,25 37.0910355,27.0333209 39.7074953,36.9584824 C41.2548804,35.5820658 41.1090355,32.7476813 40.3440117,31.073314 C42.6406883,32.7476813 55.8266922,47.6095777 38.2730457,57.541 C41.5730584,51.1149933 39.1243563,42.445527 33.3943438,38.4399684 C33.7768156,40.1613721 33.2986657,44.657522 30.7636768,47.479465 C31.3375048,44.5619241 29.9030552,42.696361 29.9030552,42.696361 C29.9030552,42.696361 29.4326912,45.3379444 27.6062984,48.0061764 C25.9398775,50.442437 24.7860409,53.0291178 26.9541299,57.541 C20.0499733,53.6515073 18.2329717,49.9689426 19.2708226,44.9366099 Z" id="Shape" fill="#FFFFFF"></path>
            </g>
        </g>
    </g>
</svg>