<?xml version="1.0" encoding="UTF-8"?>
<svg width="62px" height="73px" viewBox="0 0 62 73" version="1.1" xmlns="http://www.w3.org/2000/svg" xmlns:xlink="http://www.w3.org/1999/xlink">
    <!-- Generator: Sketch 44 (41411) - http://www.bohemiancoding.com/sketch -->
    <title>ico_produto_residencial_cinza</title>
    <desc>Created with Sketch.</desc>
    <defs></defs>
    <g id="Fechar-Comunicado" stroke="none" stroke-width="1" fill="none" fill-rule="evenodd">
        <g id="0" transform="translate(-152.000000, -774.000000)">
            <g id="componentes/causas-copy" transform="translate(122.000000, 751.000000)">
                <g id="ico_produto_residencial_cinza" transform="translate(20.000000, 18.000000)">
                    <rect id="Rectangle-2" x="0" y="0" width="82" height="84"></rect>
                    <path d="M28.770597,48.2683814 C26.5472606,48.2683814 24.4329298,48.5254073 22.5261233,49.0335612 C20.9148717,49.462869 19.5257631,49.8679642 18,50.246053 L18,41.4925825 L40.6941765,17 L63,41.3457549 L63,55.8093602 C62.4921538,56.1744115 61.6232856,56.5999942 60.8996525,57.0864189 C58.8971878,58.4311486 56.5829602,59.4179667 54.0593017,60 C53.9947881,57.9751449 52.9047303,56.1284696 50.922287,54.7216563 C49.8770392,53.9797579 48.7634642,53.3902745 47.2377011,52.8436289 L47.2377011,43.5491001 L34.2710985,43.5491001 L34.2710985,48.756979 C32.4910945,48.4369383 30.5420204,48.2683814 28.770597,48.2683814 Z M41.1829585,11.3217335 L15.8053347,39 L10,39 L19.0024434,29.0893949 L19.0024434,13.2766321 L28.3641622,13.2766321 L28.3641622,18.8787806 L41.1323563,5 L72,39 L66.2762614,39 L41.1829585,11.3217335 Z M68.9246176,57.8932838 C72.1220604,57.8932838 72.7570849,61.130239 71.1509758,62.7513488 C67.8057798,66.1261062 55.4815884,76.0137921 48.3825172,77.7024095 C47.5104587,77.9092674 46.4604677,78 45.2903879,78 C36.9262975,78 22.1534892,73.3611796 18.5027269,73.3611796 C16.5134026,73.3611796 13.0185671,74.4084754 10,75.5022213 L10,56.5555198 C11.5092835,56.0739867 16.8045079,54.5909887 24.1343256,52.6230512 C25.7479796,52.1898262 27.4867522,52 29.2478449,52 C33.4695006,52 37.9027263,53.0934362 41.5349408,54.5426805 C46.4975632,56.5205274 51.2423281,57.6068413 50.0181769,60.9828373 C49.7541073,61.7133431 48.6217517,61.9576708 47.1432762,61.9576708 C44.1397989,61.9576708 39.7065732,60.9478448 38.2280977,60.9478448 C37.4924753,60.9478448 37.4877597,61.1980562 38.7574944,61.9480711 C41.3189696,63.4614166 44.9452112,64.3130025 48.8748184,64.3130025 C53.7082353,64.3130025 58.9971722,63.0247853 63.3184827,60.0984267 C65.6825344,58.4980646 67.5429677,57.8932838 68.9246176,57.8932838 Z" id="Combined-Shape" fill="#9B9B9B"></path>
                </g>
            </g>
        </g>
    </g>
</svg>