<?xml version="1.0" encoding="UTF-8"?>
<svg width="60px" height="72px" viewBox="0 0 60 72" version="1.1" xmlns="http://www.w3.org/2000/svg" xmlns:xlink="http://www.w3.org/1999/xlink">
    <!-- Generator: Sketch 44 (41411) - http://www.bohemiancoding.com/sketch -->
    <title>ico_produto_residencial_vermelho</title>
    <desc>Created with Sketch.</desc>
    <defs></defs>
    <g id="1.-Preenchimento-de-sinistro" stroke="none" stroke-width="1" fill="none" fill-rule="evenodd">
        <g id="1.1-Preenchimento_Corretor_aberto_MAPFRE-(Web)" transform="translate(-136.000000, -138.000000)">
            <g id="barra_identificacao" transform="translate(124.000000, 132.000000)">
                <g id="ico_produto_residencial_vermelho">
                    <rect id="space" x="0" y="0" width="84" height="84"></rect>
                    <path d="M30.3421896,48.8951486 C28.2138129,48.8951486 26.1897863,49.1484267 24.3644204,49.6491709 C22.8219862,50.0722187 21.4922071,50.4714069 20.0316101,50.8439826 L20.0316101,42.2181515 L41.7565071,18.0827096 L63.1096378,42.0734649 L63.1096378,56.326168 C62.623482,56.6858963 61.7917236,57.1052734 61.0989972,57.5846052 C59.1820588,58.9097266 56.966673,59.8821553 54.5508011,60.4557017 C54.4890429,58.4603722 53.4455421,56.6406244 51.54777,55.2543246 C50.5471652,54.5232442 49.4811515,53.9423565 48.0205545,53.4036817 L48.0205545,44.244682 L35.6077619,44.244682 L35.6077619,49.3766217 C33.9037828,49.0612477 32.0379546,48.8951486 30.3421896,48.8951486 Z M41.9962385,12.1943005 L17.5844029,39.3146305 L12,39.3146305 L20.6598402,29.6038027 L20.6598402,14.1097923 L29.6652831,14.1097923 L29.6652831,19.5990132 L41.947562,6 L71.6404855,39.3146305 L66.1345734,39.3146305 L41.9962385,12.1943005 Z M63.5985316,60.316725 C65.8863236,58.7358784 67.6867429,58.1384725 69.0238234,58.1384725 C72.1181229,58.1384725 72.7326628,61.3359551 71.1783637,62.9372965 C67.9410772,66.2709008 56.0144404,76.0380127 49.1443715,77.7060384 C48.300444,77.9103738 47.2843236,78 46.1519882,78 C38.0577072,78 23.7614412,73.4177471 20.2284454,73.4177471 C18.3032928,73.4177471 14.921194,74.4522717 12,75.5326801 L12,56.8170217 C13.460597,56.3413606 18.5850076,54.8764468 25.6783797,52.932507 C27.2399802,52.504565 28.9226634,52.3170536 30.6269467,52.3170536 C34.7124199,52.3170536 39.0026383,53.3971561 42.5176847,54.8287277 C47.3202224,56.782456 51.9119305,57.855523 50.727268,61.1903508 C50.4717167,61.9119486 49.3758887,62.1532969 47.945106,62.1532969 C45.038515,62.1532969 40.7482966,61.1557851 39.3175139,61.1557851 C38.6056212,61.1557851 38.6010578,61.4029453 39.8298333,62.1438143 C42.3086803,63.6387055 45.8179463,64.4799068 49.620792,64.4799068 C54.2982922,64.4799068 59.4166183,63.2073986 63.5985316,60.316725 Z" id="Combined-Shape" fill="#CC0000"></path>
                </g>
            </g>
        </g>
    </g>
</svg>