<?xml version="1.0" encoding="UTF-8"?>
<svg width="75px" height="93px" viewBox="0 0 75 93" version="1.1" xmlns="http://www.w3.org/2000/svg" xmlns:xlink="http://www.w3.org/1999/xlink">
    <!-- Generator: Sketch 45.2 (43514) - http://www.bohemiancoding.com/sketch -->
    <title>ico/dialog/nao_permitido</title>
    <desc>Created with Sketch.</desc>
    <defs></defs>
    <g id="1.-Estilos" stroke="none" stroke-width="1" fill="none" fill-rule="evenodd">
        <g id="1.3-Iconografia" transform="translate(-72.000000, -527.000000)">
            <g id="ico/dialog/nao_permitido" transform="translate(34.000000, 498.000000)">
                <rect id="space" fill="#D8D8D8" opacity="0" x="0" y="0" width="150" height="150"></rect>
                <g id="Group-2" transform="translate(38.000000, 29.000000)" fill-rule="nonzero" fill="#999999">
                    <path d="M75,0 L0,0 L0,92.578125 L75,92.578125 L75,0 Z M71.5909091,89.1493056 L3.40909091,89.1493056 L3.40909091,3.42881944 L71.5909091,3.42881944 L71.5909091,89.1493056 Z" id="Shape"></path>
                    <rect id="Rectangle-path" x="10.2272727" y="13.7152778" width="54.5454545" height="3.42881944"></rect>
                    <rect id="Rectangle-path" x="10.2272727" y="24.0017361" width="17.0454545" height="3.42881944"></rect>
                    <rect id="Rectangle-path" x="30.6818182" y="24.0017361" width="34.0909091" height="3.42881944"></rect>
                    <rect id="Rectangle-path" x="10.2272727" y="34.2881944" width="44.3181818" height="3.42881944"></rect>
                    <polygon id="Shape" points="61.3636364 37.7170139 64.7727273 34.2881944 57.9545455 34.2881944"></polygon>
                    <rect id="Rectangle-path" x="10.2272727" y="44.5746528" width="44.3181818" height="3.42881944"></rect>
                    <polygon id="Shape" points="61.3636364 48.0034722 64.7727273 44.5746528 57.9545455 44.5746528"></polygon>
                    <rect id="Rectangle-path" x="40.9090909" y="72.0052083" width="23.8636364" height="10.2864583"></rect>
                    <rect id="Rectangle-path" x="23.8636364" y="54.8611111" width="10.2272727" height="3.42881944"></rect>
                    <path d="M15.3409091,61.71875 C18.1636364,61.71875 20.4545455,59.4145833 20.4545455,56.5755208 C20.4545455,53.7364583 18.1636364,51.4322917 15.3409091,51.4322917 C12.5181818,51.4322917 10.2272727,53.7364583 10.2272727,56.5755208 C10.2272727,59.4145833 12.5181818,61.71875 15.3409091,61.71875 Z M15.3409091,54.8611111 C16.2818182,54.8611111 17.0454545,55.6291667 17.0454545,56.5755208 C17.0454545,57.521875 16.2818182,58.2899306 15.3409091,58.2899306 C14.4,58.2899306 13.6363636,57.521875 13.6363636,56.5755208 C13.6363636,55.6291667 14.4,54.8611111 15.3409091,54.8611111 Z" id="Shape"></path>
                    <rect id="Rectangle-path" x="54.5454545" y="54.8611111" width="10.2272727" height="3.42881944"></rect>
                    <path d="M51.1363636,56.5755208 C51.1363636,53.7364583 48.8454545,51.4322917 46.0227273,51.4322917 C43.2,51.4322917 40.9090909,53.7364583 40.9090909,56.5755208 C40.9090909,59.4145833 43.2,61.71875 46.0227273,61.71875 C48.8454545,61.71875 51.1363636,59.4145833 51.1363636,56.5755208 Z M44.3181818,56.5755208 C44.3181818,55.6291667 45.0818182,54.8611111 46.0227273,54.8611111 C46.9636364,54.8611111 47.7272727,55.6291667 47.7272727,56.5755208 C47.7272727,57.521875 46.9636364,58.2899306 46.0227273,58.2899306 C45.0818182,58.2899306 44.3181818,57.521875 44.3181818,56.5755208 Z" id="Shape"></path>
                </g>
            </g>
        </g>
    </g>
</svg>