<?xml version="1.0" encoding="UTF-8"?>
<svg width="17px" height="17px" viewBox="0 0 17 17" version="1.1" xmlns="http://www.w3.org/2000/svg" xmlns:xlink="http://www.w3.org/1999/xlink">
    <!-- Generator: Sketch 44 (41411) - http://www.bohemiancoding.com/sketch -->
    <title>ico_calendario_MAPFRE</title>
    <desc>Created with Sketch.</desc>
    <defs></defs>
    <g id="1.-Preenchimento-de-sinistro" stroke="none" stroke-width="1" fill="none" fill-rule="evenodd">
        <g id="1.1-Preenchimento_Segurado_aberto_MAPFRE-(Web)" transform="translate(-533.000000, -497.000000)" fill="#EB2312">
            <g id="form_input_data" transform="translate(317.000000, 483.000000)">
                <g id="ico_calendario" transform="translate(216.000000, 14.000000)">
                    <path d="M13.1594037,1.77193034 C13.1594037,1.82372675 13.1756497,1.86904794 13.2081422,1.90789525 C13.2406347,1.94674256 13.2828744,1.96616592 13.3348624,1.96616592 L16.8050459,1.96616592 C16.8570339,1.96616592 16.9025227,1.98235206 16.9415138,2.01472482 C16.9805048,2.04709758 17,2.08918153 17,2.14097795 L17,16.825188 C17,16.8769844 16.9805048,16.9190683 16.9415138,16.9514411 C16.9025227,16.9838139 16.8570339,17 16.8050459,17 L0.194954128,17 C0.142966101,17 0.0974772592,16.9838139 0.0584862385,16.9514411 C0.0194952179,16.9190683 0,16.8769844 0,16.825188 L0,2.14097795 C0,2.08918153 0.0194952179,2.04709758 0.0584862385,2.01472482 C0.0974772592,1.98235206 0.142966101,1.96616592 0.194954128,1.96616592 L3.39220183,1.96616592 C3.44418986,1.96616592 3.4896787,1.94674256 3.52866972,1.90789525 C3.56766075,1.86904794 3.58715596,1.83020121 3.58715596,1.7913539 L3.58715596,1.16980003 C3.57415896,0.794276031 3.69762867,0.496451116 3.95756881,0.276316355 C4.26949697,0.00438518017 4.6269093,-0.0668338212 5.02981651,0.0626572145 C5.45871774,0.218046457 5.69266036,0.496448008 5.73165138,0.897870219 C5.74464838,1.05325946 5.74464838,1.34460992 5.73165138,1.77193034 C5.73165138,1.82372675 5.75114659,1.86581071 5.79013761,1.89818347 C5.82912864,1.93055623 5.87461748,1.94674236 5.9266055,1.94674236 L7.09633028,1.94674236 C7.1483183,1.94674236 7.19380714,1.927319 7.23279817,1.88847169 C7.27178919,1.84962438 7.2912844,1.81077765 7.2912844,1.77193034 L7.2912844,1.05325868 C7.2912844,0.82017482 7.36601607,0.612992271 7.51548165,0.431704821 C7.66494723,0.250417371 7.853401,0.127402732 8.08084862,0.0626572145 C8.30829624,-0.00208830332 8.53249125,0.00438615135 8.75344037,0.0820807728 C8.97438948,0.159775394 9.14659724,0.292501715 9.27006881,0.480263717 C9.39354037,0.668025719 9.45527523,0.88491995 9.45527523,1.13095292 L9.45527523,1.77193034 C9.45527523,1.82372675 9.47477045,1.86581071 9.51376147,1.89818347 C9.55275249,1.93055623 9.59824133,1.94674236 9.65022936,1.94674236 L10.8004587,1.94674236 C10.8524467,1.94674236 10.8946864,1.93055623 10.9271789,1.89818347 C10.9596714,1.86581071 10.9759174,1.82372675 10.9759174,1.77193034 L10.9759174,1.13095292 C10.9759174,0.859021743 11.0506491,0.629178602 11.2001147,0.4414166 C11.3495803,0.253654598 11.5347848,0.127402732 11.7557339,0.0626572145 C11.9766831,-0.00208830332 12.1976289,0.00114892402 12.418578,0.0723689937 C12.6395271,0.143589063 12.8149841,0.266603702 12.9449541,0.4414166 C13.0749242,0.616229498 13.1464067,0.82017482 13.1594037,1.05325868 L13.1594037,1.77193034 Z M5.10779817,16.2813283 L5.08830275,16.2813283 C5.14029078,16.2813283 5.18577962,16.2651422 5.22477064,16.2327694 C5.26376166,16.2003967 5.28325688,16.1583127 5.28325688,16.1065163 L5.28325688,13.1929826 C5.28325688,13.1411862 5.26376166,13.0991022 5.22477064,13.0667295 C5.18577962,13.0343567 5.14678919,13.0181706 5.10779817,13.0181706 L0.935779817,13.0181706 C0.883791789,13.0181706 0.838302947,13.0343567 0.799311927,13.0667295 C0.760320906,13.0991022 0.740825688,13.1411862 0.740825688,13.1929826 L0.740825688,16.1065163 C0.740825688,16.1583127 0.760320906,16.2003967 0.799311927,16.2327694 C0.838302947,16.2651422 0.883791789,16.2813283 0.935779817,16.2813283 L5.10779817,16.2813283 Z M5.10779817,12.2606518 C5.15978619,12.2606518 5.20202583,12.2444657 5.23451835,12.2120929 C5.26701087,12.1797201 5.28325688,12.1376362 5.28325688,12.0858398 L5.28325688,9.01691756 C5.28325688,8.96512115 5.26701087,8.92303719 5.23451835,8.89066443 C5.20202583,8.85829168 5.15978619,8.84210554 5.10779817,8.84210554 L0.935779817,8.84210554 C0.883791789,8.84210554 0.838302947,8.85829168 0.799311927,8.89066443 C0.760320906,8.92303719 0.740825688,8.96512115 0.740825688,9.01691756 L0.740825688,12.0858398 C0.740825688,12.1376362 0.760320906,12.1797201 0.799311927,12.2120929 C0.838302947,12.2444657 0.883791789,12.2606518 0.935779817,12.2606518 L5.10779817,12.2606518 Z M5.10779817,8.08458677 C5.15978619,8.08458677 5.20202583,8.06840063 5.23451835,8.03602787 C5.26701087,8.00365511 5.28325688,7.96157116 5.28325688,7.90977474 L5.28325688,4.95739389 C5.28325688,4.90559748 5.26701087,4.86351352 5.23451835,4.83114076 C5.20202583,4.798768 5.15978619,4.78258187 5.10779817,4.78258187 L0.935779817,4.78258187 C0.883791789,4.78258187 0.838302947,4.80200523 0.799311927,4.84085254 C0.760320906,4.87969985 0.740825688,4.91854658 0.740825688,4.95739389 L0.740825688,7.90977474 C0.740825688,7.96157116 0.760320906,8.00365511 0.799311927,8.03602787 C0.838302947,8.06840063 0.883791789,8.08458677 0.935779817,8.08458677 L5.10779817,8.08458677 Z M10.6639908,16.2813283 L10.6444954,16.2813283 C10.6964834,16.2813283 10.7419723,16.2651422 10.7809633,16.2327694 C10.8199543,16.2003967 10.8394495,16.1583127 10.8394495,16.1065163 L10.8394495,13.2124061 C10.8394495,13.1606097 10.8199543,13.1152885 10.7809633,13.0764412 C10.7419723,13.0375939 10.7029818,13.0181706 10.6639908,13.0181706 L6.23853211,13.0181706 C6.18654408,13.0181706 6.14430444,13.0375939 6.11181193,13.0764412 C6.07931941,13.1152885 6.06307339,13.1606097 6.06307339,13.2124061 L6.06307339,16.1065163 C6.06307339,16.1583127 6.07931941,16.2003967 6.11181193,16.2327694 C6.14430444,16.2651422 6.18654408,16.2813283 6.23853211,16.2813283 L10.6639908,16.2813283 Z M10.858945,12.163534 L10.858945,9.03634112 C10.858945,8.9456974 10.8426989,8.8874273 10.8102064,8.8615291 C10.7777139,8.83563089 10.715979,8.82268198 10.625,8.82268198 L6.16055046,8.82268198 C6.13455644,8.83563108 6.11181202,8.85829168 6.09231651,8.89066443 C6.072821,8.92303719 6.06307339,8.96512115 6.06307339,9.01691756 L6.06307339,12.0858398 C6.06307339,12.1376362 6.07931941,12.1829574 6.11181193,12.2218047 C6.14430444,12.260652 6.18654408,12.2800753 6.23853211,12.2800753 L10.6639908,12.2800753 C10.7159789,12.2800753 10.7582185,12.2703637 10.790711,12.25094 C10.8232035,12.2315164 10.8459479,12.2023813 10.858945,12.163534 Z M10.858945,7.98746898 L10.858945,4.99624101 C10.858945,4.90559728 10.8426989,4.84408996 10.8102064,4.8117172 C10.7777139,4.77934445 10.715979,4.76315831 10.625,4.76315831 L6.16055046,4.76315831 C6.13455644,4.76315831 6.11181202,4.78258167 6.09231651,4.82142898 C6.072821,4.86027629 6.06307339,4.90559748 6.06307339,4.95739389 L6.06307339,7.90977474 C6.06307339,7.96157116 6.07931941,8.00365511 6.11181193,8.03602787 C6.14430444,8.06840063 6.18654408,8.08458677 6.23853211,8.08458677 L10.6639908,8.08458677 C10.7159789,8.08458677 10.7614677,8.07487509 10.8004587,8.05545143 C10.8394497,8.03602778 10.858945,8.01336718 10.858945,7.98746898 Z M11.7947248,8.84210554 C11.7427367,8.84210554 11.6972479,8.85829168 11.6582569,8.89066443 C11.6192659,8.92303719 11.5997706,8.96512115 11.5997706,9.01691756 L11.5997706,12.0858398 C11.5997706,12.1376362 11.6192659,12.1829574 11.6582569,12.2218047 C11.6972479,12.260652 11.7427367,12.2800753 11.7947248,12.2800753 L16.0642202,12.2800753 C16.1162082,12.2800753 16.1584478,12.260652 16.1909404,12.2218047 C16.2234329,12.1829574 16.2396789,12.1376362 16.2396789,12.0858398 L16.2396789,9.01691756 C16.2396789,8.96512115 16.2234329,8.92303719 16.1909404,8.89066443 C16.1584478,8.85829168 16.1162082,8.84210554 16.0642202,8.84210554 L11.7947248,8.84210554 Z M16.0642202,16.2813283 C16.1162082,16.2813283 16.1584478,16.2651422 16.1909404,16.2327694 C16.2234329,16.2003967 16.2396789,16.1583127 16.2396789,16.1065163 L16.2396789,13.2124061 C16.2396789,13.1606097 16.2234329,13.1152885 16.1909404,13.0764412 C16.1584478,13.0375939 16.1162082,13.0181706 16.0642202,13.0181706 L11.7947248,13.0181706 C11.7427367,13.0181706 11.6972479,13.0375939 11.6582569,13.0764412 C11.6192659,13.1152885 11.5997706,13.1606097 11.5997706,13.2124061 L11.5997706,16.1065163 C11.5997706,16.1583127 11.6192659,16.2003967 11.6582569,16.2327694 C11.6972479,16.2651422 11.7427367,16.2813283 11.7947248,16.2813283 L16.0642202,16.2813283 Z M16.0642202,8.08458677 C16.1162082,8.08458677 16.1584478,8.06840063 16.1909404,8.03602787 C16.2234329,8.00365511 16.2396789,7.96157116 16.2396789,7.90977474 L16.2396789,4.95739389 C16.2396789,4.91854658 16.2234329,4.87969985 16.1909404,4.84085254 C16.1584478,4.80200523 16.1162082,4.78258187 16.0642202,4.78258187 L11.7947248,4.78258187 C11.7427367,4.78258187 11.6972479,4.80200523 11.6582569,4.84085254 C11.6192659,4.87969985 11.5997706,4.91854658 11.5997706,4.95739389 L11.5997706,7.90977474 C11.5997706,7.96157116 11.6192659,8.00365511 11.6582569,8.03602787 C11.6972479,8.06840063 11.7427367,8.08458677 11.7947248,8.08458677 L16.0642202,8.08458677 Z" id="ico_calendario_MAPFRE"></path>
                </g>
            </g>
        </g>
    </g>
</svg>