<?xml version="1.0" encoding="UTF-8"?>
<svg width="58px" height="58px" viewBox="0 0 58 58" version="1.1" xmlns="http://www.w3.org/2000/svg" xmlns:xlink="http://www.w3.org/1999/xlink">
    <!-- Generator: Sketch 46.2 (44496) - http://www.bohemiancoding.com/sketch -->
    <title>Group</title>
    <desc>Created with Sketch.</desc>
    <defs></defs>
    <g id="Page-1" stroke="none" stroke-width="1" fill="none" fill-rule="evenodd">
        <g id="7.1-Concluído" transform="translate(-159.000000, -924.000000)">
            <g id="Group" transform="translate(159.000000, 924.000000)">
                <circle id="Oval-17-Copy-3" fill="#0060A8" cx="29" cy="29" r="29"></circle>
                <path d="M40.0125027,33.8000003 C41.3250092,35.1125069 41.3250092,36.5562424 40.0125027,38.1312503 C39.4875,38.7437534 38.9734427,39.2031238 38.4703151,39.5093754 C37.9671876,39.8156269 37.5515668,39.9906252 37.2234401,40.0343754 C36.8953135,40.0781256 36.4250057,40.1000004 35.8125026,40.1000004 C34.106244,40.1000004 32.0718893,39.2250091 29.7093775,37.4750003 C27.8281181,36.1187435 26.1218851,34.6531332 24.5906274,33.0781253 C22.6218675,31.021865 20.8937598,28.6812633 19.4062523,26.0562501 C18.0937457,23.6062379 17.6999997,21.593758 18.2250023,20.01875 C18.4875036,19.1874959 19.0999975,18.4656281 20.0625023,17.853125 L20.1281273,17.7875 C20.9156313,17.2624974 21.6156243,17 22.2281274,17 C23.0593815,17 23.8031241,17.3937461 24.4593774,18.18125 L24.5250024,18.246875 C25.5312575,19.5593816 26.2312505,20.5874963 26.6250024,21.3312501 C27.2812557,22.6875069 27.2593809,23.8468703 26.5593774,24.8093751 C26.0343748,25.5093786 25.7718774,26.0124986 25.7718774,26.3187502 C25.7718774,26.4500008 26.0562496,26.8437469 26.6250024,27.5000002 L26.6906274,27.5656252 C27.7406327,28.7468811 28.309377,29.3812498 28.3968775,29.4687502 C28.4406277,29.4687502 28.4843773,29.490625 28.5281275,29.5343752 L28.7906275,29.7968752 C29.6656319,30.6718796 30.3000005,31.2843735 30.6937525,31.6343752 L30.7593775,31.7000002 C31.1531295,32.050002 31.4156269,32.2250003 31.5468775,32.2250003 C31.7656286,32.2250003 32.3999973,31.8968785 33.4500026,31.2406252 C33.7562541,31.0218741 34.1281254,30.9125002 34.5656276,30.9125002 C35.3531315,30.9125002 36.3046845,31.240622 37.4203151,31.8968752 C38.5359457,32.5531285 39.3999996,33.1874972 40.0125027,33.8000003 Z" id="ion-ios-telephone---Ionicons" fill="#FFFFFF"></path>
            </g>
        </g>
    </g>
</svg>
