<?xml version="1.0" encoding="UTF-8"?>
<svg width="58px" height="59px" viewBox="0 0 58 59" version="1.1" xmlns="http://www.w3.org/2000/svg" xmlns:xlink="http://www.w3.org/1999/xlink">
    <!-- Generator: Sketch 46.2 (44496) - http://www.bohemiancoding.com/sketch -->
    <title>ico-page</title>
    <desc>Created with Sketch.</desc>
    <defs></defs>
    <g id="Page-1" stroke="none" stroke-width="1" fill="none" fill-rule="evenodd">
        <g id="7.1-Concluído" transform="translate(-160.000000, -727.000000)">
            <g id="ico-page" transform="translate(160.000000, 727.000000)">
                <circle id="Oval-17-Copy" fill="#D9240C" cx="29" cy="29.5" r="29"></circle>
                <path d="M32.25,25.25 L32.25,18.375 L39.125,25.25 L32.25,25.25 Z M26,31.5 L36,31.5 L36,29 L26,29 L26,31.5 Z M26,36.5 L36,36.5 L36,34 L26,34 L26,36.5 Z M33.5,16.5 L23.5,16.5 C22.125,16.5 21.0125,17.625 21.0125,19 L21,39 C21,40.375 22.1125,41.5 23.4875,41.5 L38.5,41.5 C39.875,41.5 41,40.375 41,39 L41,24 L33.5,16.5 Z" id="Page-1" fill="#FFFFFF"></path>
            </g>
        </g>
    </g>
</svg>