<?xml version="1.0" encoding="UTF-8"?>
<svg width="58px" height="58px" viewBox="0 0 58 58" version="1.1" xmlns="http://www.w3.org/2000/svg" xmlns:xlink="http://www.w3.org/1999/xlink">
    <!-- Generator: Sketch 46.2 (44496) - http://www.bohemiancoding.com/sketch -->
    <title>ico-lupa</title>
    <desc>Created with Sketch.</desc>
    <defs></defs>
    <g id="Page-1" stroke="none" stroke-width="1" fill="none" fill-rule="evenodd">
        <g id="7.1-Concluído" transform="translate(-161.000000, -629.000000)">
            <g id="ico-lupa" transform="translate(161.000000, 629.000000)">
                <circle id="Oval-17-Copy-2" fill="#0060A8" cx="29" cy="29" r="29"></circle>
                <path d="M25.9375,28.2 C25.9375,30.192 27.52875,31.8 29.5,31.8 C31.47125,31.8 33.0625,30.192 33.0625,28.2 C33.0625,26.208 31.47125,24.6 29.5,24.6 C27.52875,24.6 25.9375,26.208 25.9375,28.2 L25.9375,28.2 Z M39,36.108 L39,22.2 L31.875,15 L22.375,15 C21.06875,15 20.011875,16.08 20.011875,17.4 L20,36.6 C20,37.92 21.056875,39 22.363125,39 L36.625,39 C37.159375,39 37.634375,38.82 38.038125,38.52 L32.7775,33.204 C31.8275,33.828 30.71125,34.2 29.5,34.2 C26.2225,34.2 23.5625,31.512 23.5625,28.2 C23.5625,24.888 26.2225,22.2 29.5,22.2 C32.7775,22.2 35.4375,24.888 35.4375,28.2 C35.4375,29.424 35.069375,30.552 34.451875,31.5 L39,36.108 Z" id="Page-1" fill="#FFFFFF"></path>
            </g>
        </g>
    </g>
</svg>
