<?xml version="1.0" encoding="UTF-8"?>
<svg width="20px" height="22px" viewBox="0 0 20 22" version="1.1" xmlns="http://www.w3.org/2000/svg" xmlns:xlink="http://www.w3.org/1999/xlink">
    <defs></defs>
    <g id="Symbols" stroke="none" stroke-width="1" fill="none" fill-rule="evenodd">
        <g id="ico-excluir-item" transform="translate(-5.000000, -4.000000)">
            <g id="ic-excluir-item">
                <rect id="space" fill="#D8D8D8" opacity="0" x="0" y="0" width="30" height="30"></rect>
                <path d="M12.2733332,12.6370832 L12.2733332,20.8195831 C12.2733332,21.0752862 12.074453,21.2741664 11.8187499,21.2741664 L10.9095833,21.2741664 C10.6538801,21.2741664 10.4549999,21.0752862 10.4549999,20.8195831 L10.4549999,12.6370832 C10.4549999,12.3813801 10.6538801,12.1824999 10.9095833,12.1824999 L11.8187499,12.1824999 C12.074453,12.1824999 12.2733332,12.3813801 12.2733332,12.6370832 Z M15.9099998,12.6370832 L15.9099998,20.8195831 C15.9099998,21.0752862 15.7111196,21.2741664 15.4554165,21.2741664 L14.5462499,21.2741664 C14.2905467,21.2741664 14.0916665,21.0752862 14.0916665,20.8195831 L14.0916665,12.6370832 C14.0916665,12.3813801 14.2905467,12.1824999 14.5462499,12.1824999 L15.4554165,12.1824999 C15.7111196,12.1824999 15.9099998,12.3813801 15.9099998,12.6370832 Z M19.5466665,12.6370832 L19.5466665,20.8195831 C19.5466665,21.0752862 19.3477863,21.2741664 19.0920831,21.2741664 L18.1829165,21.2741664 C17.9272134,21.2741664 17.7283332,21.0752862 17.7283332,20.8195831 L17.7283332,12.6370832 C17.7283332,12.3813801 17.9272134,12.1824999 18.1829165,12.1824999 L19.0920831,12.1824999 C19.3477863,12.1824999 19.5466665,12.3813801 19.5466665,12.6370832 Z M21.3649998,22.922031 L21.3649998,9.45499992 L8.63666662,9.45499992 L8.63666662,22.922031 C8.63666662,23.603906 9.0202213,24.0016664 9.09124994,24.0016664 L20.9104164,24.0016664 C20.9814451,24.0016664 21.3649998,23.603906 21.3649998,22.922031 Z M11.8187499,7.63666662 L18.1829165,7.63666662 L17.5010415,5.97459633 C17.4584243,5.91777341 17.3305727,5.83253904 17.2595441,5.81833331 L12.756328,5.81833331 C12.6710936,5.83253904 12.5574478,5.91777341 12.5148306,5.97459633 L11.8187499,7.63666662 Z M25.0016664,8.09124994 L25.0016664,9.0004166 C25.0016664,9.25611972 24.8027862,9.45499992 24.5470831,9.45499992 L23.1833331,9.45499992 L23.1833331,22.922031 C23.1833331,24.4846612 22.1605206,25.8199997 20.9104164,25.8199997 L9.09124994,25.8199997 C7.84114579,25.8199997 6.81833331,24.5414841 6.81833331,22.9788539 L6.81833331,9.45499992 L5.45458333,9.45499992 C5.19888021,9.45499992 5,9.25611972 5,9.0004166 L5,8.09124994 C5,7.83554682 5.19888021,7.63666662 5.45458333,7.63666662 L9.84415358,7.63666662 L10.8385546,5.26430988 C11.1226692,4.56822916 11.9750129,4 12.7279166,4 L17.2737498,4 C18.0266535,4 18.8789972,4.56822916 19.1631118,5.26430988 L20.1575128,7.63666662 L24.5470831,7.63666662 C24.8027862,7.63666662 25.0016664,7.83554682 25.0016664,8.09124994 Z" id="ico-excluir-item" fill="#D62219"></path>
            </g>
        </g>
    </g>
</svg>