<?xml version="1.0" encoding="UTF-8"?>
<svg width="24px" height="19px" viewBox="0 0 24 19" version="1.1" xmlns="http://www.w3.org/2000/svg" xmlns:xlink="http://www.w3.org/1999/xlink">
    <defs></defs>
    <g id="Symbols" stroke="none" stroke-width="1" fill="none" fill-rule="evenodd">
        <g id="ico-editar-bb" transform="translate(-4.000000, -6.000000)">
            <g id="ic-editar">
                <rect id="space" fill="#D8D8D8" opacity="0" x="0" y="0" width="30" height="30"></rect>
                <path d="M15.8501003,20.3026629 L17.3980864,18.7546768 L15.3696909,16.7262813 L13.8217048,18.2742674 L13.8217048,19.021571 L15.1027967,19.021571 L15.1027967,20.3026629 L15.8501003,20.3026629 Z M21.7217717,10.6944735 C21.6016693,10.5743711 21.4014987,10.5877158 21.2813963,10.7078182 L16.6107487,15.3784658 C16.4906463,15.4985682 16.4773016,15.6987388 16.597404,15.8188412 C16.7175063,15.9389435 16.9176769,15.9255988 17.0377793,15.8054965 L21.708427,11.1348488 C21.8285293,11.0147464 21.841874,10.8145758 21.7217717,10.6944735 Z M22.7893483,18.6212298 L22.7893483,21.1567242 C22.7893483,23.2785327 21.067881,25 18.9460725,25 L7.84327579,25 C5.72146728,25 4,23.2785327 4,21.1567242 L4,10.0539275 C4,7.932119 5.72146728,6.21065172 7.84327579,6.21065172 L18.9460725,6.21065172 C19.4798608,6.21065172 20.0136491,6.31740938 20.5074033,6.54426941 C20.6275057,6.59764824 20.7209186,6.71775061 20.747608,6.85119768 C20.7742974,6.99798946 20.7342633,7.13143654 20.6275057,7.2381942 L19.973615,7.89208487 C19.8535126,8.01218724 19.6933761,8.05222136 19.5465843,7.99884253 C19.3464137,7.9454637 19.1462431,7.91877429 18.9460725,7.91877429 L7.84327579,7.91877429 C6.66894152,7.91877429 5.70812257,8.87959323 5.70812257,10.0539275 L5.70812257,21.1567242 C5.70812257,22.3310585 6.66894152,23.2918774 7.84327579,23.2918774 L18.9460725,23.2918774 C20.1204068,23.2918774 21.0812257,22.3310585 21.0812257,21.1567242 L21.0812257,19.4752911 C21.0812257,19.3685334 21.1212598,19.2617757 21.2013281,19.1817075 L22.0553894,18.3276462 C22.1888364,18.1941991 22.3623176,18.1675097 22.5224541,18.2342333 C22.6825906,18.3009568 22.7893483,18.4477486 22.7893483,18.6212298 Z M21.5082564,8.77283557 L25.3515321,12.6161114 L16.3838886,21.5837549 L12.5406129,21.5837549 L12.5406129,17.7404791 L21.5082564,8.77283557 Z M27.4333065,10.534337 L26.2055934,11.7620501 L22.3623176,7.91877429 L23.5900307,6.69106119 C24.0837849,6.19730701 24.9111568,6.19730701 25.404911,6.69106119 L27.4333065,8.71945674 C27.9270607,9.21321092 27.9270607,10.0405828 27.4333065,10.534337 Z" id="ico_edit" fill="#0060A8"></path>
            </g>
        </g>
    </g>
</svg>