<?xml version="1.0" encoding="UTF-8"?>
<svg width="19px" height="19px" viewBox="0 0 19 19" version="1.1" xmlns="http://www.w3.org/2000/svg" xmlns:xlink="http://www.w3.org/1999/xlink">
    <defs></defs>
    <g id="Symbols" stroke="none" stroke-width="1" fill="none" fill-rule="evenodd">
        <g id="btn_pesquisar_bb" transform="translate(-19.000000, -13.000000)" fill="#FFFFFF">
            <g id="btn_pesquisar_mapfre">
                <g id="ico/procurar-assis-mapfre" transform="translate(19.000000, 13.000000)">
                    <path d="M12.8571582,8.14284778 C12.8571582,5.38614806 10.6138519,3.14284182 7.85715222,3.14284182 C5.10045251,3.14284182 2.85714626,5.38614806 2.85714626,8.14284778 C2.85714626,10.8995475 5.10045251,13.1428537 7.85715222,13.1428537 C10.6138519,13.1428537 12.8571582,10.8995475 12.8571582,8.14284778 Z M18.5714507,17.4285731 C18.5714507,18.2098241 17.9241285,18.8571463 17.1428776,18.8571463 C16.7634128,18.8571463 16.3951088,18.7008961 16.1384121,18.4330386 L12.3102825,14.6160698 C11.0044774,15.5200887 9.44197554,16 7.85715222,16 C3.51562919,16 0,12.4843708 0,8.14284778 C0,3.80132474 3.51562919,0.285695553 7.85715222,0.285695553 C12.1986753,0.285695553 15.7143044,3.80132474 15.7143044,8.14284778 C15.7143044,9.72767109 15.2343932,11.290173 14.3303742,12.5959781 L18.1585038,16.4241076 C18.4152005,16.6808044 18.5714507,17.0491084 18.5714507,17.4285731 Z" id="ico-procurar-assis-mapfre"></path>
                </g>
            </g>
        </g>
    </g>
</svg>