<?xml version="1.0" encoding="UTF-8"?>
<svg width="110px" height="92px" viewBox="0 0 110 92" version="1.1" xmlns="http://www.w3.org/2000/svg" xmlns:xlink="http://www.w3.org/1999/xlink">
    <!-- Generator: Sketch 45 (43475) - http://www.bohemiancoding.com/sketch -->
    <title>ico_excluir-item</title>
    <desc>Created with Sketch.</desc>
    <defs></defs>
    <g id="Page-1" stroke="none" stroke-width="1" fill="none" fill-rule="evenodd">
        <g id="excluir-item-Mapfre-(Web)" transform="translate(-546.000000, -1001.000000)">
            <g id="alert_mapfre" transform="translate(367.000000, 927.000000)">
                <g id="ico-popout/ico_excluir-item" transform="translate(159.000000, 45.000000)">
                    <g id="ico_excluir-item">
                        <rect id="space" fill="#D8D8D8" opacity="0" x="0" y="0" width="150" height="150"></rect>
                        <g id="Group" transform="translate(20.000000, 29.000000)">
                            <path d="M59.5473133,3.75301299 L108.667094,83.3787631 L108.667094,83.3787631 C110.116903,85.7289793 109.386978,88.8095081 107.036762,90.2593167 C106.247681,90.7460879 105.338796,91.0038739 104.411652,91.0038739 L6.17208963,91.0038739 L6.17208963,91.0038739 C3.41066588,91.0038739 1.17208963,88.7652977 1.17208963,86.0038739 C1.17208963,85.0767298 1.42987565,84.1678449 1.91664685,83.3787631 L51.0364278,3.75301299 L51.0364278,3.75301299 C52.4862365,1.40279684 55.5667652,0.672872349 57.9169814,2.12268101 C58.5800139,2.53169461 59.1382998,3.08998043 59.5473133,3.75301299 Z" id="Triangle" stroke="#979797" fill="#999999"></path>
                            <path d="M58.9662834,60.9348065 L52.3783582,60.9348065 L51.0013739,34.5561061 L60.3432677,34.5561061 L58.9662834,60.9348065 Z M50.8933751,70.1687016 C50.8933751,68.6567112 51.2983664,67.5137356 52.1083613,66.7397405 C52.9183561,65.9657454 54.0973309,65.5787537 55.6453211,65.5787537 C57.1393116,65.5787537 58.2957869,65.9747452 59.1147817,66.7667402 C59.9337765,67.5587352 60.3432677,68.6927109 60.3432677,70.1687016 C60.3432677,71.5906925 59.9292766,72.7111686 59.1012818,73.5301634 C58.2732871,74.3491582 57.1213117,74.7586494 55.6453211,74.7586494 C54.1333307,74.7586494 52.9633557,74.358158 52.135361,73.5571631 C51.3073662,72.7561682 50.8933751,71.6266923 50.8933751,70.1687016 Z" id="!" fill="#FFFFFF"></path>
                        </g>
                    </g>
                </g>
            </g>
        </g>
    </g>
</svg>