<?xml version="1.0" encoding="UTF-8"?>
<svg width="16px" height="13px" viewBox="0 0 16 13" version="1.1" xmlns="http://www.w3.org/2000/svg" xmlns:xlink="http://www.w3.org/1999/xlink">
    <!-- Generator: Sketch 44 (41411) - http://www.bohemiancoding.com/sketch -->
    <title>Check</title>
    <desc>Created with Sketch.</desc>
    <defs></defs>
    <g id="Symbols" stroke="none" stroke-width="1" fill="none" fill-rule="evenodd">
        <g id="barra_status_passo_2" transform="translate(-38.000000, -14.000000)" fill="#08BD8E">
            <g id="barra_status_inicial">
                <g id="status_info_inicial">
                    <g id="Check" transform="translate(38.000000, 14.000000)">
                        <path d="M15.6565657,2.87676768 C15.6565657,3.14612929 15.5622905,3.37508323 15.3737374,3.56363636 L6.68686869,12.2505051 C6.49831556,12.4390582 6.26936162,12.5333333 6,12.5333333 C5.73063838,12.5333333 5.50168444,12.4390582 5.31313131,12.2505051 L0.282828283,7.22020202 C0.0942751515,7.03164889 0,6.80269495 0,6.53333333 C0,6.26397172 0.0942751515,6.03501778 0.282828283,5.84646465 L1.65656566,4.47272727 C1.84511879,4.28417414 2.07407273,4.18989899 2.34343434,4.18989899 C2.61279596,4.18989899 2.8417499,4.28417414 3.03030303,4.47272727 L6,7.45252525 L12.6262626,0.816161616 C12.8148158,0.627608485 13.0437697,0.533333333 13.3131313,0.533333333 C13.5824929,0.533333333 13.8114469,0.627608485 14,0.816161616 L15.3737374,2.18989899 C15.5622905,2.37845212 15.6565657,2.60740606 15.6565657,2.87676768 Z" id="Check---FontAwesome-Copy"></path>
                    </g>
                </g>
            </g>
        </g>
    </g>
</svg>