<?xml version="1.0" encoding="UTF-8"?>
<svg width="11px" height="8px" viewBox="0 0 11 8" version="1.1" xmlns="http://www.w3.org/2000/svg" xmlns:xlink="http://www.w3.org/1999/xlink">
    <!-- Generator: Sketch 44.1 (41455) - http://www.bohemiancoding.com/sketch -->
    <title>check-azul</title>
    <desc>Created with Sketch.</desc>
    <defs></defs>
    <g id="Symbols" stroke="none" stroke-width="1" fill="none" fill-rule="evenodd">
        <g id="check-azul" fill="#0060A8">
            <path d="M11,1.56228956 C11,1.74186397 10.9337641,1.89449993 10.8012903,2.02020202 L4.69806452,7.81144781 C4.56559074,7.9371499 4.40473213,8 4.21548387,8 C4.02623561,8 3.86537701,7.9371499 3.73290323,7.81144781 L0.198709677,4.45791246 C0.0662358968,4.33221037 0,4.17957441 0,4 C0,3.82042559 0.0662358968,3.66778963 0.198709677,3.54208754 L1.16387097,2.62626263 C1.29634475,2.50056054 1.45720335,2.43771044 1.64645161,2.43771044 C1.83569987,2.43771044 1.99655848,2.50056054 2.12903226,2.62626263 L4.21548387,4.61279461 L8.87096774,0.188552189 C9.00344152,0.062850101 9.16430013,0 9.35354839,0 C9.54279665,0 9.70365525,0.062850101 9.83612903,0.188552189 L10.8012903,1.1043771 C10.9337641,1.23007919 11,1.38271515 11,1.56228956 Z"></path>
        </g>
    </g>
</svg>