<?xml version="1.0" encoding="UTF-8"?>
<svg width="18px" height="18px" viewBox="0 0 18 18" version="1.1" xmlns="http://www.w3.org/2000/svg" xmlns:xlink="http://www.w3.org/1999/xlink">
    <!-- Generator: Sketch 44 (41411) - http://www.bohemiancoding.com/sketch -->
    <title>ico_tooltip</title>
    <desc>Created with Sketch.</desc>
    <defs></defs>
    <g id="1.-Preenchimento-de-sinistro" stroke="none" stroke-width="1" fill="none" fill-rule="evenodd">
        <g id="1.1-Preenchimento_Segurado_aberto_MAPFRE-(Web)" transform="translate(-725.000000, -1699.000000)">
            <g id="tooltip_obrigatorio" transform="translate(725.000000, 1699.000000)">
                <g id="ico_tooltip">
                    <circle id="Oval-2" fill="#E2E2E2" cx="9" cy="9" r="9"></circle>
                    <path d="M9.74331551,10.0753053 L8.28342246,10.0753053 L8.05347594,4 L9.97326203,4 L9.74331551,10.0753053 Z M8,11.968114 C8,11.6668913 8.09536447,11.4196075 8.28609626,11.2262551 C8.47682805,11.0329027 8.71479358,10.936228 9,10.936228 C9.28520642,10.936228 9.52317195,11.0329027 9.71390374,11.2262551 C9.90463553,11.4196075 10,11.6668913 10,11.968114 C10,12.2693366 9.90463553,12.5166205 9.71390374,12.7099729 C9.52317195,12.9033253 9.28520642,13 9,13 C8.71479358,13 8.47682805,12.9033253 8.28609626,12.7099729 C8.09536447,12.5166205 8,12.2693366 8,11.968114 Z" id="!" fill="#FFFFFF"></path>
                </g>
            </g>
        </g>
    </g>
</svg>