<?xml version="1.0" encoding="UTF-8"?>
<svg width="23px" height="18px" viewBox="0 0 23 18" version="1.1" xmlns="http://www.w3.org/2000/svg" xmlns:xlink="http://www.w3.org/1999/xlink">
    <!-- Generator: Sketch 43.2 (39069) - http://www.bohemiancoding.com/sketch -->
    <title>ico_check</title>
    <desc>Created with Sketch.</desc>
    <defs></defs>
    <g id="1.-Estilos" stroke="none" stroke-width="1" fill="none" fill-rule="evenodd">
        <g id="1.3-Iconografia" transform="translate(-1224.000000, -304.000000)" fill="#FFFFFF">
            <g id="ico_check" transform="translate(1224.000000, 304.000000)">
                <path d="M23,3.51515152 C23,3.91919394 22.8615068,4.26262485 22.5845161,4.54545455 L9.82322581,17.5757576 C9.54623517,17.8585873 9.20989445,18 8.81419355,18 C8.41849265,18 8.08215192,17.8585873 7.80516129,17.5757576 L0.415483871,10.030303 C0.138493239,9.74747333 0,9.40404242 0,9 C0,8.59595758 0.138493239,8.25252667 0.415483871,7.96969697 L2.43354839,5.90909091 C2.71053902,5.62626121 3.04687974,5.48484848 3.44258065,5.48484848 C3.83828155,5.48484848 4.17462227,5.62626121 4.4516129,5.90909091 L8.81419355,10.3787879 L18.5483871,0.424242424 C18.8253777,0.141412727 19.1617185,0 19.5574194,0 C19.9531203,0 20.289461,0.141412727 20.5664516,0.424242424 L22.5845161,2.48484848 C22.8615068,2.76767818 23,3.11110909 23,3.51515152 Z" id="Check---FontAwesome-Copy"></path>
            </g>
        </g>
    </g>
</svg>